{
.appVersion = "3151";
.formatVersion = 3;
axes = (
{
name = Width;
tag = wdth;
},
{
name = Slant;
tag = slnt;
},
{
name = Weight;
tag = wght;
}
);
date = "2019-02-24 09:28:57 +0000";
familyName = "Lakehurst Gothic";
featurePrefixes = (
{
automatic = 1;
code = "languagesystem DFLT dflt;

languagesystem latn dflt;
languagesystem latn ROM;
languagesystem latn MOL;
languagesystem latn CAT;
";
name = Languagesystems;
}
);
features = (
{
automatic = 1;
code = "feature locl;
feature ordn;
feature pnum;
feature tnum;
feature zero;
feature ss01;
";
tag = aalt;
},
{
automatic = 1;
code = "lookup locl_latn_0 {
	script latn;
	language ROM;
	sub Scedilla by Scommaaccent;
	sub Tcedilla by Tcommaaccent;
	language MOL;
	sub Scedilla by Scommaaccent;
	sub Tcedilla by Tcommaaccent;
} locl_latn_0;

lookup locl_latn_1 {
	script latn;
	language CAT;
	sub  L' periodcentered' L by Ldot;
} locl_latn_1;
";
tag = locl;
},
{
automatic = 1;
code = "sub [zero one two three four five six seven eight nine] [O]' by ordmasculine;
";
tag = ordn;
},
{
automatic = 1;
code = "sub zero.tf by zero;
sub one.tf by one;
sub two.tf by two;
sub three.tf by three;
sub four.tf by four;
sub five.tf by five;
sub six.tf by six;
sub seven.tf by seven;
sub eight.tf by eight;
sub nine.tf by nine;
";
tag = pnum;
},
{
automatic = 1;
code = "sub zero by zero.tf;
sub one by one.tf;
sub two by two.tf;
sub three by three.tf;
sub four by four.tf;
sub five by five.tf;
sub six by six.tf;
sub seven by seven.tf;
sub eight by eight.tf;
sub nine by nine.tf;
";
tag = tnum;
},
{
automatic = 1;
code = "sub zero by zero.zero;
";
tag = zero;
},
{
automatic = 1;
code = "sub A by A.ss01;
sub I by I.ss01;
sub Iacute by Iacute.ss01;
sub Ibreve by Ibreve.ss01;
sub Icaron by Icaron.ss01;
sub Icircumflex by Icircumflex.ss01;
sub Idieresis by Idieresis.ss01;
sub Idotaccent by Idotaccent.ss01;
sub Igrave by Igrave.ss01;
sub Imacron by Imacron.ss01;
sub Iogonek by Iogonek.ss01;
sub Itilde by Itilde.ss01;
sub one by one.ss01;

glyphs = (
{
glyphname = A;
kernLeft = A;
kernRight = A;
lastChange = "2019-06-07 13:30:34 +0000";
layers = (
{
anchors = (
{
name = above;
pos = (383,875);
},
{
name = lowerRight;
pos = (762,0);
}
);
hints = (
{
horizontal = 1;
origin = (1,3);
target = (1,2);
type = Stem;
}
);
layerId = "E82D559A-267E-4BF3-BBA1-0778DA3FF57C";
shapes = (
{
closed = 1;
nodes = (
(166,0,l),
(401,577,l),
(373,577,l),
(608,0,l),
(762,0,l),
(462,700,l),
(312,700,l),
(12,0,l)
);
},
{
closed = 1;
nodes = (
(588,145,l),
(588,275,l),
(185,275,l),
(185,145,l)
);
}
);
width = 774;
},
{
anchors = (
{
name = above;
pos = (561,875);
},
{
name = lowerRight;
pos = (1112,0);
}
);
layerId = "B8F43E33-4D80-4AEE-B4E2-DC92E4FCAAE5";
shapes = (
{
closed = 1;
nodes = (
(182,0,l),
(580,587,l),
(544,587,l),
(942,0,l),
(1112,0,l),
(637,700,l),
(487,700,l),
(12,0,l)
);
},
{
closed = 1;
nodes = (
(881,145,l),
(881,275,l),
(242,275,l),
(242,145,l)
);
}
);
width = 1124;
},
{
anchors = (
{
name = above;
pos = (519,875);
},
{
name = lowerRight;
pos = (709,0);
}
);
layerId = "198E78DA-6138-42C0-8847-C36925CEE918";
shapes = (
{
closed = 1;
nodes = (
(115,0,l),
(473,577,l),
(445,577,l),
(557,0,l),
(709,0,l),
(558,700,l),
(408,700,l),
(-41,0,l)
);
},
{
closed = 1;
nodes = (
(567,145,l),
(594,275,l),
(191,275,l),
(164,145,l)
);
}
);
width = 774;
},
{
anchors = (
{
name = above;
pos = (388,875);
},
{
name = lowerRight;
pos = (762,0);
}
);
layerId = "E0F5E986-8A77-409E-9DB3-A90D066F072F";
shapes = (
{
closed = 1;
nodes = (
(91,0,l),
(356,630,l),
(419,630,l),
(683,0,l),
(762,0,l),
(462,700,l),
(312,700,l),
(12,0,l)
);
},
{
closed = 1;
nodes = (
(618,205,l),
(618,275,l),
(155,275,l),
(155,205,l)
);
}
);
width = 774;
},
{
anchors = (
{
name = above;
pos = (563,875);
},
{
name = lowerRight;
pos = (1112,0);
}
);
hints = (
{
horizontal = 1;
place = (215, 60);
place = (215, 60);
type = Stem;
}
);
layerId = "671D7F47-0040-4C88-995A-F1154CC787CA";
shapes = (
{
closed = 1;
nodes = (
(98,0,l),
(524,630,l),
(599,630,l),
(1025,0,l),
(1112,0,l),
(637,700,l),
(487,700,l),
(12,0,l)
);
},
{
closed = 1;
nodes = (
(895,205,l),
(895,275,l),
(232,275,l),
(232,205,l)
);
}
);
width = 1124;
},
{
anchors = (
{
name = above;
pos = (524,875);
},
{
name = lowerRight;
pos = (709,0);
}
);
hints = (
{
horizontal = 1;
origin = (1,3);
target = (1,2);
type = Stem;
}
);
layerId = "69FAE2FB-B0EC-4DE1-A39D-F4FC44956106";
shapes = (
{
closed = 1;
nodes = (
(43,0,l),
(444,630,l),
(502,630,l),
(637,0,l),
(709,0,l),
(558,700,l),
(408,700,l),
(-41,0,l)
);
},
{
closed = 1;
nodes = (
(615,205,l),
(615,275,l),
(152,275,l),
(152,205,l)
);
}
);
width = 774;
}
);
unicode = (65,97);
},
{
glyphname = AE;
kernLeft = A;
kernRight = E;
lastChange = "2019-06-02 14:00:56 +0000";
layers = (
{
hints = (
{
horizontal = 1;
origin = (0,3);
target = (2,2);
type = Stem;
},
{
horizontal = 1;
origin = (4,3);
target = (4,2);
type = Stem;
},
{
horizontal = 1;
origin = (5,3);
target = (0,2);
type = Stem;
},
{
horizontal = 1;
origin = (1,3);
target = (1,2);
type = Stem;
},
{
origin = (3,3);
target = (3,0);
type = Stem;
}
);
layerId = "E82D559A-267E-4BF3-BBA1-0778DA3FF57C";
shapes = (
{
closed = 1;
nodes = (
(166,0,l),
(451,700,l),
(312,700,l),
(12,0,l)
);
},
{
closed = 1;
nodes = (
(461,145,l),
(461,275,l),
(185,275,l),
(185,145,l)
);
},
{
closed = 1;
nodes = (
(835,0,l),
(835,140,l),
(465,140,l),
(465,0,l)
);
},
{
closed = 1;
nodes = (
(535,0,l),
(535,700,l),
(395,700,l),
(395,0,l)
);
},
{
closed = 1;
nodes = (
(745,280,l),
(745,420,l),
(465,420,l),
(465,280,l)
);
},
{
closed = 1;
nodes = (
(835,560,l),
(835,700,l),
(325,700,l),
(325,560,l)
);
}
);
width = 905;
},
{
layerId = "B8F43E33-4D80-4AEE-B4E2-DC92E4FCAAE5";
shapes = (
{
closed = 1;
nodes = (
(184,0,l),
(681,700,l),
(487,700,l),
(12,0,l)
);
},
{
closed = 1;
nodes = (
(661,145,l),
(661,275,l),
(220,275,l),
(220,145,l)
);
},
{
closed = 1;
nodes = (
(1150,0,l),
(1150,140,l),
(655,140,l),
(655,0,l)
);
},
{
closed = 1;
nodes = (
(725,0,l),
(725,700,l),
(585,700,l),
(585,0,l)
);
},
{
closed = 1;
nodes = (
(1110,280,l),
(1110,420,l),
(655,420,l),
(655,280,l)
);
},
{
closed = 1;
nodes = (
(1150,560,l),
(1150,700,l),
(655,700,l),
(655,560,l)
);
}
);
width = 1220;
},
{
layerId = "198E78DA-6138-42C0-8847-C36925CEE918";
shapes = (
{
closed = 1;
nodes = (
(115,0,l),
(562,700,l),
(408,700,l),
(-41,0,l)
);
},
{
closed = 1;
nodes = (
(460,145,l),
(487,275,l),
(191,275,l),
(164,145,l)
);
},
{
closed = 1;
nodes = (
(803,0,l),
(833,140,l),
(463,140,l),
(433,0,l)
);
},
{
closed = 1;
nodes = (
(503,0,l),
(652,700,l),
(512,700,l),
(363,0,l)
);
},
{
closed = 1;
nodes = (
(773,280,l),
(802,420,l),
(522,420,l),
(493,280,l)
);
},
{
closed = 1;
nodes = (
(922,560,l),
(952,700,l),
(442,700,l),
(412,560,l)
);
}
);
width = 926;
},
{
layerId = "E0F5E986-8A77-409E-9DB3-A90D066F072F";
shapes = (
{
closed = 1;
nodes = (
(87,0,l),
(365,700,l),
(289,700,l),
(12,0,l)
);
},
{
closed = 1;
nodes = (
(500,215,l),
(500,275,l),
(151,275,l),
(151,215,l)
);
},
{
closed = 1;
nodes = (
(868,0,l),
(868,70,l),
(500,70,l),
(500,0,l)
);
},
{
closed = 1;
nodes = (
(535,0,l),
(535,700,l),
(465,700,l),
(465,0,l)
);
},
{
closed = 1;
nodes = (
(789,315,l),
(789,385,l),
(500,385,l),
(500,315,l)
);
},
{
closed = 1;
nodes = (
(868,630,l),
(868,700,l),
(310,700,l),
(310,630,l)
);
}
);
width = 938;
},
{
hints = (
{
horizontal = 1;
origin = (0,3);
target = (2,2);
type = Stem;
},
{
horizontal = 1;
origin = (4,3);
target = (4,2);
type = Stem;
},
{
horizontal = 1;
origin = (5,3);
target = (0,2);
type = Stem;
},
{
horizontal = 1;
origin = (1,3);
target = (1,2);
type = Stem;
},
{
origin = (3,3);
target = (3,0);
type = Stem;
}
);
layerId = "671D7F47-0040-4C88-995A-F1154CC787CA";
shapes = (
{
closed = 1;
nodes = (
(96,0,l),
(554,700,l),
(471,700,l),
(12,0,l)
);
},
{
closed = 1;
nodes = (
(704,215,l),
(704,275,l),
(190,275,l),
(190,215,l)
);
},
{
closed = 1;
nodes = (
(1187,0,l),
(1187,70,l),
(694,70,l),
(694,0,l)
);
},
{
closed = 1;
nodes = (
(729,0,l),
(729,700,l),
(659,700,l),
(659,0,l)
);
},
{
closed = 1;
nodes = (
(1158,315,l),
(1158,385,l),
(694,385,l),
(694,315,l)
);
},
{
closed = 1;
nodes = (
(1187,630,l),
(1187,700,l),
(494,700,l),
(494,630,l)
);
}
);
width = 1257;
},
{
guides = (
{
angle = 78;
pos = (493,275);
}
);
hints = (
{
horizontal = 1;
origin = (0,3);
target = (2,2);
type = Stem;
},
{
horizontal = 1;
origin = (4,3);
target = (4,2);
type = Stem;
},
{
horizontal = 1;
origin = (5,3);
target = (0,2);
type = Stem;
},
{
horizontal = 1;
origin = (1,3);
target = (1,2);
type = Stem;
},
{
origin = (3,3);
target = (3,0);
type = Stem;
}
);
layerId = "69FAE2FB-B0EC-4DE1-A39D-F4FC44956106";
shapes = (
{
closed = 1;
nodes = (
(35,2,l),
(470,700,l),
(392,700,l),
(-41,0,l)
);
},
{
closed = 1;
nodes = (
(480,215,l),
(493,275,l),
(154,275,l),
(141,215,l)
);
},
{
closed = 1;
nodes = (
(820,0,l),
(835,70,l),
(474,70,l),
(459,0,l)
);
},
{
closed = 1;
nodes = (
(487,0,l),
(636,700,l),
(566,700,l),
(417,0,l)
);
},
{
closed = 1;
nodes = (
(801,315,l),
(816,385,l),
(541,385,l),
(526,315,l)
);
},
{
closed = 1;
nodes = (
(954,630,l),
(969,700,l),
(411,700,l),
(396,630,l)
);
}
);
width = 943;
}
);
metricLeft = A;
metricRight = E;
unicode = (198,230);
},
{
glyphname = B;
lastChange = "2019-06-02 18:11:56 +0000";
layers = (
{
hints = (
{
horizontal = 1;
origin = (1,3);
target = (0,19);
type = Stem;
},
{
horizontal = 1;
origin = (0,14);
target = (0,13);
type = Stem;
},
{
horizontal = 1;
origin = (0,8);
target = (1,2);
type = Stem;
},
{
origin = (1,3);
target = (1,0);
type = Stem;
},
{
origin = (0,17);
target = (0,1);
type = Stem;
}
);
layerId = "E82D559A-267E-4BF3-BBA1-0778DA3FF57C";
shapes = (
{
closed = 1;
nodes = (
(515,0,l),
(655,70,l),
(655,280,l),
(585,350,l),
(655,420,l),
(655,630,l),
(515,700,l),
(141,700,l),
(141,560,l),
(505,560,l),
(505,560,l),
(505,420,l),
(505,420,l),
(141,420,l),
(141,280,l),
(505,280,l),
(505,280,l),
(505,140,l),
(505,140,l),
(141,140,l),
(141,0,l)
);
},
{
closed = 1;
nodes = (
(210,0,l),
(210,700,l),
(70,700,l),
(70,0,l)
);
}
);
width = 725;
},
{
layerId = "B8F43E33-4D80-4AEE-B4E2-DC92E4FCAAE5";
shapes = (
{
closed = 1;
nodes = (
(873,0,l),
(1013,70,l),
(1013,280,l),
(943,350,l),
(1013,420,l),
(1013,630,l),
(873,700,l),
(141,700,l),
(141,560,l),
(863,560,l),
(863,560,l),
(863,420,l),
(863,420,l),
(141,420,l),
(141,280,l),
(863,280,l),
(863,280,l),
(863,140,l),
(863,140,l),
(141,140,l),
(141,0,l)
);
},
{
closed = 1;
nodes = (
(210,0,l),
(210,700,l),
(70,700,l),
(70,0,l)
);
}
);
width = 1083;
},
{
layerId = "198E78DA-6138-42C0-8847-C36925CEE918";
shapes = (
{
closed = 1;
nodes = (
(463,0,l),
(617,70,l),
(660,280,l),
(606,349,l),
(692,420,l),
(735,630,l),
(610,700,l),
(237,700,l),
(207,560,l),
(571,560,l),
(571,560,l),
(542,420,l),
(542,420,l),
(177,420,l),
(148,280,l),
(511,280,l),
(511,280,l),
(482,140,l),
(482,140,l),
(118,140,l),
(88,0,l)
);
},
{
closed = 1;
nodes = (
(157,0,l),
(306,700,l),
(166,700,l),
(17,0,l)
);
}
);
width = 726;
},
{
layerId = "E0F5E986-8A77-409E-9DB3-A90D066F072F";
shapes = (
{
closed = 1;
nodes = (
(515,0,l),
(655,70,l),
(655,280,l),
(585,350,l),
(655,420,l),
(655,630,l),
(515,700,l),
(106,700,l),
(106,630,l),
(505,630,l),
(585,591,l),
(585,450,l),
(520,385,l),
(106,385,l),
(106,315,l),
(520,315,l),
(585,250,l),
(585,110,l),
(505,70,l),
(106,70,l),
(106,0,l)
);
},
{
closed = 1;
nodes = (
(140,0,l),
(140,700,l),
(70,700,l),
(70,0,l)
);
}
);
width = 725;
},
{
hints = (
{
horizontal = 1;
origin = (1,3);
target = (0,19);
type = Stem;
},
{
horizontal = 1;
origin = (0,14);
target = (0,13);
type = Stem;
},
{
horizontal = 1;
origin = (0,8);
target = (1,2);
type = Stem;
},
{
origin = (1,3);
target = (1,0);
type = Stem;
},
{
origin = (0,17);
target = (0,1);
type = Stem;
}
);
layerId = "671D7F47-0040-4C88-995A-F1154CC787CA";
shapes = (
{
closed = 1;
nodes = (
(803,0,l),
(943,70,l),
(943,280,l),
(873,350,l),
(943,420,l),
(943,630,l),
(803,700,l),
(106,700,l),
(106,630,l),
(793,630,l),
(873,591,l),
(873,450,l),
(808,385,l),
(106,385,l),
(106,315,l),
(808,315,l),
(873,250,l),
(873,110,l),
(793,70,l),
(106,70,l),
(106,0,l)
);
},
{
closed = 1;
nodes = (
(140,0,l),
(140,700,l),
(70,700,l),
(70,0,l)
);
}
);
width = 1013;
},
{
guides = (
{
angle = 78;
pos = (386,577);
}
);
hints = (
{
horizontal = 1;
origin = (1,3);
target = (0,11);
type = Stem;
},
{
horizontal = 1;
origin = (0,17);
target = (0,16);
type = Stem;
},
{
horizontal = 1;
origin = (0,18);
target = (1,2);
type = Stem;
},
{
origin = (1,3);
target = (1,0);
type = Stem;
},
{
origin = (0,17);
target = (0,11);
type = Stem;
}
);
layerId = "69FAE2FB-B0EC-4DE1-A39D-F4FC44956106";
shapes = (
{
closed = 1;
nodes = (
(463,0,l),
(617,70,l),
(660,280,l),
(606,349,l),
(692,420,l),
(735,630,l),
(610,700,l),
(202,700,l),
(187,630,l),
(592,630,l),
(656,594,l),
(628,458,l),
(538,384,l),
(135,384,l),
(120,314,l),
(545,314,l),
(585,262,l),
(556,119,l),
(448,70,l),
(68,70,l),
(53,0,l)
);
},
{
closed = 1;
nodes = (
(87,0,l),
(236,700,l),
(166,700,l),
(17,0,l)
);
}
);
width = 726;
}
);
metricLeft = H;
unicode = (66,98);
},
{
glyphname = C;
lastChange = "2019-06-02 16:25:48 +0000";
layers = (
{
anchors = (
{
name = above;
pos = (368,875);
},
{
name = below;
pos = (367,0);
},
{
name = lowerRight;
pos = (485,0);
}
);
hints = (
{
horizontal = 1;
origin = (0,6);
target = (0,19);
type = Stem;
},
{
horizontal = 1;
origin = (0,16);
target = (0,9);
type = Stem;
},
{
origin = (0,18);
target = (0,19);
type = Stem;
},
{
origin = (0,0);
target = (0,1);
type = Stem;
}
);
layerId = "E82D559A-267E-4BF3-BBA1-0778DA3FF57C";
shapes = (
{
closed = 1;
nodes = (
(525,0,l),
(665,70,l),
(665,210,l),
(525,210,l),
(525,140,l),
(525,140,l),
(210,140,l),
(210,140,l),
(210,560,l),
(210,560,l),
(525,560,l),
(525,560,l),
(525,490,l),
(665,490,l),
(665,630,l),
(525,700,l),
(210,700,l),
(70,630,l),
(70,70,l),
(210,0,l)
);
}
);
width = 735;
},
{
anchors = (
{
name = above;
pos = (587,875);
},
{
name = below;
pos = (587,0);
},
{
name = lowerRight;
pos = (823,0);
}
);
hints = (
{
horizontal = 1;
origin = (0,19);
target = (0,6);
type = Stem;
},
{
horizontal = 1;
origin = (0,9);
target = (0,16);
type = Stem;
},
{
origin = (0,18);
target = (0,19);
type = Stem;
},
{
origin = (0,0);
target = (0,1);
type = Stem;
}
);
layerId = "B8F43E33-4D80-4AEE-B4E2-DC92E4FCAAE5";
shapes = (
{
closed = 1;
nodes = (
(963,0,l),
(1103,70,l),
(1103,210,l),
(963,210,l),
(963,140,l),
(963,140,l),
(210,140,l),
(210,140,l),
(210,560,l),
(210,560,l),
(963,560,l),
(963,560,l),
(963,490,l),
(1103,490,l),
(1103,630,l),
(963,700,l),
(210,700,l),
(70,630,l),
(70,70,l),
(210,0,l)
);
}
);
width = 1173;
},
{
anchors = (
{
name = above;
pos = (502,875);
},
{
name = below;
pos = (315,0);
},
{
name = lowerRight;
pos = (433,0);
}
);
hints = (
{
horizontal = 1;
origin = (0,19);
target = (0,6);
type = Stem;
},
{
horizontal = 1;
origin = (0,10);
target = (0,16);
type = Stem;
}
);
layerId = "198E78DA-6138-42C0-8847-C36925CEE918";
shapes = (
{
closed = 1;
nodes = (
(474,0,l),
(628,70,l),
(658,210,l),
(518,210,l),
(503,140,l),
(503,140,l),
(188,140,l),
(188,140,l),
(277,560,l),
(277,560,l),
(592,560,l),
(592,560,l),
(577,490,l),
(717,490,l),
(746,630,l),
(621,700,l),
(306,700,l),
(151,630,l),
(33,70,l),
(159,0,l)
);
}
);
width = 737;
},
{
anchors = (
{
name = above;
pos = (368,875);
},
{
name = below;
pos = (367,0);
},
{
name = lowerRight;
pos = (485,0);
}
);
hints = (
{
horizontal = 1;
origin = (0,19);
target = (0,18);
type = Stem;
},
{
horizontal = 1;
origin = (0,17);
target = (0,16);
type = Stem;
},
{
origin = (0,18);
target = (0,7);
type = Stem;
},
{
origin = (0,4);
target = (0,1);
type = Stem;
}
);
layerId = "E0F5E986-8A77-409E-9DB3-A90D066F072F";
shapes = (
{
closed = 1;
nodes = (
(525,0,l),
(665,70,l),
(665,240,l),
(595,240,l),
(595,113,l),
(508,70,l),
(227,70,l),
(140,113,l),
(140,587,l),
(227,630,l),
(508,630,l),
(595,587,l),
(595,460,l),
(665,460,l),
(665,630,l),
(525,700,l),
(210,700,l),
(70,630,l),
(70,70,l),
(210,0,l)
);
}
);
width = 735;
},
{
anchors = (
{
name = above;
pos = (548,875);
},
{
name = below;
pos = (587,0);
},
{
name = lowerRight;
pos = (807,0);
}
);
hints = (
{
horizontal = 1;
origin = (0,19);
target = (0,18);
type = Stem;
},
{
horizontal = 1;
origin = (0,17);
target = (0,16);
type = Stem;
},
{
origin = (0,18);
target = (0,7);
type = Stem;
},
{
origin = (0,4);
target = (0,1);
type = Stem;
}
);
layerId = "671D7F47-0040-4C88-995A-F1154CC787CA";
shapes = (
{
closed = 1;
nodes = (
(963,0,l),
(1103,70,l),
(1103,240,l),
(1033,240,l),
(1033,113,l),
(946,70,l),
(227,70,l),
(140,113,l),
(140,587,l),
(227,630,l),
(946,630,l),
(1033,587,l),
(1033,460,l),
(1103,460,l),
(1103,630,l),
(963,700,l),
(210,700,l),
(70,630,l),
(70,70,l),
(210,0,l)
);
}
);
width = 1173.33333;
},
{
anchors = (
{
name = above;
pos = (502,875);
},
{
name = below;
pos = (315,0);
},
{
name = lowerRight;
pos = (433,0);
}
);
guides = (
{
angle = 78;
pos = (664,240);
}
);
hints = (
{
horizontal = 1;
origin = (0,19);
target = (0,18);
type = Stem;
},
{
horizontal = 1;
origin = (0,17);
target = (0,16);
type = Stem;
}
);
layerId = "69FAE2FB-B0EC-4DE1-A39D-F4FC44956106";
shapes = (
{
closed = 1;
nodes = (
(474,0,l),
(628,70,l),
(664,240,l),
(593,240,l),
(567,119,l),
(459,70,l),
(177,70,l),
(112,106,l),
(212,581,l),
(321,630,l),
(603,630,l),
(667,594,l),
(640,460,l),
(711,460,l),
(746,630,l),
(621,700,l),
(306,700,l),
(151,630,l),
(33,70,l),
(159,0,l)
);
}
);
width = 736;
}
);
metricLeft = O;
metricRight = O;
unicode = (67,99);
},
{
glyphname = D;
lastChange = "2019-06-02 16:27:41 +0000";
layers = (
{
anchors = (
{
name = above;
pos = (366,875);
}
);
hints = (
{
horizontal = 1;
origin = (0,5);
target = (1,6);
type = Stem;
},
{
horizontal = 1;
origin = (1,1);
target = (0,4);
type = Stem;
},
{
origin = (0,5);
target = (1,7);
type = Stem;
},
{
origin = (0,0);
target = (0,1);
type = Stem;
}
);
layerId = "E82D559A-267E-4BF3-BBA1-0778DA3FF57C";
shapes = (
{
closed = 1;
nodes = (
(525,0,l),
(665,70,l),
(665,630,l),
(525,700,l),
(70,700,l),
(70,0,l)
);
},
{
closed = 1;
nodes = (
(210,605,l),
(165,560,l),
(525,560,l),
(525,560,l),
(525,140,l),
(525,140,l),
(165,140,l),
(210,95,l)
);
}
);
width = 735;
},
{
anchors = (
{
name = above;
pos = (586,875);
}
);
layerId = "B8F43E33-4D80-4AEE-B4E2-DC92E4FCAAE5";
shapes = (
{
closed = 1;
nodes = (
(963,0,l),
(1103,70,l),
(1103,630,l),
(963,700,l),
(70,700,l),
(70,0,l)
);
},
{
closed = 1;
nodes = (
(210,605,l),
(165,560,l),
(963,560,l),
(963,560,l),
(963,140,l),
(963,140,l),
(165,140,l),
(210,95,l)
);
}
);
width = 1172.5;
},
{
anchors = (
{
name = above;
pos = (479,875);
}
);
layerId = "198E78DA-6138-42C0-8847-C36925CEE918";
shapes = (
{
closed = 1;
nodes = (
(473,0,l),
(627,70,l),
(745,630,l),
(620,700,l),
(166,700,l),
(17,0,l)
);
},
{
closed = 1;
nodes = (
(285,605,l),
(230,560,l),
(591,560,l),
(591,560,l),
(502,140,l),
(502,140,l),
(143,140,l),
(178,95,l)
);
}
);
width = 735;
},
{
anchors = (
{
name = above;
pos = (366,875);
}
);
layerId = "E0F5E986-8A77-409E-9DB3-A90D066F072F";
shapes = (
{
closed = 1;
nodes = (
(525,0,l),
(665,70,l),
(665,630,l),
(525,700,l),
(70,700,l),
(70,0,l)
);
},
{
closed = 1;
nodes = (
(140,675,l),
(95,630,l),
(508,630,l),
(595,587,l),
(595,113,l),
(508,70,l),
(95,70,l),
(140,25,l)
);
}
);
width = 735;
},
{
anchors = (
{
name = above;
pos = (586,875);
}
);
hints = (
{
horizontal = 1;
origin = (0,5);
target = (1,6);
type = Stem;
},
{
horizontal = 1;
origin = (1,1);
target = (0,4);
type = Stem;
},
{
origin = (0,5);
target = (1,7);
type = Stem;
},
{
origin = (0,0);
target = (0,1);
type = Stem;
}
);
layerId = "671D7F47-0040-4C88-995A-F1154CC787CA";
shapes = (
{
closed = 1;
nodes = (
(963,0,l),
(1103,70,l),
(1103,630,l),
(963,700,l),
(70,700,l),
(70,0,l)
);
},
{
closed = 1;
nodes = (
(140,675,l),
(95,630,l),
(946,630,l),
(1033,587,l),
(1033,113,l),
(946,70,l),
(95,70,l),
(140,25,l)
);
}
);
width = 1172.5;
},
{
anchors = (
{
name = above;
pos = (479,875);
}
);
hints = (
{
horizontal = 1;
origin = (0,5);
target = (0,1);
type = Stem;
},
{
horizontal = 1;
origin = (0,2);
target = (0,4);
type = Stem;
},
{
origin = (0,5);
target = (0,4);
type = Stem;
},
{
origin = (0,0);
target = (0,1);
type = Stem;
}
);
layerId = "69FAE2FB-B0EC-4DE1-A39D-F4FC44956106";
shapes = (
{
closed = 1;
nodes = (
(473,0,l),
(627,70,l),
(745,630,l),
(620,700,l),
(166,700,l),
(17,0,l)
);
},
{
closed = 1;
nodes = (
(232,674,l),
(178,630,l),
(602,630,l),
(666,594,l),
(566,119,l),
(458,70,l),
(58,70,l),
(94,26,l)
);
}
);
width = 735;
}
);
metricLeft = H;
metricRight = O;
unicode = (68,100);
},
{
glyphname = Eth;
lastChange = "2019-06-02 00:52:56 +0000";
layers = (
{
hints = (
{
horizontal = 1;
origin = (0,0);
target = (0,1);
type = Stem;
}
);
layerId = "E82D559A-267E-4BF3-BBA1-0778DA3FF57C";
shapes = (
{
closed = 1;
nodes = (
(385,280,l),
(385,420,l),
(35,420,l),
(35,280,l)
);
},
{
pos = (70,0);
ref = D;
}
);
width = 805;
},
{
layerId = "B8F43E33-4D80-4AEE-B4E2-DC92E4FCAAE5";
shapes = (
{
closed = 1;
nodes = (
(507,280,l),
(507,420,l),
(87,420,l),
(87,280,l)
);
},
{
alignment = -1;
pos = (157.5,0);
ref = D;
}
);
width = 1330;
},
{
layerId = "198E78DA-6138-42C0-8847-C36925CEE918";
shapes = (
{
closed = 1;
nodes = (
(392,280,l),
(421,420,l),
(71,420,l),
(42,280,l)
);
},
{
pos = (70,0);
ref = D;
}
);
width = 805;
},
{
layerId = "E0F5E986-8A77-409E-9DB3-A90D066F072F";
shapes = (
{
closed = 1;
nodes = (
(245,315,l),
(245,385,l),
(35,385,l),
(35,315,l)
);
},
{
pos = (35,0);
ref = D;
}
);
width = 770;
},
{
hints = (
{
horizontal = 1;
origin = (0,0);
target = (0,1);
type = Stem;
}
);
layerId = "671D7F47-0040-4C88-995A-F1154CC787CA";
shapes = (
{
closed = 1;
nodes = (
(332,315,l),
(332,385,l),
(122,385,l),
(122,315,l)
);
},
{
alignment = -1;
pos = (123,0);
ref = D;
}
);
width = 1295;
},
{
hints = (
{
horizontal = 1;
origin = (0,0);
target = (0,1);
type = Stem;
}
);
layerId = "69FAE2FB-B0EC-4DE1-A39D-F4FC44956106";
shapes = (
{
closed = 1;
nodes = (
(252,315,l),
(281,385,l),
(71,385,l),
(42,315,l)
);
},
{
alignment = -1;
pos = (35,0);
ref = D;
}
);
width = 770;
}
);
unicode = (208,240);
},
{
glyphname = E;
kernLeft = E;
kernRight = E;
lastChange = "2019-06-02 23:43:33 +0000";
layers = (
{
anchors = (
{
name = above;
pos = (394,875);
},
{
name = lowerRight;
pos = (650,0);
}
);
hints = (
{
horizontal = 1;
origin = (1,2);
target = (0,3);
type = Stem;
},
{
horizontal = 1;
origin = (2,2);
target = (2,3);
type = Stem;
},
{
horizontal = 1;
origin = (0,2);
target = (3,3);
type = Stem;
},
{
origin = (0,3);
target = (0,0);
type = Stem;
}
);
layerId = "E82D559A-267E-4BF3-BBA1-0778DA3FF57C";
shapes = (
{
closed = 1;
nodes = (
(210,0,l),
(210,700,l),
(70,700,l),
(70,0,l)
);
},
{
closed = 1;
nodes = (
(650,0,l),
(650,140,l),
(140,140,l),
(140,0,l)
);
},
{
closed = 1;
nodes = (
(445,280,l),
(445,420,l),
(140,420,l),
(140,280,l)
);
},
{
closed = 1;
nodes = (
(650,560,l),
(650,700,l),
(140,700,l),
(140,560,l)
);
}
);
width = 720;
},
{
anchors = (
{
name = above;
pos = (545,877);
},
{
name = lowerRight;
pos = (950,0);
}
);
layerId = "B8F43E33-4D80-4AEE-B4E2-DC92E4FCAAE5";
shapes = (
{
closed = 1;
nodes = (
(210,0,l),
(210,700,l),
(70,700,l),
(70,0,l)
);
},
{
closed = 1;
nodes = (
(950,0,l),
(950,140,l),
(140,140,l),
(140,0,l)
);
},
{
closed = 1;
nodes = (
(546,280,l),
(546,420,l),
(140,420,l),
(140,280,l)
);
},
{
closed = 1;
nodes = (
(950,560,l),
(950,700,l),
(140,700,l),
(140,560,l)
);
}
);
width = 1020;
},
{
anchors = (
{
name = above;
pos = (487,875);
},
{
name = lowerRight;
pos = (597,0);
}
);
layerId = "198E78DA-6138-42C0-8847-C36925CEE918";
shapes = (
{
closed = 1;
nodes = (
(157,0,l),
(306,700,l),
(166,700,l),
(17,0,l)
);
},
{
closed = 1;
nodes = (
(597,0,l),
(627,140,l),
(117,140,l),
(87,0,l)
);
},
{
closed = 1;
nodes = (
(452,280,l),
(481,420,l),
(176,420,l),
(147,280,l)
);
},
{
closed = 1;
nodes = (
(716,560,l),
(746,700,l),
(236,700,l),
(206,560,l)
);
}
);
width = 720;
},
{
anchors = (
{
name = above;
pos = (368,875);
},
{
name = lowerRight;
pos = (650,0);
}
);
layerId = "E0F5E986-8A77-409E-9DB3-A90D066F072F";
shapes = (
{
closed = 1;
nodes = (
(140,0,l),
(140,700,l),
(70,700,l),
(70,0,l)
);
},
{
closed = 1;
nodes = (
(650,0,l),
(650,70,l),
(105,70,l),
(105,0,l)
);
},
{
closed = 1;
nodes = (
(445,315,l),
(445,385,l),
(105,385,l),
(105,315,l)
);
},
{
closed = 1;
nodes = (
(650,630,l),
(650,700,l),
(105,700,l),
(105,630,l)
);
}
);
width = 720;
},
{
anchors = (
{
name = above;
pos = (527,878);
},
{
name = lowerRight;
pos = (950,0);
}
);
hints = (
{
horizontal = 1;
origin = (1,2);
target = (0,3);
type = Stem;
},
{
horizontal = 1;
origin = (2,2);
target = (2,3);
type = Stem;
},
{
horizontal = 1;
origin = (0,2);
target = (3,3);
type = Stem;
},
{
origin = (0,3);
target = (0,0);
type = Stem;
}
);
layerId = "671D7F47-0040-4C88-995A-F1154CC787CA";
shapes = (
{
closed = 1;
nodes = (
(140,0,l),
(140,700,l),
(70,700,l),
(70,0,l)
);
},
{
closed = 1;
nodes = (
(950,0,l),
(950,70,l),
(105,70,l),
(105,0,l)
);
},
{
closed = 1;
nodes = (
(538,315,l),
(538,385,l),
(105,385,l),
(105,315,l)
);
},
{
closed = 1;
nodes = (
(950,630,l),
(950,700,l),
(105,700,l),
(105,630,l)
);
}
);
width = 1020;
},
{
anchors = (
{
name = above;
pos = (481,875);
},
{
name = lowerRight;
pos = (596,0);
}
);
guides = (
{
angle = 78;
pos = (486,315);
}
);
hints = (
{
horizontal = 1;
origin = (1,2);
target = (0,3);
type = Stem;
},
{
horizontal = 1;
origin = (2,2);
target = (2,3);
type = Stem;
},
{
horizontal = 1;
origin = (0,2);
target = (3,3);
type = Stem;
},
{
origin = (0,3);
target = (0,0);
type = Stem;
}
);
layerId = "69FAE2FB-B0EC-4DE1-A39D-F4FC44956106";
shapes = (
{
closed = 1;
nodes = (
(87,0,l),
(236,700,l),
(166,700,l),
(17,0,l)
);
},
{
closed = 1;
nodes = (
(596,0,l),
(612,70,l),
(67,70,l),
(51,0,l)
);
},
{
closed = 1;
nodes = (
(486,315,l),
(501,385,l),
(134,385,l),
(119,315,l)
);
},
{
closed = 1;
nodes = (
(731,630,l),
(747,700,l),
(201,700,l),
(185,630,l)
);
}
);
width = 721;
}
);
metricLeft = H;
unicode = (69,101);
},
{
glyphname = F;
kernLeft = H;
kernRight = F;
lastChange = "2019-06-02 18:43:30 +0000";
layers = (
{
hints = (
{
horizontal = 1;
origin = (1,3);
target = (1,2);
type = Stem;
},
{
horizontal = 1;
origin = (2,3);
target = (0,2);
type = Stem;
},
{
origin = (0,3);
target = (0,0);
type = Stem;
}
);
layerId = "E82D559A-267E-4BF3-BBA1-0778DA3FF57C";
shapes = (
{
closed = 1;
nodes = (
(210,0,l),
(210,700,l),
(70,700,l),
(70,0,l)
);
},
{
closed = 1;
nodes = (
(490,280,l),
(490,420,l),
(140,420,l),
(140,280,l)
);
},
{
closed = 1;
nodes = (
(620,560,l),
(620,700,l),
(140,700,l),
(140,560,l)
);
}
);
width = 655;
},
{
hints = (
{
horizontal = 1;
origin = (1,3);
target = (1,2);
type = Stem;
},
{
horizontal = 1;
origin = (2,3);
target = (0,2);
type = Stem;
},
{
origin = (0,3);
target = (0,0);
type = Stem;
}
);
layerId = "B8F43E33-4D80-4AEE-B4E2-DC92E4FCAAE5";
shapes = (
{
closed = 1;
nodes = (
(210,0,l),
(210,700,l),
(70,700,l),
(70,0,l)
);
},
{
closed = 1;
nodes = (
(750,280,l),
(750,420,l),
(140,420,l),
(140,280,l)
);
},
{
closed = 1;
nodes = (
(940,560,l),
(940,700,l),
(140,700,l),
(140,560,l)
);
}
);
width = 975;
},
{
hints = (
{
horizontal = 1;
origin = (1,3);
target = (1,2);
type = Stem;
},
{
horizontal = 1;
origin = (2,3);
target = (0,2);
type = Stem;
}
);
layerId = "198E78DA-6138-42C0-8847-C36925CEE918";
shapes = (
{
closed = 1;
nodes = (
(157,0,l),
(306,700,l),
(166,700,l),
(17,0,l)
);
},
{
closed = 1;
nodes = (
(497,280,l),
(526,420,l),
(176,420,l),
(147,280,l)
);
},
{
closed = 1;
nodes = (
(686,560,l),
(716,700,l),
(236,700,l),
(206,560,l)
);
}
);
width = 655;
},
{
hints = (
{
horizontal = 1;
origin = (1,3);
target = (1,2);
type = Stem;
},
{
horizontal = 1;
origin = (2,3);
target = (0,2);
type = Stem;
},
{
origin = (0,3);
target = (0,0);
type = Stem;
}
);
layerId = "E0F5E986-8A77-409E-9DB3-A90D066F072F";
shapes = (
{
closed = 1;
nodes = (
(140,0,l),
(140,700,l),
(70,700,l),
(70,0,l)
);
},
{
closed = 1;
nodes = (
(490,315,l),
(490,385,l),
(105,385,l),
(105,315,l)
);
},
{
closed = 1;
nodes = (
(620,630,l),
(620,700,l),
(105,700,l),
(105,630,l)
);
}
);
width = 655;
},
{
hints = (
{
horizontal = 1;
origin = (1,3);
target = (1,2);
type = Stem;
},
{
horizontal = 1;
origin = (2,3);
target = (0,2);
type = Stem;
},
{
origin = (0,3);
target = (0,0);
type = Stem;
}
);
layerId = "671D7F47-0040-4C88-995A-F1154CC787CA";
shapes = (
{
closed = 1;
nodes = (
(140,0,l),
(140,700,l),
(70,700,l),
(70,0,l)
);
},
{
closed = 1;
nodes = (
(750,315,l),
(750,385,l),
(105,385,l),
(105,315,l)
);
},
{
closed = 1;
nodes = (
(940,630,l),
(940,700,l),
(105,700,l),
(105,630,l)
);
}
);
width = 975;
},
{
hints = (
{
horizontal = 1;
origin = (1,2);
target = (1,3);
type = Stem;
},
{
horizontal = 1;
origin = (0,2);
target = (2,3);
type = Stem;
}
);
layerId = "69FAE2FB-B0EC-4DE1-A39D-F4FC44956106";
shapes = (
{
closed = 1;
nodes = (
(87,0,l),
(236,700,l),
(166,700,l),
(17,0,l)
);
},
{
closed = 1;
nodes = (
(503,315,l),
(517,385,l),
(132,385,l),
(118,315,l)
);
},
{
closed = 1;
nodes = (
(701,630,l),
(716,700,l),
(201,700,l),
(186,630,l)
);
}
);
width = 655;
}
);
metricLeft = H;
unicode = (70,102);
},
{
glyphname = G;
lastChange = "2019-06-02 16:34:16 +0000";
layers = (
{
anchors = (
{
name = above;
pos = (368,875);
},
{
name = below;
pos = (368,0);
}
);
hints = (
{
horizontal = 1;
origin = (0,9);
target = (0,22);
type = Stem;
},
{
horizontal = 1;
origin = (0,3);
target = (0,4);
type = Stem;
},
{
horizontal = 1;
origin = (0,19);
target = (0,12);
type = Stem;
},
{
origin = (0,21);
target = (0,22);
type = Stem;
},
{
origin = (0,0);
target = (0,1);
type = Stem;
}
);
layerId = "E82D559A-267E-4BF3-BBA1-0778DA3FF57C";
shapes = (
{
closed = 1;
nodes = (
(525,0,l),
(665,70,l),
(665,420,l),
(385,420,l),
(385,280,l),
(570,280,l),
(525,325,l),
(525,140,l),
(525,140,l),
(210,140,l),
(210,140,l),
(210,560,l),
(210,560,l),
(525,560,l),
(525,560,l),
(525,490,l),
(665,490,l),
(665,630,l),
(525,700,l),
(210,700,l),
(70,630,l),
(70,70,l),
(210,0,l)
);
}
);
width = 735;
},
{
anchors = (
{
name = above;
pos = (586,875);
},
{
name = below;
pos = (588,0);
}
);
hints = (
{
horizontal = 1;
origin = (0,22);
target = (0,9);
type = Stem;
},
{
horizontal = 1;
origin = (0,4);
target = (0,3);
type = Stem;
},
{
horizontal = 1;
origin = (0,19);
target = (0,12);
type = Stem;
},
{
origin = (0,21);
target = (0,22);
type = Stem;
},
{
origin = (0,0);
target = (0,1);
type = Stem;
}
);
layerId = "B8F43E33-4D80-4AEE-B4E2-DC92E4FCAAE5";
shapes = (
{
closed = 1;
nodes = (
(963,0,l),
(1103,70,l),
(1103,420,l),
(823,420,l),
(823,280,l),
(1008,280,l),
(963,325,l),
(963,140,l),
(963,140,l),
(210,140,l),
(210,140,l),
(210,560,l),
(210,560,l),
(963,560,l),
(963,560,l),
(963,490,l),
(1103,490,l),
(1103,630,l),
(963,700,l),
(210,700,l),
(70,630,l),
(70,70,l),
(210,0,l)
);
}
);
width = 1172.5;
},
{
anchors = (
{
name = above;
pos = (502,875);
},
{
name = below;
pos = (316,0);
}
);
hints = (
{
horizontal = 1;
origin = (0,22);
target = (0,9);
type = Stem;
},
{
horizontal = 1;
origin = (0,4);
target = (0,3);
type = Stem;
},
{
horizontal = 1;
origin = (0,19);
target = (0,14);
type = Stem;
}
);
layerId = "198E78DA-6138-42C0-8847-C36925CEE918";
shapes = (
{
closed = 1;
nodes = (
(474,0,l),
(628,70,l),
(702,420,l),
(422,420,l),
(393,280,l),
(576,280,l),
(541,325,l),
(503,140,l),
(503,140,l),
(188,140,l),
(188,140,l),
(277,560,l),
(277,560,l),
(592,560,l),
(592,560,l),
(577,490,l),
(717,490,l),
(746,630,l),
(621,700,l),
(306,700,l),
(151,630,l),
(33,70,l),
(159,0,l)
);
}
);
width = 736;
},
{
anchors = (
{
name = above;
pos = (368,875);
},
{
name = below;
pos = (368,0);
}
);
hints = (
{
horizontal = 1;
origin = (0,22);
target = (0,21);
type = Stem;
},
{
horizontal = 1;
origin = (0,4);
target = (0,3);
type = Stem;
},
{
horizontal = 1;
origin = (0,19);
target = (0,20);
type = Stem;
},
{
origin = (0,21);
target = (0,10);
type = Stem;
},
{
origin = (0,7);
target = (0,1);
type = Stem;
}
);
layerId = "E0F5E986-8A77-409E-9DB3-A90D066F072F";
shapes = (
{
closed = 1;
nodes = (
(525,0,l),
(665,70,l),
(665,385,l),
(385,385,l),
(385,315,l),
(640,315,l),
(595,360,l),
(595,113,l),
(508,70,l),
(227,70,l),
(140,113,l),
(140,587,l),
(227,630,l),
(508,630,l),
(595,587,l),
(595,490,l),
(665,490,l),
(665,630,l),
(525,700,l),
(210,700,l),
(70,630,l),
(70,70,l),
(210,0,l)
);
}
);
width = 735;
},
{
anchors = (
{
name = above;
pos = (586,875);
},
{
name = below;
pos = (588,0);
}
);
hints = (
{
horizontal = 1;
origin = (0,22);
target = (0,21);
type = Stem;
},
{
horizontal = 1;
origin = (0,3);
target = (0,4);
type = Stem;
},
{
horizontal = 1;
origin = (0,19);
target = (0,20);
type = Stem;
},
{
origin = (0,21);
target = (0,10);
type = Stem;
},
{
origin = (0,7);
target = (0,1);
type = Stem;
}
);
layerId = "671D7F47-0040-4C88-995A-F1154CC787CA";
shapes = (
{
closed = 1;
nodes = (
(963,0,l),
(1103,70,l),
(1103,385,l),
(823,385,l),
(823,315,l),
(1078,315,l),
(1033,360,l),
(1033,113,l),
(946,70,l),
(227,70,l),
(140,113,l),
(140,587,l),
(227,630,l),
(946,630,l),
(1033,587,l),
(1033,490,l),
(1103,490,l),
(1103,630,l),
(963,700,l),
(210,700,l),
(70,630,l),
(70,70,l),
(210,0,l)
);
}
);
width = 1172.5;
},
{
anchors = (
{
name = above;
pos = (502,875);
},
{
name = below;
pos = (316,0);
}
);
hints = (
{
horizontal = 1;
origin = (0,21);
target = (0,22);
type = Stem;
},
{
horizontal = 1;
origin = (0,3);
target = (0,4);
type = Stem;
},
{
horizontal = 1;
origin = (0,19);
target = (0,20);
type = Stem;
}
);
layerId = "69FAE2FB-B0EC-4DE1-A39D-F4FC44956106";
shapes = (
{
closed = 1;
nodes = (
(474,0,l),
(628,70,l),
(694,385,l),
(396,385,l),
(382,315,l),
(653,315,l),
(617,359,l),
(567,119,l),
(459,70,l),
(177,70,l),
(112,106,l),
(212,581,l),
(321,630,l),
(603,630,l),
(667,594,l),
(642,490,l),
(713,490,l),
(746,630,l),
(621,700,l),
(306,700,l),
(151,630,l),
(33,70,l),
(159,0,l)
);
}
);
width = 736;
}
);
metricLeft = O;
metricRight = O;
unicode = (71,103);
},
{
glyphname = H;
lastChange = "2019-06-02 13:18:22 +0000";
layers = (
{
anchors = (
{
name = above;
pos = (380,875);
}
);
hints = (
{
horizontal = 1;
origin = (2,2);
target = (2,3);
type = Stem;
},
{
origin = (1,3);
target = (1,0);
type = Stem;
},
{
origin = (0,3);
target = (0,0);
type = Stem;
}
);
layerId = "E82D559A-267E-4BF3-BBA1-0778DA3FF57C";
shapes = (
{
closed = 1;
nodes = (
(690,0,l),
(690,700,l),
(550,700,l),
(550,0,l)
);
},
{
closed = 1;
nodes = (
(210,0,l),
(210,700,l),
(70,700,l),
(70,0,l)
);
},
{
closed = 1;
nodes = (
(620,280,l),
(620,420,l),
(140,420,l),
(140,280,l)
);
}
);
width = 760;
},
{
anchors = (
{
name = above;
pos = (587,875);
}
);
hints = (
{
horizontal = 1;
origin = (2,3);
target = (2,2);
type = Stem;
},
{
origin = (1,3);
target = (1,0);
type = Stem;
},
{
origin = (0,3);
target = (0,0);
type = Stem;
}
);
layerId = "B8F43E33-4D80-4AEE-B4E2-DC92E4FCAAE5";
shapes = (
{
closed = 1;
nodes = (
(1100,0,l),
(1100,700,l),
(960,700,l),
(960,0,l)
);
},
{
closed = 1;
nodes = (
(210,0,l),
(210,700,l),
(70,700,l),
(70,0,l)
);
},
{
closed = 1;
nodes = (
(1030,280,l),
(1030,420,l),
(140,420,l),
(140,280,l)
);
}
);
width = 1170;
},
{
anchors = (
{
name = above;
pos = (501,875);
}
);
hints = (
{
horizontal = 1;
origin = (2,3);
target = (2,2);
type = Stem;
}
);
layerId = "198E78DA-6138-42C0-8847-C36925CEE918";
shapes = (
{
closed = 1;
nodes = (
(637,0,l),
(786,700,l),
(646,700,l),
(497,0,l)
);
},
{
closed = 1;
nodes = (
(157,0,l),
(306,700,l),
(166,700,l),
(17,0,l)
);
},
{
closed = 1;
nodes = (
(627,280,l),
(656,420,l),
(176,420,l),
(147,280,l)
);
}
);
width = 760;
},
{
anchors = (
{
name = above;
pos = (380,875);
}
);
hints = (
{
horizontal = 1;
origin = (2,3);
target = (2,2);
type = Stem;
},
{
origin = (1,3);
target = (1,0);
type = Stem;
},
{
origin = (0,3);
target = (0,0);
type = Stem;
}
);
layerId = "E0F5E986-8A77-409E-9DB3-A90D066F072F";
shapes = (
{
closed = 1;
nodes = (
(690,0,l),
(690,700,l),
(620,700,l),
(620,0,l)
);
},
{
closed = 1;
nodes = (
(140,0,l),
(140,700,l),
(70,700,l),
(70,0,l)
);
},
{
closed = 1;
nodes = (
(655,315,l),
(655,385,l),
(105,385,l),
(105,315,l)
);
}
);
width = 760;
},
{
anchors = (
{
name = above;
pos = (565,875);
}
);
hints = (
{
horizontal = 1;
origin = (2,3);
target = (2,2);
type = Stem;
},
{
origin = (1,3);
target = (1,0);
type = Stem;
},
{
origin = (0,3);
target = (0,0);
type = Stem;
}
);
layerId = "671D7F47-0040-4C88-995A-F1154CC787CA";
shapes = (
{
closed = 1;
nodes = (
(1030,0,l),
(1030,700,l),
(960,700,l),
(960,0,l)
);
},
{
closed = 1;
nodes = (
(140,0,l),
(140,700,l),
(70,700,l),
(70,0,l)
);
},
{
closed = 1;
nodes = (
(995,315,l),
(995,385,l),
(105,385,l),
(105,315,l)
);
}
);
width = 1100;
},
{
anchors = (
{
name = above;
pos = (501,875);
}
);
hints = (
{
horizontal = 1;
origin = (2,2);
target = (2,3);
type = Stem;
}
);
layerId = "69FAE2FB-B0EC-4DE1-A39D-F4FC44956106";
shapes = (
{
closed = 1;
nodes = (
(637,0,l),
(786,700,l),
(716,700,l),
(567,0,l)
);
},
{
closed = 1;
nodes = (
(87,0,l),
(236,700,l),
(166,700,l),
(17,0,l)
);
},
{
closed = 1;
nodes = (
(662,315,l),
(681,385,l),
(131,385,l),
(112,315,l)
);
}
);
width = 760;
}
);
unicode = (72,104);
},
{
glyphname = Hbar;
lastChange = "2019-06-02 22:48:26 +0000";
layers = (
{
hints = (
{
horizontal = 1;
origin = (0,3);
target = (0,2);
type = Stem;
}
);
layerId = "E82D559A-267E-4BF3-BBA1-0778DA3FF57C";
shapes = (
{
closed = 1;
nodes = (
(795,525,l),
(795,595,l),
(35,595,l),
(35,525,l)
);
},
{
pos = (35,0);
ref = H;
}
);
width = 830;
},
{
layerId = "B8F43E33-4D80-4AEE-B4E2-DC92E4FCAAE5";
shapes = (
{
closed = 1;
nodes = (
(1205,525,l),
(1205,595,l),
(35,595,l),
(35,525,l)
);
},
{
alignment = -1;
pos = (35,0);
ref = H;
}
);
width = 1240;
},
{
layerId = "198E78DA-6138-42C0-8847-C36925CEE918";
shapes = (
{
closed = 1;
nodes = (
(854,525,l),
(868,595,l),
(108,595,l),
(94,525,l)
);
},
{
pos = (32,0);
ref = H;
}
);
width = 831;
},
{
layerId = "E0F5E986-8A77-409E-9DB3-A90D066F072F";
shapes = (
{
closed = 1;
nodes = (
(795,535,l),
(795,585,l),
(35,585,l),
(35,535,l)
);
},
{
pos = (35,0);
ref = H;
}
);
width = 830;
},
{
hints = (
{
horizontal = 1;
origin = (0,3);
target = (0,2);
type = Stem;
}
);
layerId = "671D7F47-0040-4C88-995A-F1154CC787CA";
shapes = (
{
closed = 1;
nodes = (
(1228,535,l),
(1228,585,l),
(35,585,l),
(35,535,l)
);
},
{
alignment = -1;
pos = (82,0);
ref = H;
}
);
width = 1263.33333;
},
{
hints = (
{
horizontal = 1;
origin = (0,3);
target = (0,2);
type = Stem;
}
);
layerId = "69FAE2FB-B0EC-4DE1-A39D-F4FC44956106";
shapes = (
{
closed = 1;
nodes = (
(856,535,l),
(866,585,l),
(106,585,l),
(96,535,l)
);
},
{
alignment = -1;
pos = (35,0);
ref = H;
}
);
width = 830;
}
);
unicode = (294,295);
},
{
glyphname = I;
kernLeft = I;
kernRight = I;
lastChange = "2023-04-01 19:07:30 +0000";
layers = (
{
anchors = (
{
name = above;
pos = (140,875);
},
{
name = lowerRight;
pos = (210,0);
}
);
hints = (
{
origin = (0,3);
target = (0,0);
type = Stem;
}
);
layerId = "E82D559A-267E-4BF3-BBA1-0778DA3FF57C";
shapes = (
{
closed = 1;
nodes = (
(210,0,l),
(210,700,l),
(70,700,l),
(70,0,l)
);
}
);
width = 280;
},
{
anchors = (
{
name = above;
pos = (140,875);
},
{
name = lowerRight;
pos = (210,0);
}
);
layerId = "B8F43E33-4D80-4AEE-B4E2-DC92E4FCAAE5";
shapes = (
{
closed = 1;
nodes = (
(210,0,l),
(210,700,l),
(70,700,l),
(70,0,l)
);
}
);
width = 280;
},
{
anchors = (
{
name = above;
pos = (273,875);
},
{
name = lowerRight;
pos = (157,0);
}
);
layerId = "198E78DA-6138-42C0-8847-C36925CEE918";
shapes = (
{
closed = 1;
nodes = (
(157,0,l),
(306,700,l),
(166,700,l),
(17,0,l)
);
}
);
width = 280;
},
{
anchors = (
{
name = above;
pos = (105,875);
},
{
name = lowerRight;
pos = (140,0);
}
);
layerId = "E0F5E986-8A77-409E-9DB3-A90D066F072F";
shapes = (
{
closed = 1;
nodes = (
(140,0,l),
(140,700,l),
(70,700,l),
(70,0,l)
);
}
);
width = 210;
},
{
anchors = (
{
name = above;
pos = (105,875);
},
{
name = lowerRight;
pos = (140,0);
}
);
hints = (
{
origin = (0,3);
target = (0,0);
type = Stem;
}
);
layerId = "671D7F47-0040-4C88-995A-F1154CC787CA";
shapes = (
{
closed = 1;
nodes = (
(140,0,l),
(140,700,l),
(70,700,l),
(70,0,l)
);
}
);
width = 210;
},
{
anchors = (
{
name = above;
pos = (238,875);
},
{
name = lowerRight;
pos = (87,0);
}
);
layerId = "69FAE2FB-B0EC-4DE1-A39D-F4FC44956106";
shapes = (
{
closed = 1;
nodes = (
(87,0,l),
(236,700,l),
(166,700,l),
(17,0,l)
);
}
);
width = 210;
}
);
metricLeft = H;
metricRight = H;
unicode = (73,105);
},
{
glyphname = IJ;
lastChange = "2019-06-02 18:33:42 +0000";
layers = (
{
hints = (
{
origin = (1,3);
target = (1,0);
type = Stem;
},
{
horizontal = 1;
origin = (0,11);
target = (0,6);
type = Stem;
},
{
origin = (0,10);
target = (0,11);
type = Stem;
},
{
origin = (0,0);
target = (0,1);
type = Stem;
}
);
layerId = "E82D559A-267E-4BF3-BBA1-0778DA3FF57C";
shapes = (
{
closed = 1;
nodes = (
(525,0,l),
(665,70,l),
(665,700,l),
(525,700,l),
(525,95,l),
(570,140,l),
(165,140,l),
(210,95,l),
(210,210,l),
(70,210,l),
(70,70,l),
(210,0,l)
);
},
{
closed = 1;
nodes = (
(210,350,l),
(210,700,l),
(70,700,l),
(70,350,l)
);
}
);
width = 735;
},
{
layerId = "B8F43E33-4D80-4AEE-B4E2-DC92E4FCAAE5";
shapes = (
{
closed = 1;
nodes = (
(788,0,l),
(928,70,l),
(928,700,l),
(788,700,l),
(788,95,l),
(833,140,l),
(165,140,l),
(210,95,l),
(210,210,l),
(70,210,l),
(70,70,l),
(210,0,l)
);
},
{
closed = 1;
nodes = (
(210,350,l),
(210,700,l),
(70,700,l),
(70,350,l)
);
}
);
width = 998;
},
{
layerId = "198E78DA-6138-42C0-8847-C36925CEE918";
shapes = (
{
closed = 1;
nodes = (
(473,0,l),
(627,70,l),
(761,700,l),
(621,700,l),
(493,95,l),
(548,140,l),
(143,140,l),
(178,95,l),
(201,210,l),
(62,210,l),
(32,70,l),
(158,0,l)
);
},
{
closed = 1;
nodes = (
(231,350,l),
(306,700,l),
(166,700,l),
(91,350,l)
);
}
);
width = 735;
},
{
layerId = "E0F5E986-8A77-409E-9DB3-A90D066F072F";
shapes = (
{
closed = 1;
nodes = (
(525,0,l),
(665,70,l),
(665,700,l),
(595,700,l),
(595,113,l),
(508,70,l),
(227,70,l),
(140,113,l),
(140,210,l),
(70,210,l),
(70,70,l),
(210,0,l)
);
},
{
closed = 1;
nodes = (
(140,350,l),
(140,701,l),
(70,701,l),
(70,350,l)
);
}
);
width = 735;
},
{
hints = (
{
horizontal = 1;
origin = (0,11);
target = (0,6);
type = Stem;
},
{
origin = (0,10);
target = (0,11);
type = Stem;
},
{
origin = (0,0);
target = (0,1);
type = Stem;
}
);
layerId = "671D7F47-0040-4C88-995A-F1154CC787CA";
shapes = (
{
closed = 1;
nodes = (
(788,0,l),
(928,70,l),
(928,700,l),
(858,700,l),
(858,113,l),
(771,70,l),
(227,70,l),
(140,113,l),
(140,210,l),
(70,210,l),
(70,70,l),
(210,0,l)
);
},
{
closed = 1;
nodes = (
(140,350,l),
(140,701,l),
(70,701,l),
(70,350,l)
);
}
);
width = 998.33333;
},
{
hints = (
{
origin = (1,3);
target = (1,0);
type = Stem;
},
{
horizontal = 1;
place = (0, 70);
place = (0, 70);
type = Stem;
},
{
origin = (1,3);
target = (1,0);
type = Stem;
},
{
place = (473, 154);
place = (473, 154);
type = Stem;
},
{
horizontal = 1;
origin = (0,6);
target = (0,5);
type = Stem;
},
{
origin = (0,5);
target = (0,6);
type = Stem;
},
{
origin = (0,7);
target = (0,8);
type = Stem;
}
);
layerId = "69FAE2FB-B0EC-4DE1-A39D-F4FC44956106";
shapes = (
{
closed = 1;
nodes = (
(473,0,l),
(627,70,l),
(761,700,l),
(690,700,l),
(566,119,l),
(458,70,l),
(176,70,l),
(111,106,l),
(133,210,l),
(62,210,l),
(32,70,l),
(158,0,l)
);
},
{
closed = 1;
nodes = (
(161,350,l),
(236,701,l),
(166,701,l),
(91,350,l)
);
}
);
width = 735;
}
);
metricLeft = O;
metricRight = O;
unicode = (306,307);
},
{
glyphname = J;
kernLeft = J;
kernRight = J;
lastChange = "2019-06-02 13:59:26 +0000";
layers = (
{
anchors = (
{
name = above;
pos = (595,875);
},
{
name = lowerRight;
pos = (470,0);
}
);
hints = (
{
horizontal = 1;
origin = (0,11);
target = (0,6);
type = Stem;
},
{
origin = (0,10);
target = (0,11);
type = Stem;
},
{
origin = (0,0);
target = (0,1);
type = Stem;
}
);
layerId = "E82D559A-267E-4BF3-BBA1-0778DA3FF57C";
shapes = (
{
closed = 1;
nodes = (
(525,0,l),
(665,70,l),
(665,700,l),
(525,700,l),
(525,95,l),
(570,140,l),
(165,140,l),
(210,95,l),
(210,280,l),
(70,280,l),
(70,70,l),
(210,0,l)
);
}
);
width = 735;
},
{
anchors = (
{
name = above;
pos = (860,875);
},
{
name = lowerRight;
pos = (695,0);
}
);
layerId = "B8F43E33-4D80-4AEE-B4E2-DC92E4FCAAE5";
shapes = (
{
closed = 1;
nodes = (
(788,0,l),
(928,70,l),
(928,700,l),
(788,700,l),
(788,95,l),
(833,140,l),
(165,140,l),
(210,95,l),
(210,280,l),
(70,280,l),
(70,70,l),
(210,0,l)
);
}
);
width = 997.5;
},
{
anchors = (
{
name = above;
pos = (727,875);
},
{
name = lowerRight;
pos = (417,0);
}
);
layerId = "198E78DA-6138-42C0-8847-C36925CEE918";
shapes = (
{
closed = 1;
nodes = (
(473,0,l),
(627,70,l),
(761,700,l),
(621,700,l),
(493,95,l),
(548,140,l),
(143,140,l),
(178,95,l),
(216,280,l),
(77,280,l),
(32,70,l),
(158,0,l)
);
}
);
width = 735;
},
{
anchors = (
{
name = above;
pos = (630,875);
},
{
name = lowerRight;
pos = (470,0);
}
);
layerId = "E0F5E986-8A77-409E-9DB3-A90D066F072F";
shapes = (
{
closed = 1;
nodes = (
(525,0,l),
(665,70,l),
(665,700,l),
(595,700,l),
(595,113,l),
(508,70,l),
(227,70,l),
(140,113,l),
(140,280,l),
(70,280,l),
(70,70,l),
(210,0,l)
);
}
);
width = 735;
},
{
anchors = (
{
name = above;
pos = (897,875);
},
{
name = lowerRight;
pos = (695,0);
}
);
hints = (
{
horizontal = 1;
origin = (0,11);
target = (0,6);
type = Stem;
},
{
origin = (0,10);
target = (0,11);
type = Stem;
},
{
origin = (0,0);
target = (0,1);
type = Stem;
}
);
layerId = "671D7F47-0040-4C88-995A-F1154CC787CA";
shapes = (
{
closed = 1;
nodes = (
(788,0,l),
(928,70,l),
(928,700,l),
(858,700,l),
(858,113,l),
(771,70,l),
(227,70,l),
(140,113,l),
(140,280,l),
(70,280,l),
(70,70,l),
(210,0,l)
);
}
);
width = 997.5;
},
{
anchors = (
{
name = above;
pos = (762,875);
},
{
name = lowerRight;
pos = (417,0);
}
);
hints = (
{
horizontal = 1;
origin = (0,6);
target = (0,5);
type = Stem;
},
{
origin = (0,5);
target = (0,6);
type = Stem;
},
{
origin = (0,7);
target = (0,8);
type = Stem;
}
);
layerId = "69FAE2FB-B0EC-4DE1-A39D-F4FC44956106";
shapes = (
{
closed = 1;
nodes = (
(473,0,l),
(627,70,l),
(761,700,l),
(690,700,l),
(566,119,l),
(458,70,l),
(176,70,l),
(111,106,l),
(148,280,l),
(77,280,l),
(32,70,l),
(158,0,l)
);
}
);
width = 735;
}
);
metricLeft = O;
metricRight = O;
unicode = (74,106);
},
{
glyphname = K;
kernLeft = I;
kernRight = K;
lastChange = "2023-04-01 19:07:56 +0000";
layers = (
{
anchors = (
{
name = after;
pos = (800,700);
},
{
name = below;
pos = (368,0);
}
);
hints = (
{
horizontal = 1;
origin = (1,3);
target = up;
type = BottomGhost;
},
{
horizontal = 1;
origin = (1,2);
target = down;
type = TopGhost;
},
{
origin = (1,3);
target = (1,0);
type = Stem;
}
);
layerId = "E82D559A-267E-4BF3-BBA1-0778DA3FF57C";
shapes = (
{
closed = 1;
nodes = (
(690,700,l),
(504,700,l),
(87,211,l),
(193,120,l)
);
},
{
closed = 1;
nodes = (
(210,0,l),
(210,700,l),
(70,700,l),
(70,0,l)
);
},
{
closed = 1;
nodes = (
(690,0,l),
(403,447,l),
(294,383,l),
(523,0,l)
);
}
);
width = 760;
},
{
anchors = (
{
name = after;
pos = (1213,700);
},
{
name = below;
pos = (550,0);
}
);
hints = (
{
horizontal = 1;
origin = (1,3);
target = up;
type = BottomGhost;
},
{
horizontal = 1;
origin = (1,2);
target = down;
type = TopGhost;
},
{
origin = (1,3);
target = (1,0);
type = Stem;
}
);
layerId = "B8F43E33-4D80-4AEE-B4E2-DC92E4FCAAE5";
shapes = (
{
closed = 1;
nodes = (
(1113,700,l),
(847,700,l),
(105,259,l),
(176,136,l)
);
},
{
closed = 1;
nodes = (
(210,0,l),
(210,700,l),
(70,700,l),
(70,0,l)
);
},
{
closed = 1;
nodes = (
(1113,0,l),
(510,458,l),
(425,347,l),
(882,0,l)
);
}
);
width = 1183;
},
{
anchors = (
{
name = after;
pos = (892,700);
},
{
name = below;
pos = (315,0);
}
);
hints = (
{
horizontal = 1;
origin = (1,3);
target = up;
type = BottomGhost;
},
{
horizontal = 1;
origin = (1,2);
target = down;
type = TopGhost;
}
);
layerId = "198E78DA-6138-42C0-8847-C36925CEE918";
shapes = (
{
closed = 1;
nodes = (
(787,700,l),
(599,700,l),
(83,215,l),
(172,124,l)
);
},
{
closed = 1;
nodes = (
(157,0,l),
(306,700,l),
(166,700,l),
(17,0,l)
);
},
{
closed = 1;
nodes = (
(636,0,l),
(443,447,l),
(323,383,l),
(471,0,l)
);
}
);
width = 761;
},
{
anchors = (
{
name = after;
pos = (785,700);
},
{
name = below;
pos = (368,0);
}
);
hints = (
{
horizontal = 1;
origin = (1,3);
target = up;
type = BottomGhost;
},
{
horizontal = 1;
origin = (1,2);
target = down;
type = TopGhost;
},
{
origin = (1,3);
target = (1,0);
type = Stem;
}
);
layerId = "E0F5E986-8A77-409E-9DB3-A90D066F072F";
shapes = (
{
closed = 1;
nodes = (
(685,700,l),
(591,700,l),
(80,190,l),
(124,141,l)
);
},
{
closed = 1;
nodes = (
(140,0,l),
(140,700,l),
(70,700,l),
(70,0,l)
);
},
{
closed = 1;
nodes = (
(685,0,l),
(398,447,l),
(339,409,l),
(602,0,l)
);
}
);
width = 755;
},
{
anchors = (
{
name = after;
pos = (1256,700);
},
{
name = below;
pos = (638,0);
}
);
hints = (
{
horizontal = 1;
origin = (1,3);
target = up;
type = BottomGhost;
},
{
horizontal = 1;
origin = (1,2);
target = down;
type = TopGhost;
},
{
origin = (1,3);
target = (1,0);
type = Stem;
}
);
layerId = "671D7F47-0040-4C88-995A-F1154CC787CA";
shapes = (
{
closed = 1;
nodes = (
(1133,700,l),
(989,700,l),
(101,227,l),
(96,148,l)
);
},
{
closed = 1;
nodes = (
(140,0,l),
(140,700,l),
(70,700,l),
(70,0,l)
);
},
{
closed = 1;
nodes = (
(1133,0,l),
(547,429,l),
(478,392,l),
(1014,0,l)
);
}
);
width = 1203;
},
{
anchors = (
{
name = after;
pos = (882,700);
},
{
name = below;
pos = (336,0);
}
);
hints = (
{
horizontal = 1;
origin = (1,3);
target = up;
type = BottomGhost;
},
{
horizontal = 1;
origin = (1,2);
target = down;
type = TopGhost;
}
);
layerId = "69FAE2FB-B0EC-4DE1-A39D-F4FC44956106";
shapes = (
{
closed = 1;
nodes = (
(791,700,l),
(686,700,l),
(62,178,l),
(107,128,l)
);
},
{
closed = 1;
nodes = (
(87,0,l),
(236,700,l),
(166,700,l),
(17,0,l)
);
},
{
closed = 1;
nodes = (
(636,0,l),
(443,447,l),
(372,419,l),
(553,0,l)
);
}
);
width = 765;
}
);
metricLeft = H;
unicode = (75,107);
},
{
glyphname = L;
kernLeft = L;
kernRight = L;
lastChange = "2019-06-07 13:29:22 +0000";
layers = (
{
anchors = (
{
name = above;
pos = (138,875);
},
{
name = below;
pos = (360,0);
},
{
name = lowerRight;
pos = (550,0);
}
);
hints = (
{
horizontal = 1;
origin = (0,3);
target = (1,2);
type = Stem;
},
{
origin = (0,3);
target = (0,0);
type = Stem;
}
);
layerId = "E82D559A-267E-4BF3-BBA1-0778DA3FF57C";
shapes = (
{
closed = 1;
nodes = (
(210,0,l),
(210,700,l),
(70,700,l),
(70,0,l)
);
},
{
closed = 1;
nodes = (
(620,0,l),
(620,140,l),
(140,140,l),
(140,0,l)
);
}
);
width = 655;
},
{
anchors = (
{
name = above;
pos = (138,875);
},
{
name = below;
pos = (495,0);
},
{
name = lowerRight;
pos = (837.5,0);
}
);
layerId = "B8F43E33-4D80-4AEE-B4E2-DC92E4FCAAE5";
shapes = (
{
closed = 1;
nodes = (
(210,0,l),
(210,700,l),
(70,700,l),
(70,0,l)
);
},
{
closed = 1;
nodes = (
(907.5,0,l),
(907.5,140,l),
(140,140,l),
(140,0,l)
);
}
);
width = 942.5;
},
{
anchors = (
{
name = above;
pos = (271,875);
},
{
name = below;
pos = (327,0);
},
{
name = lowerRight;
pos = (497,0);
}
);
layerId = "198E78DA-6138-42C0-8847-C36925CEE918";
shapes = (
{
closed = 1;
nodes = (
(157,0,l),
(306,700,l),
(166,700,l),
(17,0,l)
);
},
{
closed = 1;
nodes = (
(567,0,l),
(597,140,l),
(117,140,l),
(87,0,l)
);
}
);
width = 655;
},
{
anchors = (
{
name = above;
pos = (104,875);
},
{
name = below;
pos = (360,0);
},
{
name = lowerRight;
pos = (550,0);
}
);
layerId = "E0F5E986-8A77-409E-9DB3-A90D066F072F";
shapes = (
{
closed = 1;
nodes = (
(140,0,l),
(140,700,l),
(70,700,l),
(70,0,l)
);
},
{
closed = 1;
nodes = (
(620,0,l),
(620,70,l),
(105,70,l),
(105,0,l)
);
}
);
width = 655;
},
{
anchors = (
{
name = above;
pos = (104,875);
},
{
name = below;
pos = (505,0);
},
{
name = lowerRight;
pos = (838,0);
}
);
hints = (
{
horizontal = 1;
origin = (0,3);
target = (1,2);
type = Stem;
},
{
origin = (0,3);
target = (0,0);
type = Stem;
}
);
layerId = "671D7F47-0040-4C88-995A-F1154CC787CA";
shapes = (
{
closed = 1;
nodes = (
(140,0,l),
(140,700,l),
(70,700,l),
(70,0,l)
);
},
{
closed = 1;
nodes = (
(907,0,l),
(907,70,l),
(105,70,l),
(105,0,l)
);
}
);
width = 942.5;
},
{
anchors = (
{
name = above;
pos = (237,875);
},
{
name = below;
pos = (327,0);
},
{
name = lowerRight;
pos = (497,0);
}
);
hints = (
{
horizontal = 1;
origin = (0,3);
target = (1,2);
type = Stem;
},
{
origin = (0,3);
target = (0,0);
type = Stem;
}
);
layerId = "69FAE2FB-B0EC-4DE1-A39D-F4FC44956106";
shapes = (
{
closed = 1;
nodes = (
(87,0,l),
(236,700,l),
(166,700,l),
(17,0,l)
);
},
{
closed = 1;
nodes = (
(566,0,l),
(582,70,l),
(67,70,l),
(51,0,l)
);
}
);
width = 655;
}
);
metricLeft = H;
unicode = (76,108);
},
{
glyphname = Lslash;
kernLeft = L;
kernRight = L;
lastChange = "2019-06-02 14:51:24 +0000";
layers = (
{
layerId = "E82D559A-267E-4BF3-BBA1-0778DA3FF57C";
shapes = (
{
closed = 1;
nodes = (
(350,341,l),
(350,481,l),
(70,341,l),
(70,201,l)
);
},
{
pos = (70,0);
ref = L;
}
);
width = 725;
},
{
layerId = "B8F43E33-4D80-4AEE-B4E2-DC92E4FCAAE5";
shapes = (
{
closed = 1;
nodes = (
(350,341,l),
(350,481,l),
(70,341,l),
(70,201,l)
);
},
{
alignment = -1;
pos = (70,0);
ref = L;
}
);
width = 1013;
},
{
layerId = "198E78DA-6138-42C0-8847-C36925CEE918";
shapes = (
{
closed = 1;
nodes = (
(370,334,l),
(400,486,l),
(90,346,l),
(60,194,l)
);
},
{
pos = (70,0);
ref = L;
}
);
width = 725;
},
{
layerId = "E0F5E986-8A77-409E-9DB3-A90D066F072F";
shapes = (
{
closed = 1;
nodes = (
(277,395,l),
(277,483,l),
(70,331,l),
(70,244,l)
);
},
{
pos = (70,0);
ref = L;
}
);
width = 725;
},
{
layerId = "671D7F47-0040-4C88-995A-F1154CC787CA";
shapes = (
{
closed = 1;
nodes = (
(277,395,l),
(277,483,l),
(70,331,l),
(70,244,l)
);
},
{
alignment = -1;
pos = (70,0);
ref = L;
}
);
width = 1013.33333;
},
{
layerId = "69FAE2FB-B0EC-4DE1-A39D-F4FC44956106";
shapes = (
{
closed = 1;
nodes = (
(340,395,l),
(360,488,l),
(89,336,l),
(69,244,l)
);
},
{
alignment = -1;
pos = (89,0);
ref = L;
}
);
width = 744;
}
);
metricLeft = L;
metricRight = L;
unicode = (321,322);
},
{
glyphname = M;
lastChange = "2019-06-02 16:39:06 +0000";
layers = (
{
hints = (
{
origin = (0,15);
target = (0,0);
type = Stem;
},
{
origin = (0,7);
target = (0,8);
type = Stem;
}
);
layerId = "E82D559A-267E-4BF3-BBA1-0778DA3FF57C";
shapes = (
{
closed = 1;
nodes = (
(210,0,l),
(210,446,l),
(189,443,l),
(364,0,l),
(481,0,l),
(661,443,l),
(640,446,l),
(640,0,l),
(780,0,l),
(780,700,l),
(616,700,l),
(409,172,l),
(441,172,l),
(234,700,l),
(70,700,l),
(70,0,l)
);
}
);
width = 850;
},
{
layerId = "B8F43E33-4D80-4AEE-B4E2-DC92E4FCAAE5";
shapes = (
{
closed = 1;
nodes = (
(210,0,l),
(210,538,l),
(184,530,l),
(554,0,l),
(664,0,l),
(1025,529,l),
(1000,537,l),
(1000,0,l),
(1140,0,l),
(1140,700,l),
(984,700,l),
(580,119,l),
(632,119,l),
(227,700,l),
(70,700,l),
(70,0,l)
);
}
);
width = 1210;
},
{
layerId = "198E78DA-6138-42C0-8847-C36925CEE918";
shapes = (
{
closed = 1;
nodes = (
(157,0,l),
(252,446,l),
(231,443,l),
(312,0,l),
(429,0,l),
(703,443,l),
(682,446,l),
(587,0,l),
(727,0,l),
(876,700,l),
(702,700,l),
(383,172,l),
(415,172,l),
(320,700,l),
(166,700,l),
(17,0,l)
);
}
);
width = 850;
},
{
layerId = "E0F5E986-8A77-409E-9DB3-A90D066F072F";
shapes = (
{
closed = 1;
nodes = (
(140,0,l),
(140,604,l),
(122,600,l),
(390,0,l),
(459,0,l),
(728,602,l),
(710,606,l),
(710,0,l),
(780,0,l),
(780,700,l),
(695,700,l),
(407,52,l),
(443,52,l),
(154,700,l),
(70,700,l),
(70,0,l)
);
}
);
width = 850;
},
{
hints = (
{
origin = (0,8);
target = (0,6);
type = Stem;
},
{
origin = (0,3);
target = (0,1);
type = Stem;
}
);
layerId = "671D7F47-0040-4C88-995A-F1154CC787CA";
shapes = (
{
closed = 1;
nodes = (
(140,0,l),
(140,630,l),
(110,630,l),
(548,0,l),
(604,0,l),
(1040,630,l),
(1010,630,l),
(1010,0,l),
(1080,0,l),
(1080,700,l),
(1003,700,l),
(550,46,l),
(602,46,l),
(147,700,l),
(70,700,l),
(70,0,l)
);
}
);
width = 1150;
},
{
hints = (
{
place = (656, 70);
place = (656, 70);
type = Stem;
},
{
place = (657, -434);
place = (657, -434);
type = Stem;
}
);
layerId = "69FAE2FB-B0EC-4DE1-A39D-F4FC44956106";
shapes = (
{
closed = 1;
nodes = (
(88,0,l),
(223,630,l),
(187,630,l),
(345,0,l),
(407,0,l),
(817,630,l),
(790,630,l),
(656,0,l),
(727,0,l),
(876,700,l),
(781,700,l),
(365,54,l),
(400,54,l),
(244,700,l),
(166,700,l),
(17,0,l)
);
}
);
width = 850;
}
);
metricLeft = H;
unicode = (77,109);
},
{
glyphname = N;
kernLeft = I;
kernRight = I;
lastChange = "2023-04-01 19:07:27 +0000";
layers = (
{
anchors = (
{
name = above;
pos = (400,875);
},
{
name = below;
pos = (400,0);
},
{
name = lowerRight;
pos = (620,0);
}
);
hints = (
{
origin = (0,11);
target = (0,0);
type = Stem;
},
{
origin = (0,7);
target = (0,4);
type = Stem;
}
);
layerId = "E82D559A-267E-4BF3-BBA1-0778DA3FF57C";
shapes = (
{
closed = 1;
nodes = (
(210,0,l),
(210,552,l),
(193,516,l),
(515,0,l),
(690,0,l),
(690,700,l),
(550,700,l),
(550,148,l),
(567,184,l),
(245,700,l),
(70,700,l),
(70,0,l)
);
}
);
width = 760;
},
{
anchors = (
{
name = above;
pos = (550,875);
},
{
name = below;
pos = (550,0);
},
{
name = lowerRight;
pos = (942,0);
}
);
layerId = "B8F43E33-4D80-4AEE-B4E2-DC92E4FCAAE5";
shapes = (
{
closed = 1;
nodes = (
(210,0,l),
(210,603,l),
(176,588,l),
(843,0,l),
(1030,0,l),
(1030,700,l),
(890,700,l),
(890,98,l),
(924,113,l),
(258,700,l),
(70,700,l),
(70,0,l)
);
}
);
width = 1100;
},
{
anchors = (
{
name = above;
pos = (533,875);
},
{
name = below;
pos = (347,0);
},
{
name = lowerRight;
pos = (567,0);
}
);
layerId = "198E78DA-6138-42C0-8847-C36925CEE918";
shapes = (
{
closed = 1;
nodes = (
(157,0,l),
(270,539,l),
(253,537,l),
(463,0,l),
(637,0,l),
(786,700,l),
(646,700,l),
(532,163,l),
(551,165,l),
(340,700,l),
(166,700,l),
(17,0,l)
);
}
);
width = 760;
},
{
anchors = (
{
name = above;
pos = (380,875);
},
{
name = below;
pos = (380,0);
},
{
name = lowerRight;
pos = (650,0);
}
);
layerId = "E0F5E986-8A77-409E-9DB3-A90D066F072F";
shapes = (
{
closed = 1;
nodes = (
(140,0,l),
(140,656,l),
(111,644,l),
(606,0,l),
(690,0,l),
(690,700,l),
(620,700,l),
(620,44,l),
(649,56,l),
(154,700,l),
(70,700,l),
(70,0,l)
);
}
);
width = 760;
},
{
anchors = (
{
name = above;
pos = (538,875);
},
{
name = below;
pos = (539,0);
},
{
name = lowerRight;
pos = (973,0);
}
);
hints = (
{
origin = (0,11);
target = (0,0);
type = Stem;
},
{
origin = (0,7);
target = (0,4);
type = Stem;
}
);
layerId = "671D7F47-0040-4C88-995A-F1154CC787CA";
shapes = (
{
closed = 1;
nodes = (
(140,0,l),
(140,688,l),
(103,667,l),
(911,0,l),
(1007,0,l),
(1007,700,l),
(937,700,l),
(937,14,l),
(974,34,l),
(167,700,l),
(70,700,l),
(70,0,l)
);
}
);
width = 1076.66667;
},
{
anchors = (
{
name = above;
pos = (521,875);
},
{
name = below;
pos = (335,0);
},
{
name = lowerRight;
pos = (615,0);
}
);
layerId = "69FAE2FB-B0EC-4DE1-A39D-F4FC44956106";
shapes = (
{
closed = 1;
nodes = (
(89,0,l),
(228,653,l),
(197,648,l),
(570,0,l),
(651,0,l),
(800,700,l),
(728,700,l),
(589,47,l),
(621,52,l),
(246,700,l),
(166,700,l),
(17,0,l)
);
}
);
width = 774;
}
);
metricLeft = H;
metricRight = H;
unicode = (78,110);
},
{
glyphname = Eng;
lastChange = "2019-06-02 22:46:42 +0000";
layers = (
{
hints = (
{
horizontal = 1;
origin = (0,20);
target = (0,16);
type = Stem;
},
{
origin = (0,8);
target = (0,9);
type = Stem;
},
{
origin = (0,19);
target = (0,20);
type = Stem;
},
{
origin = (0,0);
target = (0,1);
type = Stem;
}
);
layerId = "E82D559A-267E-4BF3-BBA1-0778DA3FF57C";
shapes = (
{
closed = 1;
nodes = (
(550,-200,l),
(690,-130,l),
(690,700,l),
(550,700,l),
(550,166,l),
(574,173,l),
(245,700,l),
(70,700,l),
(70,0,l),
(210,0,l),
(210,534,l),
(186,527,l),
(550,-56,l),
(550,-70,l),
(550,-70,l),
(430,-70,l),
(430,-70,l),
(430,0,l),
(290,0,l),
(290,-130,l),
(430,-200,l)
);
}
);
width = 760;
},
{
layerId = "B8F43E33-4D80-4AEE-B4E2-DC92E4FCAAE5";
shapes = (
{
closed = 1;
nodes = (
(890,-200,l),
(1030,-130,l),
(1030,700,l),
(890,700,l),
(890,98,l),
(924,113,l),
(258,700,l),
(70,700,l),
(70,0,l),
(210,0,l),
(210,603,l),
(176,588,l),
(890,-38,l),
(890,-70,l),
(890,-70,l),
(595,-70,l),
(595,-70,l),
(595,0,l),
(455,0,l),
(455,-130,l),
(595,-200,l)
);
}
);
width = 1100;
},
{
layerId = "198E78DA-6138-42C0-8847-C36925CEE918";
shapes = (
{
closed = 1;
nodes = (
(455,-200,l),
(610,-130,l),
(786,700,l),
(646,700,l),
(533,166,l),
(557,173,l),
(340,700,l),
(166,700,l),
(17,0,l),
(157,0,l),
(270,534,l),
(246,527,l),
(486,-56,l),
(482,-70,l),
(482,-70,l),
(362,-70,l),
(362,-70,l),
(377,0,l),
(237,0,l),
(210,-130,l),
(335,-200,l)
);
}
);
width = 761;
},
{
layerId = "E0F5E986-8A77-409E-9DB3-A90D066F072F";
shapes = (
{
closed = 1;
nodes = (
(570,-200,l),
(690,-130,l),
(690,700,l),
(620,700,l),
(620,49,l),
(647,58,l),
(154,700,l),
(70,700,l),
(70,0,l),
(140,0,l),
(140,651,l),
(113,642,l),
(620,-18,l),
(620,-87,l),
(553,-130,l),
(447,-130,l),
(380,-87,l),
(380,0,l),
(310,0,l),
(310,-130,l),
(430,-200,l)
);
}
);
width = 760;
},
{
hints = (
{
horizontal = 1;
origin = (0,20);
target = (0,19);
type = Stem;
},
{
horizontal = 1;
origin = (0,8);
target = up;
type = BottomGhost;
},
{
horizontal = 1;
place = (636, 64);
place = (636, 64);
type = Stem;
},
{
origin = (0,8);
target = (0,9);
type = Stem;
},
{
origin = (0,19);
target = (0,16);
type = Stem;
},
{
origin = (0,13);
target = (0,1);
type = Stem;
}
);
layerId = "671D7F47-0040-4C88-995A-F1154CC787CA";
shapes = (
{
closed = 1;
nodes = (
(887,-200,l),
(1007,-130,l),
(1007,700,l),
(937,700,l),
(937,14,l),
(974,34,l),
(167,700,l),
(70,700,l),
(70,0,l),
(140,0,l),
(140,688,l),
(103,667,l),
(937,-21,l),
(937,-87,l),
(870,-130,l),
(606,-130,l),
(539,-87,l),
(539,0,l),
(469,0,l),
(469,-130,l),
(589,-200,l)
);
}
);
width = 1076.66667;
},
{
hints = (
{
horizontal = 1;
place = (-200, 113);
place = (-200, 113);
type = Stem;
},
{
place = (17, 70);
place = (17, 70);
type = Stem;
},
{
place = (180, 105);
place = (180, 105);
type = Stem;
},
{
place = (475, 135);
place = (475, 135);
type = Stem;
}
);
layerId = "69FAE2FB-B0EC-4DE1-A39D-F4FC44956106";
shapes = (
{
closed = 1;
nodes = (
(469,-201,l),
(623,-131,l),
(800,700,l),
(728,700,l),
(589,47,l),
(621,52,l),
(246,700,l),
(166,700,l),
(17,0,l),
(89,0,l),
(228,654,l),
(197,649,l),
(577,-12,l),
(562,-82,l),
(454,-131,l),
(380,-131,l),
(315,-95,l),
(335,0,l),
(264,0,l),
(236,-131,l),
(362,-201,l)
);
}
);
width = 774;
}
);
metricLeft = N;
metricRight = J;
unicode = (330,331);
},
{
glyphname = O;
kernLeft = O;
kernRight = O;
lastChange = "2023-04-01 19:07:15 +0000";
layers = (
{
anchors = (
{
name = above;
pos = (366,875);
},
{
name = lowerRight;
pos = (471,0);
}
);
hints = (
{
horizontal = 1;
origin = (0,7);
target = (1,7);
type = Stem;
},
{
horizontal = 1;
origin = (1,2);
target = (0,4);
type = Stem;
},
{
origin = (0,6);
target = (0,7);
type = Stem;
},
{
origin = (0,0);
target = (0,1);
type = Stem;
}
);
layerId = "E82D559A-267E-4BF3-BBA1-0778DA3FF57C";
shapes = (
{
closed = 1;
nodes = (
(525,0,l),
(665,70,l),
(665,630,l),
(525,700,l),
(210,700,l),
(70,630,l),
(70,70,l),
(210,0,l)
);
},
{
closed = 1;
nodes = (
(210,140,l),
(210,560,l),
(210,560,l),
(525,560,l),
(525,560,l),
(525,140,l),
(525,140,l),
(210,140,l)
);
}
);
width = 735;
},
{
anchors = (
{
name = above;
pos = (588.5,875);
},
{
name = lowerRight;
pos = (868.5,0);
}
);
hints = (
{
horizontal = 1;
origin = (0,7);
target = (1,7);
type = Stem;
},
{
horizontal = 1;
origin = (1,2);
target = (0,4);
type = Stem;
},
{
origin = (0,6);
target = (0,7);
type = Stem;
},
{
origin = (0,0);
target = (0,1);
type = Stem;
}
);
layerId = "B8F43E33-4D80-4AEE-B4E2-DC92E4FCAAE5";
shapes = (
{
closed = 1;
nodes = (
(963,0,l),
(1103,70,l),
(1103,630,l),
(963,700,l),
(210,700,l),
(70,630,l),
(70,70,l),
(210,0,l)
);
},
{
closed = 1;
nodes = (
(210,140,l),
(210,560,l),
(210,560,l),
(963,560,l),
(963,560,l),
(963,140,l),
(963,140,l),
(210,140,l)
);
}
);
width = 1173;
},
{
anchors = (
{
name = above;
pos = (500,875);
},
{
name = lowerRight;
pos = (419,0);
}
);
hints = (
{
horizontal = 1;
origin = (0,7);
target = (1,7);
type = Stem;
},
{
horizontal = 1;
origin = (1,3);
target = (0,4);
type = Stem;
}
);
layerId = "198E78DA-6138-42C0-8847-C36925CEE918";
shapes = (
{
closed = 1;
nodes = (
(474,0,l),
(628,70,l),
(746,630,l),
(621,700,l),
(306,700,l),
(151,630,l),
(33,70,l),
(159,0,l)
);
},
{
closed = 1;
nodes = (
(188,140,l),
(277,560,l),
(277,560,l),
(592,560,l),
(592,560,l),
(503,140,l),
(503,140,l),
(188,140,l)
);
}
);
width = 736;
},
{
anchors = (
{
name = above;
pos = (366,875);
},
{
name = lowerRight;
pos = (471,0);
}
);
hints = (
{
horizontal = 1;
origin = (1,2);
target = (0,4);
type = Stem;
},
{
horizontal = 1;
origin = (0,7);
target = (1,7);
type = Stem;
},
{
origin = (0,6);
target = (1,0);
type = Stem;
},
{
origin = (1,5);
target = (0,1);
type = Stem;
}
);
layerId = "E0F5E986-8A77-409E-9DB3-A90D066F072F";
shapes = (
{
closed = 1;
nodes = (
(525,0,l),
(665,70,l),
(665,630,l),
(525,700,l),
(210,700,l),
(70,630,l),
(70,70,l),
(210,0,l)
);
},
{
closed = 1;
nodes = (
(140,113,l),
(140,587,l),
(227,630,l),
(508,630,l),
(595,587,l),
(595,113,l),
(508,70,l),
(227,70,l)
);
}
);
width = 735;
},
{
anchors = (
{
name = above;
pos = (589,875);
},
{
name = lowerRight;
pos = (868,0);
}
);
hints = (
{
horizontal = 1;
origin = (1,2);
target = (0,4);
type = Stem;
},
{
horizontal = 1;
origin = (0,7);
target = (1,7);
type = Stem;
},
{
origin = (0,6);
target = (1,0);
type = Stem;
},
{
origin = (1,5);
target = (0,1);
type = Stem;
}
);
layerId = "671D7F47-0040-4C88-995A-F1154CC787CA";
shapes = (
{
closed = 1;
nodes = (
(963,0,l),
(1103,70,l),
(1103,630,l),
(963,700,l),
(210,700,l),
(70,630,l),
(70,70,l),
(210,0,l)
);
},
{
closed = 1;
nodes = (
(140,113,l),
(140,587,l),
(227,630,l),
(946,630,l),
(1033,587,l),
(1033,113,l),
(946,70,l),
(227,70,l)
);
}
);
width = 1173;
},
{
anchors = (
{
name = above;
pos = (500,875);
},
{
name = lowerRight;
pos = (419,0);
}
);
hints = (
{
horizontal = 1;
origin = (0,7);
target = (0,6);
type = Stem;
},
{
horizontal = 1;
origin = (0,4);
target = (0,5);
type = Stem;
}
);
layerId = "69FAE2FB-B0EC-4DE1-A39D-F4FC44956106";
shapes = (
{
closed = 1;
nodes = (
(474,0,l),
(628,70,l),
(746,630,l),
(621,700,l),
(306,700,l),
(151,630,l),
(33,70,l),
(159,0,l)
);
},
{
closed = 1;
nodes = (
(112,106,l),
(212,581,l),
(321,630,l),
(603,630,l),
(667,594,l),
(567,119,l),
(459,70,l),
(177,70,l)
);
}
);
width = 736;
}
);
unicode = (79,111);
},
{
glyphname = Oslash;
lastChange = "2019-06-02 16:54:24 +0000";
layers = (
{
layerId = "E82D559A-267E-4BF3-BBA1-0778DA3FF57C";
shapes = (
{
closed = 1;
nodes = (
(588,758,l),
(523,787,l),
(148,-58,l),
(213,-87,l)
);
},
{
ref = O;
}
);
width = 735;
},
{
layerId = "B8F43E33-4D80-4AEE-B4E2-DC92E4FCAAE5";
shapes = (
{
closed = 1;
nodes = (
(1061,731,l),
(1014,782,l),
(113,-32,l),
(160,-83,l)
);
},
{
alignment = -1;
ref = O;
}
);
width = 1173;
},
{
layerId = "198E78DA-6138-42C0-8847-C36925CEE918";
shapes = (
{
closed = 1;
nodes = (
(700,758,l),
(639,787,l),
(85,-58,l),
(146,-87,l)
);
},
{
ref = O;
}
);
width = 736;
},
{
layerId = "E0F5E986-8A77-409E-9DB3-A90D066F072F";
shapes = (
{
closed = 1;
nodes = (
(579,762,l),
(533,782,l),
(157,-62,l),
(203,-82,l)
);
},
{
ref = O;
}
);
width = 735;
},
{
layerId = "671D7F47-0040-4C88-995A-F1154CC787CA";
shapes = (
{
closed = 1;
nodes = (
(1059,728,l),
(1026,766,l),
(114,-27,l),
(147,-65,l)
);
},
{
alignment = -1;
ref = O;
}
);
width = 1173.33333;
},
{
layerId = "69FAE2FB-B0EC-4DE1-A39D-F4FC44956106";
shapes = (
{
closed = 1;
nodes = (
(691,762,l),
(649,782,l),
(94,-62,l),
(136,-82,l)
);
},
{
alignment = -1;
ref = O;
}
);
width = 736;
}
);
metricLeft = O;
metricRight = O;
unicode = (216,248);
},
{
glyphname = OE;
lastChange = "2019-06-02 13:33:03 +0000";
layers = (
{
hints = (
{
horizontal = 1;
origin = (1,6);
target = (0,7);
type = Stem;
},
{
horizontal = 1;
origin = (3,2);
target = (3,3);
type = Stem;
},
{
horizontal = 1;
origin = (0,4);
target = (1,1);
type = Stem;
},
{
origin = (0,6);
target = (0,7);
type = Stem;
},
{
origin = (0,0);
target = (0,1);
type = Stem;
}
);
layerId = "E82D559A-267E-4BF3-BBA1-0778DA3FF57C";
shapes = (
{
closed = 1;
nodes = (
(405,0,l),
(545,70,l),
(545,630,l),
(405,700,l),
(210,700,l),
(70,630,l),
(70,70,l),
(210,0,l)
);
},
{
closed = 1;
nodes = (
(210,605,l),
(165,560,l),
(450,560,l),
(405,605,l),
(405,95,l),
(450,140,l),
(165,140,l),
(210,95,l)
);
},
{
closed = 1;
nodes = (
(845,0,l),
(845,140,l),
(475,140,l),
(475,0,l)
);
},
{
closed = 1;
nodes = (
(755,280,l),
(755,420,l),
(475,420,l),
(475,280,l)
);
},
{
closed = 1;
nodes = (
(845,560,l),
(845,700,l),
(475,700,l),
(475,560,l)
);
}
);
width = 915;
},
{
hints = (
{
horizontal = 1;
origin = (0,7);
target = (1,6);
type = Stem;
},
{
horizontal = 1;
origin = (3,3);
target = (3,2);
type = Stem;
},
{
horizontal = 1;
origin = (1,1);
target = (0,4);
type = Stem;
},
{
origin = (0,6);
target = (0,7);
type = Stem;
},
{
place = (743, 140);
place = (743, 140);
type = Stem;
}
);
layerId = "B8F43E33-4D80-4AEE-B4E2-DC92E4FCAAE5";
shapes = (
{
closed = 1;
nodes = (
(742.5,0,l),
(882.5,70,l),
(882.5,630,l),
(742.5,700,l),
(210,700,l),
(70,630,l),
(70,70,l),
(210,0,l)
);
},
{
closed = 1;
nodes = (
(210,605,l),
(165,560,l),
(787.5,560,l),
(742.5,605,l),
(742.5,95,l),
(787.5,140,l),
(165,140,l),
(210,95,l)
);
},
{
closed = 1;
nodes = (
(1482.5,0,l),
(1482.5,140,l),
(812.5,140,l),
(812.5,0,l)
);
},
{
closed = 1;
nodes = (
(1442.5,280,l),
(1442.5,420,l),
(812.5,420,l),
(812.5,280,l)
);
},
{
closed = 1;
nodes = (
(1482.5,560,l),
(1482.5,700,l),
(812.5,700,l),
(812.5,560,l)
);
}
);
width = 1552.5;
},
{
hints = (
{
horizontal = 1;
origin = (0,7);
target = (1,6);
type = Stem;
},
{
horizontal = 1;
origin = (3,3);
target = (3,2);
type = Stem;
},
{
horizontal = 1;
origin = (1,1);
target = (0,4);
type = Stem;
}
);
layerId = "198E78DA-6138-42C0-8847-C36925CEE918";
shapes = (
{
closed = 1;
nodes = (
(354,0,l),
(508,70,l),
(626,630,l),
(501,700,l),
(306,700,l),
(151,630,l),
(33,70,l),
(159,0,l)
);
},
{
closed = 1;
nodes = (
(286,605,l),
(231,560,l),
(516,560,l),
(481,605,l),
(374,95,l),
(429,140,l),
(144,140,l),
(179,95,l)
);
},
{
closed = 1;
nodes = (
(793,0,l),
(823,140,l),
(453,140,l),
(423,0,l)
);
},
{
closed = 1;
nodes = (
(763,280,l),
(792,420,l),
(512,420,l),
(483,280,l)
);
},
{
closed = 1;
nodes = (
(912,560,l),
(942,700,l),
(572,700,l),
(542,560,l)
);
}
);
width = 916;
},
{
hints = (
{
horizontal = 1;
origin = (0,7);
target = (0,6);
type = Stem;
},
{
horizontal = 1;
origin = (3,3);
target = (3,2);
type = Stem;
},
{
horizontal = 1;
origin = (0,5);
target = (0,4);
type = Stem;
},
{
origin = (0,6);
target = (1,0);
type = Stem;
},
{
origin = (2,3);
target = (0,1);
type = Stem;
}
);
layerId = "E0F5E986-8A77-409E-9DB3-A90D066F072F";
shapes = (
{
closed = 1;
nodes = (
(425,0,l),
(565,70,l),
(565,630,l),
(425,700,l),
(210,700,l),
(70,630,l),
(70,70,l),
(210,0,l)
);
},
{
closed = 1;
nodes = (
(140,113,l),
(140,587,l),
(227,630,l),
(408,630,l),
(495,587,l),
(495,113,l),
(408,70,l),
(227,70,l)
);
},
{
closed = 1;
nodes = (
(933,0,l),
(933,70,l),
(495,70,l),
(495,0,l)
);
},
{
closed = 1;
nodes = (
(854,315,l),
(854,385,l),
(565,385,l),
(565,315,l)
);
},
{
closed = 1;
nodes = (
(933,630,l),
(933,700,l),
(495,700,l),
(495,630,l)
);
}
);
width = 1003;
},
{
hints = (
{
horizontal = 1;
origin = (0,7);
target = (0,6);
type = Stem;
},
{
horizontal = 1;
origin = (3,2);
target = (3,3);
type = Stem;
},
{
horizontal = 1;
origin = (0,4);
target = (0,5);
type = Stem;
},
{
origin = (0,6);
target = (1,0);
type = Stem;
},
{
place = (832.5, 70.5);
place = (832.5, 70.5);
type = Stem;
}
);
layerId = "671D7F47-0040-4C88-995A-F1154CC787CA";
shapes = (
{
closed = 1;
nodes = (
(763,0,l),
(903,70,l),
(903,630,l),
(763,700,l),
(210,700,l),
(70,630,l),
(70,70,l),
(210,0,l)
);
},
{
closed = 1;
nodes = (
(140,113,l),
(140,587,l),
(227,630,l),
(746,630,l),
(833,587,l),
(832,113,l),
(746,70,l),
(227,70,l)
);
},
{
closed = 1;
nodes = (
(1570,0,l),
(1570,70,l),
(832,70,l),
(832,0,l)
);
},
{
closed = 1;
nodes = (
(1542,315,l),
(1542,385,l),
(902,385,l),
(902,315,l)
);
},
{
closed = 1;
nodes = (
(1570,630,l),
(1570,700,l),
(832,700,l),
(832,630,l)
);
}
);
width = 1640;
},
{
guides = (
{
angle = 78;
pos = (467,119);
}
);
hints = (
{
horizontal = 1;
origin = (0,7);
target = (0,6);
type = Stem;
},
{
horizontal = 1;
origin = (3,2);
target = (3,3);
type = Stem;
},
{
horizontal = 1;
origin = (0,4);
target = (0,5);
type = Stem;
}
);
layerId = "69FAE2FB-B0EC-4DE1-A39D-F4FC44956106";
shapes = (
{
closed = 1;
nodes = (
(374,0,l),
(528,70,l),
(646,630,l),
(521,700,l),
(306,700,l),
(151,630,l),
(33,70,l),
(159,0,l)
);
},
{
closed = 1;
nodes = (
(112,106,l),
(212,581,l),
(321,630,l),
(503,630,l),
(567,594,l),
(467,119,l),
(359,70,l),
(177,70,l)
);
},
{
closed = 1;
nodes = (
(879,0,l),
(895,70,l),
(457,70,l),
(441,0,l)
);
},
{
closed = 1;
nodes = (
(869,315,l),
(884,385,l),
(560,385,l),
(545,315,l)
);
},
{
closed = 1;
nodes = (
(1013,630,l),
(1029,700,l),
(591,700,l),
(575,630,l)
);
}
);
width = 1003;
}
);
metricLeft = O;
metricRight = E;
unicode = (338,339);
},
{
glyphname = P;
kernLeft = H;
kernRight = F;
lastChange = "2019-06-02 18:43:35 +0000";
layers = (
{
hints = (
{
horizontal = 1;
origin = (1,3);
target = up;
type = BottomGhost;
},
{
horizontal = 1;
origin = (0,10);
target = (0,11);
type = Stem;
},
{
horizontal = 1;
origin = (1,2);
target = (0,5);
type = Stem;
},
{
origin = (1,3);
target = (1,0);
type = Stem;
},
{
origin = (0,8);
target = (0,1);
type = Stem;
}
);
layerId = "E82D559A-267E-4BF3-BBA1-0778DA3FF57C";
shapes = (
{
closed = 1;
nodes = (
(514,280,l),
(654,350,l),
(654,630,l),
(514,700,l),
(140,700,l),
(140,560,l),
(504,560,l),
(504,560,l),
(504,420,l),
(504,420,l),
(140,420,l),
(140,280,l)
);
},
{
closed = 1;
nodes = (
(210,0,l),
(210,700,l),
(70,700,l),
(70,0,l)
);
}
);
width = 689;
},
{
hints = (
{
horizontal = 1;
origin = (1,3);
target = up;
type = BottomGhost;
},
{
horizontal = 1;
origin = (0,10);
target = (0,11);
type = Stem;
},
{
horizontal = 1;
origin = (1,2);
target = (0,5);
type = Stem;
},
{
origin = (1,3);
target = (1,0);
type = Stem;
},
{
place = (791.5, 150.5);
place = (791.5, 150.5);
type = Stem;
}
);
layerId = "B8F43E33-4D80-4AEE-B4E2-DC92E4FCAAE5";
shapes = (
{
closed = 1;
nodes = (
(802,280,l),
(942,350,l),
(942,630,l),
(802,700,l),
(140,700,l),
(140,560,l),
(791,560,l),
(791,560,l),
(791,420,l),
(791,420,l),
(140,420,l),
(140,280,l)
);
},
{
closed = 1;
nodes = (
(210,0,l),
(210,700,l),
(70,700,l),
(70,0,l)
);
}
);
width = 977;
},
{
hints = (
{
horizontal = 1;
origin = (1,3);
target = up;
type = BottomGhost;
},
{
horizontal = 1;
origin = (0,10);
target = (0,11);
type = Stem;
},
{
horizontal = 1;
origin = (1,2);
target = (0,5);
type = Stem;
}
);
layerId = "198E78DA-6138-42C0-8847-C36925CEE918";
shapes = (
{
closed = 1;
nodes = (
(521,280,l),
(676,350,l),
(734,630,l),
(609,700,l),
(236,700,l),
(206,560,l),
(570,560,l),
(570,560,l),
(540,420,l),
(540,420,l),
(176,420,l),
(147,280,l)
);
},
{
closed = 1;
nodes = (
(157,0,l),
(306,700,l),
(166,700,l),
(17,0,l)
);
}
);
width = 690;
},
{
hints = (
{
horizontal = 1;
origin = (1,3);
target = up;
type = BottomGhost;
},
{
horizontal = 1;
origin = (0,10);
target = (0,11);
type = Stem;
},
{
horizontal = 1;
origin = (1,2);
target = (0,5);
type = Stem;
},
{
origin = (1,3);
target = (1,0);
type = Stem;
},
{
origin = (0,8);
target = (0,1);
type = Stem;
}
);
layerId = "E0F5E986-8A77-409E-9DB3-A90D066F072F";
shapes = (
{
closed = 1;
nodes = (
(514,315,l),
(654,385,l),
(654,630,l),
(514,700,l),
(105,700,l),
(105,630,l),
(497,630,l),
(584,587,l),
(584,428,l),
(497,385,l),
(105,385,l),
(105,315,l)
);
},
{
closed = 1;
nodes = (
(140,0,l),
(140,700,l),
(70,700,l),
(70,0,l)
);
}
);
width = 689;
},
{
hints = (
{
horizontal = 1;
origin = (1,3);
target = up;
type = BottomGhost;
},
{
horizontal = 1;
origin = (0,10);
target = (0,11);
type = Stem;
},
{
horizontal = 1;
origin = (1,2);
target = (0,5);
type = Stem;
},
{
origin = (1,3);
target = (1,0);
type = Stem;
},
{
origin = (0,8);
target = (0,1);
type = Stem;
}
);
layerId = "671D7F47-0040-4C88-995A-F1154CC787CA";
shapes = (
{
closed = 1;
nodes = (
(801,315,l),
(942,385,l),
(942,630,l),
(801,700,l),
(105,700,l),
(105,630,l),
(785,630,l),
(872,587,l),
(872,428,l),
(785,385,l),
(105,385,l),
(105,315,l)
);
},
{
closed = 1;
nodes = (
(140,0,l),
(140,700,l),
(70,700,l),
(70,0,l)
);
}
);
width = 977;
},
{
hints = (
{
horizontal = 1;
origin = (1,3);
target = up;
type = BottomGhost;
},
{
horizontal = 1;
origin = (0,10);
target = (0,11);
type = Stem;
},
{
horizontal = 1;
origin = (1,2);
target = (0,5);
type = Stem;
}
);
layerId = "69FAE2FB-B0EC-4DE1-A39D-F4FC44956106";
shapes = (
{
closed = 1;
nodes = (
(524,315,l),
(679,385,l),
(737,630,l),
(612,700,l),
(201,700,l),
(187,630,l),
(584,630,l),
(656,591,l),
(619,435,l),
(509,385,l),
(132,385,l),
(118,315,l)
);
},
{
closed = 1;
nodes = (
(87,0,l),
(236,700,l),
(166,700,l),
(17,0,l)
);
}
);
width = 691;
}
);
metricLeft = H;
metricRight = F;
unicode = (80,112);
},
{
glyphname = Thorn;
kernLeft = Thorn;
kernRight = Thorn;
lastChange = "2019-06-02 17:34:11 +0000";
layers = (
{
hints = (
{
horizontal = 1;
origin = (0,11);
target = (0,10);
type = Stem;
},
{
horizontal = 1;
origin = (0,5);
target = (0,4);
type = Stem;
},
{
origin = (1,3);
target = (1,0);
type = Stem;
},
{
origin = (0,9);
target = (0,1);
type = Stem;
}
);
layerId = "E82D559A-267E-4BF3-BBA1-0778DA3FF57C";
shapes = (
{
closed = 1;
nodes = (
(515,140,l),
(655,210,l),
(655,490,l),
(515,560,l),
(141,560,l),
(141,420,l),
(505,420,l),
(505,420,l),
(505,280,l),
(505,280,l),
(141,280,l),
(141,140,l)
);
},
{
closed = 1;
nodes = (
(210,0,l),
(210,700,l),
(70,700,l),
(70,0,l)
);
}
);
width = 690;
},
{
hints = (
{
horizontal = 1;
origin = (1,3);
target = up;
type = BottomGhost;
},
{
horizontal = 1;
origin = (0,11);
target = (0,10);
type = Stem;
},
{
horizontal = 1;
origin = (0,5);
target = (0,4);
type = Stem;
},
{
horizontal = 1;
origin = (1,2);
target = down;
type = TopGhost;
},
{
origin = (1,3);
target = (1,0);
type = Stem;
},
{
origin = (0,8);
target = (0,1);
type = Stem;
}
);
layerId = "B8F43E33-4D80-4AEE-B4E2-DC92E4FCAAE5";
shapes = (
{
closed = 1;
nodes = (
(803,140,l),
(943,210,l),
(943,490,l),
(803,560,l),
(141,560,l),
(141,420,l),
(792,420,l),
(792,420,l),
(792,280,l),
(792,280,l),
(141,280,l),
(141,140,l)
);
},
{
closed = 1;
nodes = (
(210,0,l),
(210,700,l),
(70,700,l),
(70,0,l)
);
}
);
width = 978;
},
{
hints = (
{
horizontal = 1;
origin = (1,3);
target = up;
type = BottomGhost;
},
{
horizontal = 1;
origin = (0,11);
target = (0,10);
type = Stem;
},
{
horizontal = 1;
origin = (0,5);
target = (0,4);
type = Stem;
},
{
horizontal = 1;
origin = (1,2);
target = down;
type = TopGhost;
}
);
layerId = "198E78DA-6138-42C0-8847-C36925CEE918";
shapes = (
{
closed = 1;
nodes = (
(492,140,l),
(647,210,l),
(706,490,l),
(581,560,l),
(207,560,l),
(177,420,l),
(541,420,l),
(541,420,l),
(512,280,l),
(512,280,l),
(148,280,l),
(118,140,l)
);
},
{
closed = 1;
nodes = (
(157,0,l),
(306,700,l),
(166,700,l),
(17,0,l)
);
}
);
width = 691;
},
{
hints = (
{
horizontal = 1;
origin = (1,3);
target = up;
type = BottomGhost;
},
{
horizontal = 1;
origin = (0,11);
target = (0,10);
type = Stem;
},
{
horizontal = 1;
origin = (0,5);
target = (0,4);
type = Stem;
},
{
horizontal = 1;
origin = (1,2);
target = down;
type = TopGhost;
},
{
origin = (1,3);
target = (1,0);
type = Stem;
},
{
origin = (0,8);
target = (0,1);
type = Stem;
}
);
layerId = "E0F5E986-8A77-409E-9DB3-A90D066F072F";
shapes = (
{
closed = 1;
nodes = (
(515,155,l),
(655,225,l),
(655,470,l),
(515,540,l),
(106,540,l),
(106,470,l),
(498,470,l),
(585,427,l),
(585,268,l),
(498,225,l),
(106,225,l),
(106,155,l)
);
},
{
closed = 1;
nodes = (
(140,0,l),
(140,700,l),
(70,700,l),
(70,0,l)
);
}
);
width = 690;
},
{
hints = (
{
horizontal = 1;
origin = (0,10);
target = (0,11);
type = Stem;
},
{
horizontal = 1;
origin = (0,4);
target = (0,5);
type = Stem;
},
{
origin = (1,3);
target = (1,0);
type = Stem;
},
{
origin = (0,8);
target = (0,1);
type = Stem;
}
);
layerId = "671D7F47-0040-4C88-995A-F1154CC787CA";
shapes = (
{
closed = 1;
nodes = (
(802,155,l),
(943,225,l),
(943,470,l),
(802,540,l),
(106,540,l),
(106,470,l),
(786,470,l),
(873,427,l),
(873,268,l),
(786,225,l),
(106,225,l),
(106,155,l)
);
},
{
closed = 1;
nodes = (
(140,0,l),
(140,700,l),
(70,700,l),
(70,0,l)
);
}
);
width = 978;
},
{
hints = (
{
horizontal = 1;
origin = (1,3);
target = up;
type = BottomGhost;
},
{
horizontal = 1;
origin = (0,10);
target = (0,11);
type = Stem;
},
{
horizontal = 1;
origin = (0,5);
target = (0,4);
type = Stem;
}
);
layerId = "69FAE2FB-B0EC-4DE1-A39D-F4FC44956106";
shapes = (
{
closed = 1;
nodes = (
(490,157,l),
(645,227,l),
(703,472,l),
(578,542,l),
(167,542,l),
(153,472,l),
(550,472,l),
(622,433,l),
(585,277,l),
(475,227,l),
(98,227,l),
(84,157,l)
);
},
{
closed = 1;
nodes = (
(87,0,l),
(236,700,l),
(166,700,l),
(17,0,l)
);
}
);
width = 691;
}
);
metricLeft = P;
metricRight = P;
unicode = (222,254);
},
{
glyphname = Q;
lastChange = "2019-06-02 13:13:09 +0000";
layers = (
{
layerId = "E82D559A-267E-4BF3-BBA1-0778DA3FF57C";
shapes = (
{
closed = 1;
nodes = (
(557,-67,l),
(418,247,l),
(290,190,l),
(429,-124,l)
);
},
{
ref = O;
}
);
width = 735;
},
{
layerId = "B8F43E33-4D80-4AEE-B4E2-DC92E4FCAAE5";
shapes = (
{
closed = 1;
nodes = (
(1017,-119,l),
(825,313,l),
(698,256,l),
(890,-176,l)
);
},
{
alignment = -1;
ref = O;
}
);
width = 1172.5;
},
{
layerId = "198E78DA-6138-42C0-8847-C36925CEE918";
shapes = (
{
closed = 1;
nodes = (
(605,-61,l),
(459,263,l),
(332,206,l),
(478,-118,l)
);
},
{
ref = O;
}
);
width = 741;
},
{
layerId = "E0F5E986-8A77-409E-9DB3-A90D066F072F";
shapes = (
{
closed = 1;
nodes = (
(586,-88,l),
(512,188,l),
(445,169,l),
(519,-107,l)
);
},
{
ref = O;
}
);
width = 735;
},
{
layerId = "671D7F47-0040-4C88-995A-F1154CC787CA";
shapes = (
{
closed = 1;
nodes = (
(1044,-135,l),
(929,228,l),
(862,209,l),
(977,-154,l)
);
},
{
alignment = -1;
ref = O;
}
);
width = 1172.5;
},
{
layerId = "69FAE2FB-B0EC-4DE1-A39D-F4FC44956106";
shapes = (
{
closed = 1;
nodes = (
(555,-94,l),
(495,189,l),
(426,172,l),
(485,-111,l)
);
},
{
alignment = -1;
ref = O;
}
);
width = 741;
}
);
unicode = (81,113);
},
{
glyphname = R;
lastChange = "2019-06-02 18:20:31 +0000";
layers = (
{
anchors = (
{
name = above;
pos = (380,875);
},
{
name = below;
pos = (357,0);
}
);
hints = (
{
horizontal = 1;
origin = (1,3);
target = up;
type = BottomGhost;
},
{
horizontal = 1;
origin = (0,10);
target = (0,11);
type = Stem;
},
{
horizontal = 1;
origin = (1,2);
target = (0,5);
type = Stem;
},
{
origin = (1,3);
target = (1,0);
type = Stem;
},
{
origin = (0,8);
target = (0,1);
type = Stem;
}
);
layerId = "E82D559A-267E-4BF3-BBA1-0778DA3FF57C";
shapes = (
{
closed = 1;
nodes = (
(515,280,l),
(655,350,l),
(655,630,l),
(515,700,l),
(141,700,l),
(141,560,l),
(505,560,l),
(505,560,l),
(505,420,l),
(505,420,l),
(141,420,l),
(141,280,l)
);
},
{
closed = 1;
nodes = (
(210,0,l),
(210,700,l),
(70,700,l),
(70,0,l)
);
},
{
closed = 1;
nodes = (
(680,0,l),
(521,371,l),
(396,319,l),
(526,0,l)
);
}
);
width = 715;
},
{
anchors = (
{
name = above;
pos = (517,875);
},
{
name = below;
pos = (517,0);
}
);
hints = (
{
horizontal = 1;
origin = (1,3);
target = up;
type = BottomGhost;
},
{
horizontal = 1;
origin = (0,11);
target = (0,10);
type = Stem;
},
{
horizontal = 1;
origin = (1,2);
target = (0,5);
type = Stem;
},
{
origin = (1,3);
target = (1,0);
type = Stem;
},
{
origin = (0,8);
target = (0,1);
type = Stem;
}
);
layerId = "B8F43E33-4D80-4AEE-B4E2-DC92E4FCAAE5";
shapes = (
{
closed = 1;
nodes = (
(803,280,l),
(943,350,l),
(943,630,l),
(803,700,l),
(141,700,l),
(141,560,l),
(793,560,l),
(793,560,l),
(793,420,l),
(793,420,l),
(141,420,l),
(141,280,l)
);
},
{
closed = 1;
nodes = (
(210,0,l),
(210,700,l),
(70,700,l),
(70,0,l)
);
},
{
closed = 1;
nodes = (
(1010,0,l),
(714,401,l),
(601,318,l),
(837,0,l)
);
}
);
width = 1045;
},
{
anchors = (
{
name = above;
pos = (473,875);
},
{
name = below;
pos = (314,0);
}
);
hints = (
{
horizontal = 1;
origin = (1,3);
target = up;
type = BottomGhost;
},
{
horizontal = 1;
origin = (0,11);
target = (0,10);
type = Stem;
},
{
horizontal = 1;
origin = (1,2);
target = (0,5);
type = Stem;
}
);
layerId = "198E78DA-6138-42C0-8847-C36925CEE918";
shapes = (
{
closed = 1;
nodes = (
(522,280,l),
(677,350,l),
(735,630,l),
(610,700,l),
(237,700,l),
(207,560,l),
(571,560,l),
(571,560,l),
(541,420,l),
(541,420,l),
(177,420,l),
(148,280,l)
);
},
{
closed = 1;
nodes = (
(157,0,l),
(306,700,l),
(166,700,l),
(17,0,l)
);
},
{
closed = 1;
nodes = (
(626,0,l),
(545,371,l),
(408,341,l),
(482,0,l)
);
}
);
width = 714;
},
{
anchors = (
{
name = above;
pos = (370,875);
},
{
name = below;
pos = (357,0);
}
);
hints = (
{
horizontal = 1;
origin = (1,3);
target = up;
type = BottomGhost;
},
{
horizontal = 1;
origin = (0,11);
target = (0,10);
type = Stem;
},
{
horizontal = 1;
origin = (1,2);
target = (0,5);
type = Stem;
},
{
origin = (1,3);
target = (1,0);
type = Stem;
},
{
origin = (0,8);
target = (0,1);
type = Stem;
}
);
layerId = "E0F5E986-8A77-409E-9DB3-A90D066F072F";
shapes = (
{
closed = 1;
nodes = (
(515,315,l),
(655,385,l),
(655,630,l),
(515,700,l),
(106,700,l),
(106,630,l),
(498,630,l),
(585,587,l),
(585,428,l),
(498,385,l),
(106,385,l),
(106,315,l)
);
},
{
closed = 1;
nodes = (
(140,0,l),
(140,700,l),
(70,700,l),
(70,0,l)
);
},
{
closed = 1;
nodes = (
(700,0,l),
(508,369,l),
(446,337,l),
(621,0,l)
);
}
);
width = 735;
},
{
anchors = (
{
name = above;
pos = (492,875);
},
{
name = below;
pos = (517,0);
}
);
hints = (
{
horizontal = 1;
origin = (1,3);
target = up;
type = BottomGhost;
},
{
horizontal = 1;
origin = (0,10);
target = (0,11);
type = Stem;
},
{
horizontal = 1;
origin = (1,2);
target = (0,5);
type = Stem;
},
{
origin = (1,3);
target = (1,0);
type = Stem;
},
{
origin = (0,8);
target = (0,1);
type = Stem;
}
);
layerId = "671D7F47-0040-4C88-995A-F1154CC787CA";
shapes = (
{
closed = 1;
nodes = (
(803,315,l),
(943,385,l),
(943,630,l),
(803,700,l),
(106,700,l),
(106,630,l),
(786,630,l),
(873,587,l),
(873,428,l),
(786,385,l),
(106,385,l),
(106,315,l)
);
},
{
closed = 1;
nodes = (
(140,0,l),
(140,700,l),
(70,700,l),
(70,0,l)
);
},
{
closed = 1;
nodes = (
(986,0,l),
(794,369,l),
(732,337,l),
(907,0,l)
);
}
);
width = 1021;
},
{
anchors = (
{
name = above;
pos = (463,875);
},
{
name = below;
pos = (314,0);
}
);
hints = (
{
horizontal = 1;
origin = (1,3);
target = up;
type = BottomGhost;
},
{
horizontal = 1;
origin = (0,10);
target = (0,11);
type = Stem;
},
{
horizontal = 1;
origin = (1,2);
target = (0,5);
type = Stem;
}
);
layerId = "69FAE2FB-B0EC-4DE1-A39D-F4FC44956106";
shapes = (
{
closed = 1;
nodes = (
(522,315,l),
(677,385,l),
(735,630,l),
(610,700,l),
(199,700,l),
(185,630,l),
(582,630,l),
(654,591,l),
(617,435,l),
(507,385,l),
(130,385,l),
(116,315,l)
);
},
{
closed = 1;
nodes = (
(87,0,l),
(236,700,l),
(166,700,l),
(17,0,l)
);
},
{
closed = 1;
nodes = (
(676,0,l),
(512,369,l),
(448,341,l),
(600,0,l)
);
}
);
width = 764;
}
);
metricLeft = H;
unicode = (82,114);
},
{
glyphname = S;
lastChange = "2019-06-07 13:29:50 +0000";
layers = (
{
anchors = (
{
name = above;
pos = (368,875);
},
{
name = below;
pos = (369,0);
},
{
name = lowerRight;
pos = (470,0);
}
);
hints = (
{
horizontal = 1;
origin = (0,27);
target = (0,22);
type = Stem;
},
{
horizontal = 1;
origin = (0,17);
target = (0,4);
type = Stem;
},
{
horizontal = 1;
origin = (0,14);
target = (0,7);
type = Stem;
},
{
origin = (0,26);
target = (0,23);
type = Stem;
},
{
origin = (0,20);
target = (0,1);
type = Stem;
}
);
layerId = "E82D559A-267E-4BF3-BBA1-0778DA3FF57C";
shapes = (
{
closed = 1;
nodes = (
(505,0,l),
(665,70,l),
(665,350,l),
(525,420,l),
(179,420,l),
(210,389,l),
(210,601,l),
(179,570,l),
(556,570,l),
(525,601,l),
(525,490,l),
(665,490,l),
(665,630,l),
(525,700,l),
(210,700,l),
(70,630,l),
(70,350,l),
(210,280,l),
(556,280,l),
(525,311,l),
(525,99,l),
(556,130,l),
(179,130,l),
(210,99,l),
(210,210,l),
(70,210,l),
(70,70,l),
(230,0,l)
);
}
);
width = 735;
},
{
anchors = (
{
name = above;
pos = (586,875);
},
{
name = below;
pos = (584,0);
},
{
name = lowerRight;
pos = (820,0);
}
);
hints = (
{
horizontal = 1;
origin = (0,27);
target = (0,22);
type = Stem;
},
{
horizontal = 1;
origin = (0,17);
target = (0,4);
type = Stem;
},
{
horizontal = 1;
origin = (0,7);
target = (0,14);
type = Stem;
},
{
origin = (0,26);
target = (0,23);
type = Stem;
},
{
origin = (0,20);
target = (0,1);
type = Stem;
}
);
layerId = "B8F43E33-4D80-4AEE-B4E2-DC92E4FCAAE5";
shapes = (
{
closed = 1;
nodes = (
(943,0,l),
(1103,70,l),
(1103,350,l),
(963,420,l),
(179,420,l),
(210,389,l),
(210,601,l),
(179,570,l),
(994,570,l),
(963,601,l),
(963,490,l),
(1103,490,l),
(1103,630,l),
(963,700,l),
(210,700,l),
(70,630,l),
(70,350,l),
(210,280,l),
(994,280,l),
(963,311,l),
(963,99,l),
(994,130,l),
(179,130,l),
(210,99,l),
(210,210,l),
(70,210,l),
(70,70,l),
(230,0,l)
);
}
);
width = 1173;
},
{
anchors = (
{
name = above;
pos = (502,875);
},
{
name = below;
pos = (317,0);
},
{
name = lowerRight;
pos = (418,0);
}
);
hints = (
{
horizontal = 1;
origin = (0,27);
target = (0,22);
type = Stem;
},
{
horizontal = 1;
origin = (0,17);
target = (0,4);
type = Stem;
},
{
horizontal = 1;
origin = (0,7);
target = (0,14);
type = Stem;
}
);
layerId = "198E78DA-6138-42C0-8847-C36925CEE918";
shapes = (
{
closed = 1;
nodes = (
(453,0,l),
(628,70,l),
(687,350,l),
(562,420,l),
(216,420,l),
(240,389,l),
(286,601,l),
(248,570,l),
(625,570,l),
(601,601,l),
(577,490,l),
(717,490,l),
(746,630,l),
(621,700,l),
(306,700,l),
(151,630,l),
(93,350,l),
(218,280,l),
(564,280,l),
(540,311,l),
(494,99,l),
(532,130,l),
(155,130,l),
(179,99,l),
(203,210,l),
(63,210,l),
(33,70,l),
(178,0,l)
);
}
);
width = 736;
},
{
anchors = (
{
name = above;
pos = (368,875);
},
{
name = below;
pos = (369,0);
},
{
name = lowerRight;
pos = (470,0);
}
);
hints = (
{
horizontal = 1;
origin = (0,27);
target = (0,26);
type = Stem;
},
{
horizontal = 1;
origin = (0,17);
target = (0,16);
type = Stem;
},
{
horizontal = 1;
origin = (0,15);
target = (0,14);
type = Stem;
},
{
origin = (0,26);
target = (0,23);
type = Stem;
},
{
origin = (0,20);
target = (0,1);
type = Stem;
}
);
layerId = "E0F5E986-8A77-409E-9DB3-A90D066F072F";
shapes = (
{
closed = 1;
nodes = (
(505,0,l),
(665,70,l),
(665,315,l),
(525,385,l),
(227,385,l),
(140,428,l),
(140,587,l),
(227,630,l),
(508,630,l),
(595,587,l),
(595,490,l),
(665,490,l),
(665,630,l),
(525,700,l),
(210,700,l),
(70,630,l),
(70,385,l),
(210,315,l),
(508,315,l),
(595,272,l),
(595,116,l),
(490,70,l),
(245,70,l),
(140,116,l),
(140,210,l),
(70,210,l),
(70,70,l),
(230,0,l)
);
}
);
width = 735;
},
{
anchors = (
{
name = above;
pos = (586,875);
},
{
name = below;
pos = (584,0);
},
{
name = lowerRight;
pos = (820,0);
}
);
hints = (
{
horizontal = 1;
origin = (0,27);
target = (0,26);
type = Stem;
},
{
horizontal = 1;
origin = (0,17);
target = (0,16);
type = Stem;
},
{
horizontal = 1;
origin = (0,14);
target = (0,15);
type = Stem;
},
{
origin = (0,26);
target = (0,23);
type = Stem;
},
{
origin = (0,20);
target = (0,1);
type = Stem;
}
);
layerId = "671D7F47-0040-4C88-995A-F1154CC787CA";
shapes = (
{
closed = 1;
nodes = (
(943,0,l),
(1103,70,l),
(1103,315,l),
(963,385,l),
(227,385,l),
(140,428,l),
(140,587,l),
(227,630,l),
(946,630,l),
(1033,587,l),
(1033,490,l),
(1103,490,l),
(1103,630,l),
(963,700,l),
(210,700,l),
(70,630,l),
(70,385,l),
(210,315,l),
(946,315,l),
(1033,272,l),
(1033,116,l),
(928,70,l),
(245,70,l),
(140,116,l),
(140,210,l),
(70,210,l),
(70,70,l),
(230,0,l)
);
}
);
width = 1173.33333;
},
{
anchors = (
{
name = above;
pos = (501,875);
},
{
name = below;
pos = (316,0);
},
{
name = lowerRight;
pos = (417,0);
}
);
hints = (
{
horizontal = 1;
origin = (0,27);
target = (0,26);
type = Stem;
},
{
horizontal = 1;
origin = (0,17);
target = (0,16);
type = Stem;
},
{
horizontal = 1;
origin = (0,14);
target = (0,15);
type = Stem;
}
);
layerId = "69FAE2FB-B0EC-4DE1-A39D-F4FC44956106";
shapes = (
{
closed = 1;
nodes = (
(473,0,l),
(627,70,l),
(679,315,l),
(561,385,l),
(244,385,l),
(178,426,l),
(211,581,l),
(320,630,l),
(602,630,l),
(668,593,l),
(646,490,l),
(716,490,l),
(746,629,l),
(620,700,l),
(305,700,l),
(152,630,l),
(99,385,l),
(217,315,l),
(535,315,l),
(600,274,l),
(567,120,l),
(458,70,l),
(176,70,l),
(111,106,l),
(132,210,l),
(62,210,l),
(32,70,l),
(158,0,l)
);
}
);
width = 735;
}
);
metricLeft = O;
metricRight = O;
unicode = (83,115);
},
{
glyphname = Germandbls;
lastChange = "2019-06-02 18:12:03 +0000";
layers = (
{
layerId = "E82D559A-267E-4BF3-BBA1-0778DA3FF57C";
shapes = (
{
closed = 1;
nodes = (
(210,0,l),
(210,591,l),
(179,560,l),
(429,560,l),
(417,585,l),
(305,385,l),
(375,280,l),
(575,280,l),
(575,280,l),
(575,140,l),
(575,140,l),
(280,140,l),
(280,0,l),
(585,0,l),
(725,70,l),
(725,350,l),
(585,420,l),
(454,420,l),
(465,396,l),
(560,560,l),
(485,700,l),
(70,700,l),
(70,0,l)
);
}
);
width = 795;
},
{
layerId = "B8F43E33-4D80-4AEE-B4E2-DC92E4FCAAE5";
shapes = (
{
closed = 1;
nodes = (
(210,0,l),
(210,591,l),
(179,560,l),
(654,560,l),
(609,609,l),
(511,399,l),
(607,280,l),
(953,280,l),
(953,280,l),
(953,140,l),
(953,140,l),
(351,140,l),
(351,0,l),
(963,0,l),
(1103,70,l),
(1103,350,l),
(963,420,l),
(606,420,l),
(653,358,l),
(746,567,l),
(653,700,l),
(70,700,l),
(70,0,l)
);
}
);
width = 1173;
},
{
layerId = "198E78DA-6138-42C0-8847-C36925CEE918";
shapes = (
{
closed = 1;
nodes = (
(157,0,l),
(282,591,l),
(245,560,l),
(482,560,l),
(470,585,l),
(323,393,l),
(390,280,l),
(591,280,l),
(591,280,l),
(561,140,l),
(561,140,l),
(256,140,l),
(227,0,l),
(542,0,l),
(696,70,l),
(756,350,l),
(631,420,l),
(475,420,l),
(486,396,l),
(617,555,l),
(541,700,l),
(166,700,l),
(17,0,l)
);
}
);
width = 805;
},
{
layerId = "E0F5E986-8A77-409E-9DB3-A90D066F072F";
shapes = (
{
closed = 1;
nodes = (
(140,0,l),
(140,675,l),
(95,630,l),
(569,630,l),
(549,669,l),
(363,360,l),
(388,315,l),
(568,315,l),
(655,272,l),
(655,113,l),
(568,70,l),
(245,70,l),
(245,0,l),
(585,0,l),
(725,70,l),
(725,315,l),
(585,385,l),
(414,385,l),
(434,346,l),
(617,650,l),
(590,700,l),
(70,700,l),
(70,0,l)
);
}
);
width = 795;
},
{
layerId = "671D7F47-0040-4C88-995A-F1154CC787CA";
shapes = (
{
closed = 1;
nodes = (
(140,0,l),
(140,675,l),
(95,630,l),
(692,630,l),
(671,660,l),
(545,367,l),
(588,315,l),
(948,315,l),
(1035,272,l),
(1035,113,l),
(948,70,l),
(305,70,l),
(305,0,l),
(965,0,l),
(1105,70,l),
(1105,315,l),
(965,385,l),
(587,385,l),
(612,354,l),
(737,639,l),
(692,700,l),
(70,700,l),
(70,0,l)
);
}
);
width = 1175;
},
{
layerId = "69FAE2FB-B0EC-4DE1-A39D-F4FC44956106";
shapes = (
{
closed = 1;
nodes = (
(88,0,l),
(232,674,l),
(178,630,l),
(617,630,l),
(598,666,l),
(394,385,l),
(435,315,l),
(613,315,l),
(675,280,l),
(636,120,l),
(527,70,l),
(207,70,l),
(192,0,l),
(542,0,l),
(696,70,l),
(756,315,l),
(631,385,l),
(440,385,l),
(459,348,l),
(669,645,l),
(631,700,l),
(166,700,l),
(17,0,l)
);
}
);
width = 812;
}
);
metricLeft = H;
metricRight = B;
unicode = (7838,223);
},
{
glyphname = T;
kernLeft = T;
kernRight = T;
lastChange = "2023-04-01 19:07:55 +0000";
layers = (
{
anchors = (
{
name = above;
pos = (314,875);
},
{
name = below;
pos = (316,0);
}
);
hints = (
{
horizontal = 1;
origin = (0,3);
target = up;
type = BottomGhost;
},
{
horizontal = 1;
origin = (1,2);
target = (1,3);
type = Stem;
},
{
origin = (0,3);
target = (0,0);
type = Stem;
}
);
layerId = "E82D559A-267E-4BF3-BBA1-0778DA3FF57C";
shapes = (
{
closed = 1;
nodes = (
(385,0,l),
(385,700,l),
(245,700,l),
(245,0,l)
);
},
{
closed = 1;
nodes = (
(595,560,l),
(595,700,l),
(35,700,l),
(35,560,l)
);
}
);
width = 630;
},
{
anchors = (
{
name = above;
pos = (489,875);
},
{
name = below;
pos = (486,0);
}
);
hints = (
{
horizontal = 1;
origin = (0,3);
target = up;
type = BottomGhost;
},
{
horizontal = 1;
origin = (1,2);
target = (1,3);
type = Stem;
},
{
origin = (0,3);
target = (0,0);
type = Stem;
}
);
layerId = "B8F43E33-4D80-4AEE-B4E2-DC92E4FCAAE5";
shapes = (
{
closed = 1;
nodes = (
(560,0,l),
(560,700,l),
(420,700,l),
(420,0,l)
);
},
{
closed = 1;
nodes = (
(945,560,l),
(945,700,l),
(35,700,l),
(35,560,l)
);
}
);
width = 980;
},
{
anchors = (
{
name = above;
pos = (447,875);
},
{
name = below;
pos = (263,0);
}
);
hints = (
{
horizontal = 1;
origin = (0,3);
target = up;
type = BottomGhost;
},
{
horizontal = 1;
origin = (1,2);
target = (1,3);
type = Stem;
}
);
layerId = "198E78DA-6138-42C0-8847-C36925CEE918";
shapes = (
{
closed = 1;
nodes = (
(332,0,l),
(481,700,l),
(341,700,l),
(192,0,l)
);
},
{
closed = 1;
nodes = (
(661,560,l),
(691,700,l),
(131,700,l),
(101,560,l)
);
}
);
width = 630;
},
{
anchors = (
{
name = above;
pos = (314,875);
},
{
name = below;
pos = (316,0);
}
);
hints = (
{
horizontal = 1;
origin = (0,3);
target = up;
type = BottomGhost;
},
{
horizontal = 1;
origin = (1,2);
target = (1,3);
type = Stem;
},
{
origin = (0,3);
target = (0,0);
type = Stem;
}
);
layerId = "E0F5E986-8A77-409E-9DB3-A90D066F072F";
shapes = (
{
closed = 1;
nodes = (
(350,0,l),
(350,700,l),
(280,700,l),
(280,0,l)
);
},
{
closed = 1;
nodes = (
(595,630,l),
(595,700,l),
(35,700,l),
(35,630,l)
);
}
);
width = 630;
},
{
anchors = (
{
name = above;
pos = (489,875);
},
{
name = below;
pos = (486,0);
}
);
hints = (
{
horizontal = 1;
origin = (0,3);
target = up;
type = BottomGhost;
},
{
horizontal = 1;
origin = (1,2);
target = (1,3);
type = Stem;
},
{
origin = (0,3);
target = (0,0);
type = Stem;
}
);
layerId = "671D7F47-0040-4C88-995A-F1154CC787CA";
shapes = (
{
closed = 1;
nodes = (
(525,0,l),
(525,700,l),
(455,700,l),
(455,0,l)
);
},
{
closed = 1;
nodes = (
(945,630,l),
(945,700,l),
(35,700,l),
(35,630,l)
);
}
);
width = 980;
},
{
anchors = (
{
name = above;
pos = (448,875);
},
{
name = below;
pos = (264,0);
}
);
hints = (
{
horizontal = 1;
origin = (0,3);
target = up;
type = BottomGhost;
},
{
horizontal = 1;
origin = (1,2);
target = (1,3);
type = Stem;
}
);
layerId = "69FAE2FB-B0EC-4DE1-A39D-F4FC44956106";
shapes = (
{
closed = 1;
nodes = (
(298,0,l),
(447,700,l),
(377,700,l),
(228,0,l)
);
},
{
closed = 1;
nodes = (
(677,630,l),
(691,700,l),
(131,700,l),
(117,630,l)
);
}
);
width = 631;
}
);
unicode = (84,116);
},
{
glyphname = Tbar;
lastChange = "2023-04-01 08:41:23 +0000";
layers = (
{
hints = (
{
horizontal = 1;
origin = (0,3);
target = (0,2);
type = Stem;
}
);
layerId = "E82D559A-267E-4BF3-BBA1-0778DA3FF57C";
shapes = (
{
closed = 1;
nodes = (
(490,315,l),
(490,385,l),
(140,385,l),
(140,315,l)
);
},
{
ref = T;
}
);
width = 630;
},
{
layerId = "B8F43E33-4D80-4AEE-B4E2-DC92E4FCAAE5";
shapes = (
{
closed = 1;
nodes = (
(735,315,l),
(735,385,l),
(245,385,l),
(245,315,l)
);
},
{
alignment = -1;
ref = T;
}
);
width = 980;
},
{
layerId = "198E78DA-6138-42C0-8847-C36925CEE918";
shapes = (
{
closed = 1;
nodes = (
(503,315,l),
(517,385,l),
(167,385,l),
(153,315,l)
);
},
{
ref = T;
}
);
width = 630;
},
{
layerId = "E0F5E986-8A77-409E-9DB3-A90D066F072F";
shapes = (
{
closed = 1;
nodes = (
(510,325,l),
(510,375,l),
(120,375,l),
(120,325,l)
);
},
{
ref = T;
}
);
width = 630;
},
{
hints = (
{
horizontal = 1;
origin = (0,3);
target = (0,2);
type = Stem;
}
);
layerId = "671D7F47-0040-4C88-995A-F1154CC787CA";
shapes = (
{
closed = 1;
nodes = (
(743,325,l),
(743,375,l),
(237,375,l),
(237,325,l)
);
},
{
alignment = -1;
ref = T;
}
);
width = 980;
},
{
hints = (
{
horizontal = 1;
origin = (0,3);
target = (0,2);
type = Stem;
}
);
layerId = "69FAE2FB-B0EC-4DE1-A39D-F4FC44956106";
shapes = (
{
closed = 1;
nodes = (
(525,325,l),
(536,375,l),
(146,375,l),
(135,325,l)
);
},
{
alignment = -1;
ref = T;
}
);
width = 631;
}
);
metricLeft = T;
metricRight = T;
unicode = (358,359);
},
{
glyphname = U;
lastChange = "2019-06-02 22:02:41 +0000";
layers = (
{
anchors = (
{
name = above;
pos = (368,875);
},
{
name = lowerRight;
pos = (525,0);
}
);
hints = (
{
horizontal = 1;
origin = (0,6);
target = (0,11);
type = Stem;
},
{
horizontal = 1;
origin = (0,9);
target = down;
type = TopGhost;
},
{
origin = (0,10);
target = (0,11);
type = Stem;
},
{
origin = (0,0);
target = (0,1);
type = Stem;
}
);
layerId = "E82D559A-267E-4BF3-BBA1-0778DA3FF57C";
shapes = (
{
closed = 1;
nodes = (
(525,0,l),
(665,70,l),
(665,700,l),
(525,700,l),
(525,140,l),
(525,140,l),
(210,140,l),
(210,140,l),
(210,700,l),
(70,700,l),
(70,70,l),
(210,0,l)
);
}
);
width = 735;
},
{
anchors = (
{
name = above;
pos = (585.5,875);
},
{
name = lowerRight;
pos = (963,0);
}
);
hints = (
{
horizontal = 1;
origin = (0,6);
target = (0,11);
type = Stem;
},
{
horizontal = 1;
origin = (0,9);
target = down;
type = TopGhost;
},
{
origin = (0,10);
target = (0,11);
type = Stem;
},
{
origin = (0,0);
target = (0,1);
type = Stem;
}
);
layerId = "B8F43E33-4D80-4AEE-B4E2-DC92E4FCAAE5";
shapes = (
{
closed = 1;
nodes = (
(963,0,l),
(1103,70,l),
(1103,700,l),
(963,700,l),
(963,140,l),
(963,140,l),
(210,140,l),
(210,140,l),
(210,700,l),
(70,700,l),
(70,70,l),
(210,0,l)
);
}
);
width = 1172.5;
},
{
anchors = (
{
name = above;
pos = (501,875);
},
{
name = lowerRight;
pos = (473,0);
}
);
hints = (
{
horizontal = 1;
origin = (0,1);
target = (0,11);
type = Stem;
},
{
horizontal = 1;
origin = (0,9);
target = down;
type = TopGhost;
}
);
layerId = "198E78DA-6138-42C0-8847-C36925CEE918";
shapes = (
{
closed = 1;
nodes = (
(473,0,l),
(627,70,l),
(761,700,l),
(621,700,l),
(502,140,l),
(502,140,l),
(187,140,l),
(187,140,l),
(306,700,l),
(166,700,l),
(32,70,l),
(158,0,l)
);
}
);
width = 735;
},
{
anchors = (
{
name = above;
pos = (368,875);
},
{
name = lowerRight;
pos = (525,0);
}
);
hints = (
{
horizontal = 1;
origin = (0,10);
target = (0,11);
type = Stem;
},
{
horizontal = 1;
origin = (0,9);
target = down;
type = TopGhost;
},
{
origin = (0,10);
target = (0,7);
type = Stem;
},
{
origin = (0,4);
target = (0,1);
type = Stem;
}
);
layerId = "E0F5E986-8A77-409E-9DB3-A90D066F072F";
shapes = (
{
closed = 1;
nodes = (
(525,0,l),
(665,70,l),
(665,700,l),
(595,700,l),
(595,113,l),
(508,70,l),
(227,70,l),
(140,113,l),
(140,700,l),
(70,700,l),
(70,70,l),
(210,0,l)
);
}
);
width = 735;
},
{
anchors = (
{
name = above;
pos = (586,875);
},
{
name = lowerRight;
pos = (963,0);
}
);
hints = (
{
horizontal = 1;
origin = (0,10);
target = (0,11);
type = Stem;
},
{
horizontal = 1;
origin = (0,9);
target = down;
type = TopGhost;
},
{
origin = (0,10);
target = (0,7);
type = Stem;
},
{
origin = (0,4);
target = (0,1);
type = Stem;
}
);
layerId = "671D7F47-0040-4C88-995A-F1154CC787CA";
shapes = (
{
closed = 1;
nodes = (
(963,0,l),
(1103,70,l),
(1103,700,l),
(1033,700,l),
(1033,113,l),
(946,70,l),
(227,70,l),
(140,113,l),
(140,700,l),
(70,700,l),
(70,70,l),
(210,0,l)
);
}
);
width = 1172.5;
},
{
anchors = (
{
name = above;
pos = (502,875);
},
{
name = lowerRight;
pos = (474,0);
}
);
hints = (
{
horizontal = 1;
origin = (0,10);
target = (0,11);
type = Stem;
},
{
horizontal = 1;
origin = (0,9);
target = down;
type = TopGhost;
}
);
layerId = "69FAE2FB-B0EC-4DE1-A39D-F4FC44956106";
shapes = (
{
closed = 1;
nodes = (
(474,0,l),
(628,70,l),
(761,700,l),
(689,700,l),
(567,119,l),
(459,70,l),
(177,70,l),
(112,106,l),
(237,700,l),
(166,700,l),
(33,70,l),
(159,0,l)
);
}
);
width = 736;
}
);
metricLeft = O;
metricRight = O;
unicode = (85,117);
},
{
glyphname = V;
kernLeft = V;
kernRight = V;
lastChange = "2019-06-06 05:08:30 +0000";
layers = (
{
layerId = "E82D559A-267E-4BF3-BBA1-0778DA3FF57C";
shapes = (
{
closed = 1;
nodes = (
(409,0,l),
(675,700,l),
(526,700,l),
(306,123,l),
(403,123,l),
(184,700,l),
(35,700,l),
(301,0,l)
);
}
);
width = 710;
},
{
layerId = "B8F43E33-4D80-4AEE-B4E2-DC92E4FCAAE5";
shapes = (
{
closed = 1;
nodes = (
(751,0,l),
(1295,700,l),
(1114,700,l),
(649,113,l),
(682,113,l),
(217,700,l),
(35,700,l),
(579,0,l)
);
}
);
width = 1330;
},
{
layerId = "198E78DA-6138-42C0-8847-C36925CEE918";
shapes = (
{
closed = 1;
nodes = (
(351,0,l),
(766,700,l),
(605,700,l),
(262,123,l),
(369,123,l),
(273,700,l),
(131,700,l),
(248,0,l)
);
}
);
width = 705;
},
{
layerId = "E0F5E986-8A77-409E-9DB3-A90D066F072F";
shapes = (
{
closed = 1;
nodes = (
(389,0,l),
(655,700,l),
(581,700,l),
(322,20,l),
(367,20,l),
(109,700,l),
(35,700,l),
(301,0,l)
);
}
);
width = 690;
},
{
layerId = "671D7F47-0040-4C88-995A-F1154CC787CA";
shapes = (
{
closed = 1;
nodes = (
(656,0,l),
(1212,700,l),
(1124,700,l),
(596,36,l),
(652,36,l),
(125,700,l),
(35,700,l),
(591,0,l)
);
}
);
width = 1247;
},
{
layerId = "69FAE2FB-B0EC-4DE1-A39D-F4FC44956106";
shapes = (
{
closed = 1;
nodes = (
(331,0,l),
(746,700,l),
(665,700,l),
(291,70,l),
(307,70,l),
(200,700,l),
(131,700,l),
(248,0,l)
);
}
);
width = 685;
}
);
unicode = (86,118);
},
{
glyphname = W;
kernLeft = W;
kernRight = W;
lastChange = "2023-04-01 19:07:42 +0000";
layers = (
{
anchors = (
{
name = above;
pos = (455,875);
}
);
layerId = "E82D559A-267E-4BF3-BBA1-0778DA3FF57C";
shapes = (
{
closed = 1;
nodes = (
(357,0,l),
(466,450,l),
(445,450,l),
(552,0,l),
(691,0,l),
(859,700,l),
(719,700,l),
(610,223,l),
(631,223,l),
(525,700,l),
(384,700,l),
(276,223,l),
(297,223,l),
(191,700,l),
(50,700,l),
(218,0,l)
);
}
);
width = 909;
},
{
anchors = (
{
name = above;
pos = (723,875);
}
);
layerId = "B8F43E33-4D80-4AEE-B4E2-DC92E4FCAAE5";
shapes = (
{
closed = 1;
nodes = (
(502,0,l),
(741,568,l),
(703,568,l),
(942,0,l),
(1084,0,l),
(1399,700,l),
(1234,700,l),
(998,176,l),
(1036,176,l),
(803,700,l),
(644,700,l),
(416,176,l),
(455,176,l),
(211,700,l),
(50,700,l),
(361,0,l)
);
}
);
width = 1449;
},
{
anchors = (
{
name = above;
pos = (585,875);
}
);
layerId = "198E78DA-6138-42C0-8847-C36925CEE918";
shapes = (
{
closed = 1;
nodes = (
(312,0,l),
(516,450,l),
(480,450,l),
(480,0,l),
(646,0,l),
(962,700,l),
(806,700,l),
(596,223,l),
(620,223,l),
(620,700,l),
(471,700,l),
(262,223,l),
(286,223,l),
(286,700,l),
(146,700,l),
(146,0,l)
);
}
);
width = 916;
},
{
anchors = (
{
name = above;
pos = (470,875);
}
);
layerId = "E0F5E986-8A77-409E-9DB3-A90D066F072F";
shapes = (
{
closed = 1;
nodes = (
(312,0,l),
(484,610,l),
(460,610,l),
(631,0,l),
(696,0,l),
(893,700,l),
(820,700,l),
(653,105,l),
(677,105,l),
(509,700,l),
(434,700,l),
(269,105,l),
(293,105,l),
(125,700,l),
(50,700,l),
(247,0,l)
);
}
);
width = 943;
},
{
anchors = (
{
name = above;
pos = (717,875);
}
);
layerId = "671D7F47-0040-4C88-995A-F1154CC787CA";
shapes = (
{
closed = 1;
nodes = (
(437,0,l),
(736,674,l),
(700,674,l),
(1001,0,l),
(1069,0,l),
(1393,700,l),
(1315,700,l),
(1025,70,l),
(1046,70,l),
(765,700,l),
(671,700,l),
(391,70,l),
(413,70,l),
(128,700,l),
(50,700,l),
(369,0,l)
);
}
);
width = 1443;
},
{
anchors = (
{
name = above;
pos = (595,875);
}
);
layerId = "69FAE2FB-B0EC-4DE1-A39D-F4FC44956106";
shapes = (
{
closed = 1;
nodes = (
(257,0,l),
(554,594,l),
(532,599,l),
(559,0,l),
(651,0,l),
(996,700,l),
(918,700,l),
(607,70,l),
(622,70,l),
(592,700,l),
(533,700,l),
(221,70,l),
(242,70,l),
(216,700,l),
(146,700,l),
(175,0,l)
);
}
);
width = 950;
}
);
unicode = (87,119);
},
{
glyphname = X;
lastChange = "2023-04-01 19:13:57 +0000";
layers = (
{
layerId = "E82D559A-267E-4BF3-BBA1-0778DA3FF57C";
shapes = (
{
closed = 1;
nodes = (
(523,700,l),
(690,700,l),
(237,0,l),
(70,0,l)
);
},
{
closed = 1;
nodes = (
(70,700,l),
(237,700,l),
(690,0,l),
(523,0,l)
);
}
);
width = 760;
},
{
layerId = "B8F43E33-4D80-4AEE-B4E2-DC92E4FCAAE5";
shapes = (
{
closed = 1;
nodes = (
(911,700,l),
(1125,700,l),
(287,0,l),
(70,0,l)
);
},
{
closed = 1;
nodes = (
(70,700,l),
(285,700,l),
(1125,0,l),
(908,0,l)
);
}
);
width = 1195;
},
{
layerId = "198E78DA-6138-42C0-8847-C36925CEE918";
shapes = (
{
closed = 1;
nodes = (
(184,0,l),
(786,700,l),
(621,700,l),
(19,0,l)
);
},
{
closed = 1;
nodes = (
(639,0,l),
(320,700,l),
(166,700,l),
(485,0,l)
);
}
);
width = 762;
},
{
layerId = "E0F5E986-8A77-409E-9DB3-A90D066F072F";
shapes = (
{
closed = 1;
nodes = (
(582,700,l),
(670,700,l),
(156,0,l),
(70,0,l)
);
},
{
closed = 1;
nodes = (
(70,700,l),
(158,700,l),
(670,0,l),
(584,0,l)
);
}
);
width = 740;
},
{
layerId = "671D7F47-0040-4C88-995A-F1154CC787CA";
shapes = (
{
closed = 1;
nodes = (
(970,700,l),
(1105,700,l),
(206,0,l),
(70,0,l)
);
},
{
closed = 1;
nodes = (
(70,700,l),
(206,700,l),
(1105,0,l),
(969,0,l)
);
}
);
width = 1175;
},
{
layerId = "69FAE2FB-B0EC-4DE1-A39D-F4FC44956106";
shapes = (
{
closed = 1;
nodes = (
(104,0,l),
(752,700,l),
(657,700,l),
(17,-1,l)
);
},
{
closed = 1;
nodes = (
(616,0,l),
(253,700,l),
(167,700,l),
(532,0,l)
);
}
);
width = 739;
}
);
metricLeft = H;
metricRight = H;
unicode = (88,120);
},
{
glyphname = Y;
kernLeft = Y;
kernRight = Y;
lastChange = "2023-04-01 19:09:14 +0000";
layers = (
{
anchors = (
{
name = above;
pos = (380,875);
},
{
name = lowerRight;
pos = (440,0);
}
);
hints = (
{
origin = (0,9);
target = (0,0);
type = Stem;
}
);
layerId = "E82D559A-267E-4BF3-BBA1-0778DA3FF57C";
shapes = (
{
closed = 1;
nodes = (
(450,0,l),
(450,331,l),
(690,700,l),
(523,700,l),
(356,441,l),
(404,441,l),
(237,700,l),
(70,700,l),
(310,331,l),
(310,0,l)
);
}
);
width = 760;
},
{
anchors = (
{
name = above;
pos = (555,875);
},
{
name = lowerRight;
pos = (615,0);
}
);
layerId = "B8F43E33-4D80-4AEE-B4E2-DC92E4FCAAE5";
shapes = (
{
closed = 1;
nodes = (
(625,0,l),
(625,240,l),
(1040,700,l),
(853,700,l),
(525,325,l),
(585,325,l),
(257,700,l),
(70,700,l),
(485,240,l),
(485,0,l)
);
}
);
width = 1110;
},
{
anchors = (
{
name = above;
pos = (512,875);
},
{
name = lowerRight;
pos = (386,0);
}
);
layerId = "198E78DA-6138-42C0-8847-C36925CEE918";
shapes = (
{
closed = 1;
nodes = (
(396,0,l),
(467,331,l),
(786,700,l),
(617,700,l),
(395,441,l),
(443,441,l),
(331,700,l),
(166,700,l),
(327,331,l),
(256,0,l)
);
}
);
width = 760;
},
{
anchors = (
{
name = above;
pos = (357,875);
},
{
name = lowerRight;
pos = (382,0);
}
);
layerId = "E0F5E986-8A77-409E-9DB3-A90D066F072F";
shapes = (
{
closed = 1;
nodes = (
(392,0,l),
(392,262,l),
(645,700,l),
(565,700,l),
(336,302,l),
(381,302,l),
(150,700,l),
(70,700,l),
(322,263,l),
(322,0,l)
);
}
);
width = 715;
},
{
anchors = (
{
name = above;
pos = (532,875);
},
{
name = lowerRight;
pos = (557,0);
}
);
hints = (
{
origin = (0,0);
target = (0,0);
type = Stem;
}
);
layerId = "671D7F47-0040-4C88-995A-F1154CC787CA";
shapes = (
{
closed = 1;
nodes = (
(567,0,l),
(567,177,l),
(995,700,l),
(905,700,l),
(503,210,l),
(560,210,l),
(160,700,l),
(70,700,l),
(497,178,l),
(497,0,l)
);
}
);
width = 1065;
},
{
anchors = (
{
name = above;
pos = (489,875);
},
{
name = lowerRight;
pos = (328,0);
}
);
hints = (
{
origin = (0,8);
target = (0,6);
type = Stem;
}
);
layerId = "69FAE2FB-B0EC-4DE1-A39D-F4FC44956106";
shapes = (
{
closed = 1;
nodes = (
(347,0,l),
(404,272,l),
(728,700,l),
(651,700,l),
(354,307,l),
(398,301,l),
(239,700,l),
(166,700,l),
(335,274,l),
(277,0,l)
);
}
);
width = 702;
}
);
metricLeft = H;
metricRight = H;
unicode = (89,121);
},
{
glyphname = Z;
lastChange = "2019-06-02 17:08:49 +0000";
layers = (
{
anchors = (
{
name = above;
pos = (365,875);
},
{
name = lowerRight;
pos = (515,0);
}
);
hints = (
{
horizontal = 1;
origin = (0,11);
target = (0,2);
type = Stem;
},
{
horizontal = 1;
origin = (0,7);
target = (0,6);
type = Stem;
}
);
layerId = "E82D559A-267E-4BF3-BBA1-0778DA3FF57C";
shapes = (
{
closed = 1;
nodes = (
(655,0,l),
(655,140,l),
(234,140,l),
(247,108,l),
(662,579,l),
(595,700,l),
(105,700,l),
(105,560,l),
(506,560,l),
(493,592,l),
(70,113,l),
(145,0,l)
);
}
);
width = 732;
},
{
anchors = (
{
name = above;
pos = (550,875);
},
{
name = lowerRight;
pos = (715,0);
}
);
layerId = "B8F43E33-4D80-4AEE-B4E2-DC92E4FCAAE5";
shapes = (
{
closed = 1;
nodes = (
(980,0,l),
(980,140,l),
(249,140,l),
(257,115.5,l),
(1019.5,531.5,l),
(992.5,700,l),
(105,700,l),
(105,560,l),
(831,560,l),
(823,584.5,l),
(70,180.5,l),
(87.5,0,l)
);
}
);
width = 1089.5;
},
{
anchors = (
{
name = above;
pos = (498,875);
},
{
name = lowerRight;
pos = (462,0);
}
);
layerId = "198E78DA-6138-42C0-8847-C36925CEE918";
shapes = (
{
closed = 1;
nodes = (
(602,0,l),
(632,140,l),
(212,140,l),
(219,108,l),
(732,579,l),
(690,700,l),
(201,700,l),
(171,560,l),
(571,560,l),
(564,592,l),
(41,113,l),
(93,0,l)
);
}
);
width = 732;
},
{
anchors = (
{
name = above;
pos = (365,875);
},
{
name = lowerRight;
pos = (499,0);
}
);
layerId = "E0F5E986-8A77-409E-9DB3-A90D066F072F";
shapes = (
{
closed = 1;
nodes = (
(619,0,l),
(619,70,l),
(116,70,l),
(132,36,l),
(631,630,l),
(599,700,l),
(103,700,l),
(103,630,l),
(585,630,l),
(569,664,l),
(70,70,l),
(103,0,l)
);
}
);
width = 701;
},
{
anchors = (
{
name = above;
pos = (546,875);
},
{
name = lowerRight;
pos = (695,0);
}
);
hints = (
{
horizontal = 1;
origin = (0,11);
target = (0,10);
type = Stem;
},
{
horizontal = 1;
origin = (0,7);
target = (0,6);
type = Stem;
}
);
layerId = "671D7F47-0040-4C88-995A-F1154CC787CA";
shapes = (
{
closed = 1;
nodes = (
(940,0,l),
(940,70,l),
(145,70,l),
(154,44,l),
(964,630,l),
(943,700,l),
(99,700,l),
(99,630,l),
(891,630,l),
(882,656,l),
(70,70,l),
(93,0,l)
);
}
);
width = 1034;
},
{
anchors = (
{
name = above;
pos = (489,875);
},
{
name = lowerRight;
pos = (437,0);
}
);
hints = (
{
horizontal = 1;
origin = (0,11);
target = (0,2);
type = Stem;
},
{
horizontal = 1;
origin = (0,7);
target = (0,6);
type = Stem;
}
);
layerId = "69FAE2FB-B0EC-4DE1-A39D-F4FC44956106";
shapes = (
{
closed = 1;
nodes = (
(557,0,l),
(587,70,l),
(85,70,l),
(95,36,l),
(692,630,l),
(685,700,l),
(190,700,l),
(160,630,l),
(641,630,l),
(631,664,l),
(32,70,l),
(42,0,l)
);
}
);
width = 695;
}
);
unicode = (90,122);
},
{
glyphname = A.ss01;
lastChange = "2019-06-06 05:04:15 +0000";
layers = (
{
anchors = (
{
name = above;
pos = (366,875);
},
{
name = lowerRight;
pos = (665,0);
}
);
hints = (
{
horizontal = 1;
origin = (0,11);
target = up;
type = BottomGhost;
},
{
horizontal = 1;
origin = (1,3);
target = (1,2);
type = Stem;
},
{
horizontal = 1;
origin = (0,9);
target = (0,10);
type = Stem;
},
{
origin = (0,11);
target = (0,0);
type = Stem;
},
{
origin = (0,5);
target = (0,6);
type = Stem;
}
);
layerId = "E0F5E986-8A77-409E-9DB3-A90D066F072F";
shapes = (
{
closed = 1;
nodes = (
(140,0,l),
(140,587,l),
(227,630,l),
(508,630,l),
(595,587,l),
(595,0,l),
(665,0,l),
(665,630,l),
(525,700,l),
(210,700,l),
(70,630,l),
(70,0,l)
);
},
{
closed = 1;
nodes = (
(630,265,l),
(630,335,l),
(105,335,l),
(105,265,l)
);
}
);
width = 735;
},
{
anchors = (
{
name = above;
pos = (366,875);
},
{
name = lowerRight;
pos = (665,0);
}
);
hints = (
{
horizontal = 1;
origin = (0,11);
target = up;
type = BottomGhost;
},
{
horizontal = 1;
origin = (1,3);
target = (1,2);
type = Stem;
},
{
horizontal = 1;
origin = (0,9);
target = (0,2);
type = Stem;
},
{
origin = (0,11);
target = (0,0);
type = Stem;
},
{
origin = (0,5);
target = (0,6);
type = Stem;
}
);
layerId = "E82D559A-267E-4BF3-BBA1-0778DA3FF57C";
shapes = (
{
closed = 1;
nodes = (
(210,0,l),
(210,543,l),
(243,560,l),
(492,560,l),
(525,543,l),
(525,0,l),
(665,0,l),
(665,630,l),
(525,700,l),
(210,700,l),
(70,630,l),
(70,0,l)
);
},
{
closed = 1;
nodes = (
(630,230,l),
(630,370,l),
(105,370,l),
(105,230,l)
);
}
);
width = 735;
},
{
anchors = (
{
name = above;
pos = (499,875);
},
{
name = lowerRight;
pos = (612,0);
}
);
hints = (
{
horizontal = 1;
origin = (0,11);
target = up;
type = BottomGhost;
},
{
horizontal = 1;
origin = (1,3);
target = (1,2);
type = Stem;
},
{
horizontal = 1;
origin = (0,9);
target = (0,10);
type = Stem;
}
);
layerId = "69FAE2FB-B0EC-4DE1-A39D-F4FC44956106";
shapes = (
{
closed = 1;
nodes = (
(87,0,l),
(211,587,l),
(308,630,l),
(589,630,l),
(666,587,l),
(542,0,l),
(612,0,l),
(746,630,l),
(620,700,l),
(305,700,l),
(151,630,l),
(17,0,l)
);
},
{
closed = 1;
nodes = (
(633,265,l),
(648,335,l),
(123,335,l),
(108,265,l)
);
}
);
width = 735;
},
{
anchors = (
{
name = above;
pos = (499,875);
},
{
name = lowerRight;
pos = (612,0);
}
);
hints = (
{
horizontal = 1;
origin = (0,11);
target = up;
type = BottomGhost;
},
{
horizontal = 1;
origin = (1,3);
target = (1,2);
type = Stem;
},
{
horizontal = 1;
origin = (0,9);
target = (0,2);
type = Stem;
}
);
layerId = "198E78DA-6138-42C0-8847-C36925CEE918";
shapes = (
{
closed = 1;
nodes = (
(157,0,l),
(272,543,l),
(309,560,l),
(558,560,l),
(587,543,l),
(472,0,l),
(612,0,l),
(746,630,l),
(620,700,l),
(305,700,l),
(151,630,l),
(17,0,l)
);
},
{
closed = 1;
nodes = (
(625,230,l),
(655,370,l),
(130,370,l),
(100,230,l)
);
}
);
width = 735;
},
{
anchors = (
{
name = above;
pos = (587,875);
},
{
name = lowerRight;
pos = (1103,0);
}
);
hints = (
{
horizontal = 1;
origin = (0,11);
target = up;
type = BottomGhost;
},
{
horizontal = 1;
origin = (1,3);
target = (1,2);
type = Stem;
},
{
horizontal = 1;
origin = (0,9);
target = (0,10);
type = Stem;
},
{
origin = (0,11);
target = (0,0);
type = Stem;
},
{
origin = (0,5);
target = (0,6);
type = Stem;
}
);
layerId = "671D7F47-0040-4C88-995A-F1154CC787CA";
shapes = (
{
closed = 1;
nodes = (
(140,0,l),
(140,587,l),
(227,630,l),
(946,630,l),
(1033,587,l),
(1033,0,l),
(1103,0,l),
(1103,630,l),
(963,700,l),
(210,700,l),
(70,630,l),
(70,0,l)
);
},
{
closed = 1;
nodes = (
(1068,265,l),
(1068,335,l),
(105,335,l),
(105,265,l)
);
}
);
width = 1173;
},
{
anchors = (
{
name = above;
pos = (586,875);
},
{
name = lowerRight;
pos = (1103,0);
}
);
hints = (
{
horizontal = 1;
origin = (0,11);
target = up;
type = BottomGhost;
},
{
horizontal = 1;
origin = (1,3);
target = (1,2);
type = Stem;
},
{
horizontal = 1;
origin = (0,9);
target = (0,2);
type = Stem;
},
{
origin = (0,11);
target = (0,0);
type = Stem;
},
{
origin = (0,5);
target = (0,6);
type = Stem;
}
);
layerId = "B8F43E33-4D80-4AEE-B4E2-DC92E4FCAAE5";
shapes = (
{
closed = 1;
nodes = (
(210,0,l),
(210,543,l),
(243,560,l),
(930,560,l),
(963,543,l),
(963,0,l),
(1103,0,l),
(1103,630,l),
(963,700,l),
(210,700,l),
(70,630,l),
(70,0,l)
);
},
{
closed = 1;
nodes = (
(1068,230,l),
(1068,370,l),
(105,370,l),
(105,230,l)
);
}
);
width = 1173;
}
);
},
{
glyphname = I.ss01;
lastChange = "2019-06-02 22:00:33 +0000";
layers = (
{
anchors = (
{
name = above;
pos = (175,875);
},
{
name = lowerRight;
pos = (280,0);
}
);
hints = (
{
origin = (0,3);
target = (0,0);
type = Stem;
}
);
layerId = "E82D559A-267E-4BF3-BBA1-0778DA3FF57C";
shapes = (
{
closed = 1;
nodes = (
(245,0,l),
(245,700,l),
(105,700,l),
(105,0,l)
);
},
{
closed = 1;
nodes = (
(280,0,l),
(280,70,l),
(70,70,l),
(70,0,l)
);
},
{
closed = 1;
nodes = (
(280,630,l),
(280,700,l),
(70,700,l),
(70,630,l)
);
}
);
width = 350;
},
{
anchors = (
{
name = above;
pos = (210,875);
},
{
name = lowerRight;
pos = (350,0);
}
);
layerId = "B8F43E33-4D80-4AEE-B4E2-DC92E4FCAAE5";
shapes = (
{
closed = 1;
nodes = (
(280,0,l),
(280,700,l),
(140,700,l),
(140,0,l)
);
},
{
closed = 1;
nodes = (
(350,0,l),
(350,70,l),
(70,70,l),
(70,0,l)
);
},
{
closed = 1;
nodes = (
(350,630,l),
(350,700,l),
(70,700,l),
(70,630,l)
);
}
);
width = 420;
},
{
anchors = (
{
name = above;
pos = (308,875);
},
{
name = lowerRight;
pos = (227,0);
}
);
layerId = "198E78DA-6138-42C0-8847-C36925CEE918";
shapes = (
{
closed = 1;
nodes = (
(192,0,l),
(341,700,l),
(201,700,l),
(52,0,l)
);
},
{
closed = 1;
nodes = (
(227,0,l),
(242,70,l),
(32,70,l),
(17,0,l)
);
},
{
closed = 1;
nodes = (
(361,630,l),
(376,700,l),
(166,700,l),
(151,630,l)
);
}
);
width = 350;
},
{
anchors = (
{
name = above;
pos = (175,875);
},
{
name = lowerRight;
pos = (279,0);
}
);
layerId = "E0F5E986-8A77-409E-9DB3-A90D066F072F";
shapes = (
{
closed = 1;
nodes = (
(210,0,l),
(210,700,l),
(140,700,l),
(140,0,l)
);
},
{
closed = 1;
nodes = (
(280,0,l),
(280,70,l),
(70,70,l),
(70,0,l)
);
},
{
closed = 1;
nodes = (
(280,630,l),
(280,700,l),
(70,700,l),
(70,630,l)
);
}
);
width = 350;
},
{
anchors = (
{
name = above;
pos = (175,875);
},
{
name = lowerRight;
pos = (280,0);
}
);
hints = (
{
origin = (0,3);
target = (0,0);
type = Stem;
}
);
layerId = "671D7F47-0040-4C88-995A-F1154CC787CA";
shapes = (
{
closed = 1;
nodes = (
(210,0,l),
(210,700,l),
(140,700,l),
(140,0,l)
);
},
{
closed = 1;
nodes = (
(280,0,l),
(280,70,l),
(70,70,l),
(70,0,l)
);
},
{
closed = 1;
nodes = (
(280,630,l),
(280,700,l),
(70,700,l),
(70,630,l)
);
}
);
width = 350;
},
{
anchors = (
{
name = above;
pos = (308,875);
},
{
name = lowerRight;
pos = (227,0);
}
);
hints = (
{
origin = (0,3);
target = (0,0);
type = Stem;
}
);
layerId = "69FAE2FB-B0EC-4DE1-A39D-F4FC44956106";
shapes = (
{
closed = 1;
nodes = (
(157,0,l),
(306,700,l),
(236,700,l),
(87,0,l)
);
},
{
closed = 1;
nodes = (
(227,0,l),
(242,70,l),
(32,70,l),
(17,0,l)
);
},
{
closed = 1;
nodes = (
(361,630,l),
(376,700,l),
(166,700,l),
(151,630,l)
);
}
);
width = 350;
}
);
metricLeft = H;
metricRight = H;
},
{
glyphname = napostrophe;
lastChange = "2019-06-02 13:50:11 +0000";
layers = (
{
layerId = "E82D559A-267E-4BF3-BBA1-0778DA3FF57C";
shapes = (
{
closed = 1;
nodes = (
(147,560,l),
(147,700,l),
(35,700,l),
(35,588,l),
(91,588,l),
(35,546,l),
(69,502,l)
);
},
{
pos = (147,0);
ref = N;
}
);
width = 907;
},
{
layerId = "B8F43E33-4D80-4AEE-B4E2-DC92E4FCAAE5";
shapes = (
{
closed = 1;
nodes = (
(147,560,l),
(147,700,l),
(35,700,l),
(35,588,l),
(91,588,l),
(35,546,l),
(69,502,l)
);
},
{
pos = (147,0);
ref = N;
}
);
width = 1247;
},
{
layerId = "198E78DA-6138-42C0-8847-C36925CEE918";
shapes = (
{
closed = 1;
nodes = (
(214,560,l),
(243,700,l),
(131,700,l),
(107,588,l),
(162,588,l),
(99,546,l),
(125,502,l)
);
},
{
pos = (146,0);
ref = N;
}
);
width = 906;
},
{
layerId = "E0F5E986-8A77-409E-9DB3-A90D066F072F";
shapes = (
{
closed = 1;
nodes = (
(131,574,l),
(131,700,l),
(35,700,l),
(35,604,l),
(88,604,l),
(37,566,l),
(67,526,l)
);
},
{
alignment = -1;
pos = (131,0);
ref = N;
}
);
width = 891;
},
{
layerId = "671D7F47-0040-4C88-995A-F1154CC787CA";
shapes = (
{
closed = 1;
nodes = (
(131,574,l),
(131,700,l),
(35,700,l),
(35,604,l),
(88,604,l),
(37,566,l),
(67,526,l)
);
},
{
alignment = -1;
pos = (131,0);
ref = N;
}
);
width = 1207.66667;
},
{
layerId = "69FAE2FB-B0EC-4DE1-A39D-F4FC44956106";
shapes = (
{
closed = 1;
nodes = (
(201,574,l),
(230,700,l),
(134,700,l),
(110,604,l),
(162,604,l),
(104,566,l),
(126,526,l)
);
},
{
alignment = -1;
pos = (133,0);
ref = N;
}
);
width = 907;
}
);
metricRight = N;
unicode = 329;
},
{
glyphname = ordmasculine;
lastChange = "2019-06-02 00:52:56 +0000";
layers = (
{
layerId = "E82D559A-267E-4BF3-BBA1-0778DA3FF57C";
shapes = (
{
closed = 1;
nodes = (
(295,370,l),
(375,410,l),
(375,660,l),
(295,700,l),
(150,700,l),
(70,660,l),
(70,410,l),
(150,370,l)
);
},
{
closed = 1;
nodes = (
(375,230,l),
(375,300,l),
(70,300,l),
(70,230,l)
);
},
{
closed = 1;
nodes = (
(150,632,l),
(130,620,l),
(315,620,l),
(295,632,l),
(295,438,l),
(315,450,l),
(130,450,l),
(150,438,l)
);
}
);
width = 445;
},
{
layerId = "B8F43E33-4D80-4AEE-B4E2-DC92E4FCAAE5";
shapes = (
{
closed = 1;
nodes = (
(295,370,l),
(375,410,l),
(375,660,l),
(295,700,l),
(150,700,l),
(70,660,l),
(70,410,l),
(150,370,l)
);
},
{
closed = 1;
nodes = (
(375,230,l),
(375,300,l),
(70,300,l),
(70,230,l)
);
},
{
closed = 1;
nodes = (
(150,632,l),
(130,620,l),
(315,620,l),
(295,632,l),
(295,438,l),
(315,450,l),
(130,450,l),
(150,438,l)
);
}
);
width = 445;
},
{
layerId = "198E78DA-6138-42C0-8847-C36925CEE918";
shapes = (
{
closed = 1;
nodes = (
(321,370,l),
(409,410,l),
(462,660,l),
(391,700,l),
(246,700,l),
(157,660,l),
(104,410,l),
(176,370,l)
);
},
{
closed = 1;
nodes = (
(371,230,l),
(386,300,l),
(81,300,l),
(66,230,l)
);
},
{
closed = 1;
nodes = (
(231,632,l),
(209,620,l),
(394,620,l),
(376,632,l),
(335,438,l),
(358,450,l),
(173,450,l),
(190,438,l)
);
}
);
width = 445;
},
{
layerId = "E0F5E986-8A77-409E-9DB3-A90D066F072F";
shapes = (
{
closed = 1;
nodes = (
(295,370,l),
(375,410,l),
(375,660,l),
(295,700,l),
(150,700,l),
(70,660,l),
(70,410,l),
(150,370,l)
);
},
{
closed = 1;
nodes = (
(375,230,l),
(375,300,l),
(70,300,l),
(70,230,l)
);
},
{
closed = 1;
nodes = (
(140,642,l),
(120,630,l),
(325,630,l),
(305,642,l),
(305,428,l),
(325,440,l),
(120,440,l),
(140,428,l)
);
}
);
width = 445;
},
{
layerId = "671D7F47-0040-4C88-995A-F1154CC787CA";
shapes = (
{
closed = 1;
nodes = (
(295,370,l),
(375,410,l),
(375,660,l),
(295,700,l),
(150,700,l),
(70,660,l),
(70,410,l),
(150,370,l)
);
},
{
closed = 1;
nodes = (
(375,230,l),
(375,300,l),
(70,300,l),
(70,230,l)
);
},
{
closed = 1;
nodes = (
(140,642,l),
(120,630,l),
(325,630,l),
(305,642,l),
(305,428,l),
(325,440,l),
(120,440,l),
(140,428,l)
);
}
);
width = 445;
},
{
layerId = "69FAE2FB-B0EC-4DE1-A39D-F4FC44956106";
shapes = (
{
closed = 1;
nodes = (
(321,370,l),
(409,410,l),
(462,660,l),
(391,700,l),
(246,700,l),
(157,660,l),
(104,410,l),
(176,370,l)
);
},
{
closed = 1;
nodes = (
(371,230,l),
(386,300,l),
(81,300,l),
(66,230,l)
);
},
{
closed = 1;
nodes = (
(221,642,l),
(199,630,l),
(404,630,l),
(386,642,l),
(345,428,l),
(368,440,l),
(163,440,l),
(180,428,l)
);
}
);
width = 445;
}
);
unicode = 186;
},
{
glyphname = zero;
lastChange = "2019-06-02 22:25:22 +0000";
layers = (
{
hints = (
{
horizontal = 1;
place = (0, 140);
place = (0, 140);
type = Stem;
},
{
horizontal = 1;
place = (560, 140);
place = (560, 140);
type = Stem;
},
{
place = (70, 140);
place = (70, 140);
type = Stem;
},
{
place = (525, 140);
place = (525, 140);
type = Stem;
},
{
horizontal = 1;
origin = (0,7);
target = (1,0);
type = Stem;
},
{
horizontal = 1;
origin = (1,2);
target = (0,4);
type = Stem;
},
{
origin = (0,6);
target = (0,7);
type = Stem;
},
{
origin = (0,0);
target = (0,1);
type = Stem;
}
);
layerId = "E82D559A-267E-4BF3-BBA1-0778DA3FF57C";
shapes = (
{
closed = 1;
nodes = (
(525,0,l),
(665,70,l),
(665,630,l),
(525,700,l),
(210,700,l),
(70,630,l),
(70,70,l),
(210,0,l)
);
},
{
closed = 1;
nodes = (
(210,140,l),
(210,560,l),
(210,560,l),
(525,560,l),
(525,560,l),
(525,140,l),
(525,140,l),
(210,140,l)
);
}
);
width = 735;
},
{
hints = (
{
horizontal = 1;
origin = (0,7);
target = (1,0);
type = Stem;
},
{
horizontal = 1;
origin = (1,2);
target = (0,4);
type = Stem;
},
{
origin = (0,6);
target = (0,7);
type = Stem;
},
{
origin = (0,0);
target = (0,1);
type = Stem;
}
);
layerId = "B8F43E33-4D80-4AEE-B4E2-DC92E4FCAAE5";
shapes = (
{
closed = 1;
nodes = (
(963,0,l),
(1103,70,l),
(1103,630,l),
(963,700,l),
(210,700,l),
(70,630,l),
(70,70,l),
(210,0,l)
);
},
{
closed = 1;
nodes = (
(210,140,l),
(210,560,l),
(210,560,l),
(963,560,l),
(963,560,l),
(963,140,l),
(963,140,l),
(210,140,l)
);
}
);
width = 1173;
},
{
hints = (
{
horizontal = 1;
origin = (0,7);
target = (1,0);
type = Stem;
},
{
horizontal = 1;
origin = (1,3);
target = (0,4);
type = Stem;
}
);
layerId = "198E78DA-6138-42C0-8847-C36925CEE918";
shapes = (
{
closed = 1;
nodes = (
(474,0,l),
(628,70,l),
(746,630,l),
(621,700,l),
(306,700,l),
(151,630,l),
(33,70,l),
(159,0,l)
);
},
{
closed = 1;
nodes = (
(188,140,l),
(277,560,l),
(277,560,l),
(592,560,l),
(592,560,l),
(503,140,l),
(503,140,l),
(188,140,l)
);
}
);
width = 736;
},
{
hints = (
{
horizontal = 1;
place = (630, 70);
place = (630, 70);
type = Stem;
},
{
horizontal = 1;
place = (0, 70);
place = (0, 70);
type = Stem;
},
{
place = (70, 70);
place = (70, 70);
type = Stem;
},
{
place = (595, 70);
place = (595, 70);
type = Stem;
},
{
horizontal = 1;
origin = (1,2);
target = (0,4);
type = Stem;
},
{
horizontal = 1;
origin = (0,7);
target = (1,7);
type = Stem;
},
{
origin = (0,6);
target = (1,0);
type = Stem;
},
{
origin = (1,5);
target = (0,1);
type = Stem;
}
);
layerId = "E0F5E986-8A77-409E-9DB3-A90D066F072F";
shapes = (
{
closed = 1;
nodes = (
(525,0,l),
(665,70,l),
(665,630,l),
(525,700,l),
(210,700,l),
(70,630,l),
(70,70,l),
(210,0,l)
);
},
{
closed = 1;
nodes = (
(140,113,l),
(140,587,l),
(227,630,l),
(508,630,l),
(595,587,l),
(595,113,l),
(508,70,l),
(227,70,l)
);
}
);
width = 735;
},
{
hints = (
{
horizontal = 1;
origin = (0,7);
target = (0,6);
type = Stem;
},
{
horizontal = 1;
origin = (0,4);
target = (0,5);
type = Stem;
},
{
origin = (0,6);
target = (1,0);
type = Stem;
},
{
origin = (1,5);
target = (0,1);
type = Stem;
}
);
layerId = "671D7F47-0040-4C88-995A-F1154CC787CA";
shapes = (
{
closed = 1;
nodes = (
(963,0,l),
(1103,70,l),
(1103,630,l),
(963,700,l),
(210,700,l),
(70,630,l),
(70,70,l),
(210,0,l)
);
},
{
closed = 1;
nodes = (
(140,113,l),
(140,587,l),
(227,630,l),
(946,630,l),
(1033,587,l),
(1033,113,l),
(946,70,l),
(227,70,l)
);
}
);
width = 1173;
},
{
hints = (
{
horizontal = 1;
origin = (0,6);
target = (0,7);
type = Stem;
},
{
horizontal = 1;
origin = (0,4);
target = (0,5);
type = Stem;
}
);
layerId = "69FAE2FB-B0EC-4DE1-A39D-F4FC44956106";
shapes = (
{
closed = 1;
nodes = (
(474,0,l),
(628,70,l),
(746,630,l),
(621,700,l),
(306,700,l),
(151,630,l),
(33,70,l),
(159,0,l)
);
},
{
closed = 1;
nodes = (
(112,106,l),
(212,581,l),
(321,630,l),
(603,630,l),
(667,594,l),
(567,119,l),
(459,70,l),
(177,70,l)
);
}
);
width = 736;
}
);
unicode = 48;
},
{
glyphname = one;
lastChange = "2019-06-02 00:52:56 +0000";
layers = (
{
hints = (
{
origin = (0,3);
target = (0,0);
type = Stem;
}
);
layerId = "E82D559A-267E-4BF3-BBA1-0778DA3FF57C";
shapes = (
{
closed = 1;
nodes = (
(210,0,l),
(210,700,l),
(70,700,l),
(70,0,l)
);
}
);
width = 280;
},
{
layerId = "B8F43E33-4D80-4AEE-B4E2-DC92E4FCAAE5";
shapes = (
{
closed = 1;
nodes = (
(210,0,l),
(210,700,l),
(70,700,l),
(70,0,l)
);
}
);
width = 280;
},
{
layerId = "198E78DA-6138-42C0-8847-C36925CEE918";
shapes = (
{
closed = 1;
nodes = (
(157,0,l),
(306,700,l),
(166,700,l),
(17,0,l)
);
}
);
width = 280;
},
{
layerId = "E0F5E986-8A77-409E-9DB3-A90D066F072F";
shapes = (
{
closed = 1;
nodes = (
(140,0,l),
(140,700,l),
(70,700,l),
(70,0,l)
);
}
);
width = 210;
},
{
hints = (
{
origin = (0,3);
target = (0,0);
type = Stem;
}
);
layerId = "671D7F47-0040-4C88-995A-F1154CC787CA";
shapes = (
{
closed = 1;
nodes = (
(140,0,l),
(140,700,l),
(70,700,l),
(70,0,l)
);
}
);
width = 210;
},
{
hints = (
{
origin = (0,3);
target = (0,0);
type = Stem;
}
);
layerId = "69FAE2FB-B0EC-4DE1-A39D-F4FC44956106";
shapes = (
{
closed = 1;
nodes = (
(87,0,l),
(236,700,l),
(166,700,l),
(17,0,l)
);
}
);
width = 210;
}
);
unicode = 49;
},
{
glyphname = two;
lastChange = "2019-06-02 23:56:27 +0000";
layers = (
{
layerId = "E82D559A-267E-4BF3-BBA1-0778DA3FF57C";
shapes = (
{
closed = 1;
nodes = (
(210,0,l),
(210,280,l),
(210,280,l),
(525,280,l),
(665,350,l),
(665,630,l),
(525,700,l),
(210,700,l),
(70,630,l),
(70,490,l),
(210,490,l),
(210,560,l),
(210,560,l),
(525,560,l),
(525,560,l),
(525,420,l),
(525,420,l),
(210,420,l),
(70,350,l),
(70,0,l)
);
},
{
closed = 1;
nodes = (
(665,0,l),
(665,140,l),
(140,140,l),
(140,0,l)
);
}
);
width = 735;
},
{
layerId = "B8F43E33-4D80-4AEE-B4E2-DC92E4FCAAE5";
shapes = (
{
closed = 1;
nodes = (
(210,0,l),
(210,280,l),
(210,280,l),
(788,280,l),
(928,350,l),
(928,630,l),
(788,700,l),
(210,700,l),
(70,630,l),
(70,490,l),
(210,490,l),
(210,560,l),
(210,560,l),
(788,560,l),
(788,560,l),
(788,420,l),
(788,420,l),
(210,420,l),
(70,350,l),
(70,0,l)
);
},
{
closed = 1;
nodes = (
(928,0,l),
(928,140,l),
(140,140,l),
(140,0,l)
);
}
);
width = 998;
},
{
layerId = "198E78DA-6138-42C0-8847-C36925CEE918";
shapes = (
{
closed = 1;
nodes = (
(157,0,l),
(216,280,l),
(216,280,l),
(531,280,l),
(686,350,l),
(746,630,l),
(620,700,l),
(305,700,l),
(151,630,l),
(121,490,l),
(261,490,l),
(276,560,l),
(276,560,l),
(591,560,l),
(591,560,l),
(561,420,l),
(561,420,l),
(246,420,l),
(91,350,l),
(17,0,l)
);
},
{
closed = 1;
nodes = (
(612,0,l),
(641,140,l),
(116,140,l),
(87,0,l)
);
}
);
width = 735;
},
{
layerId = "E0F5E986-8A77-409E-9DB3-A90D066F072F";
shapes = (
{
closed = 1;
nodes = (
(140,0,l),
(140,272,l),
(227,315,l),
(525,315,l),
(665,385,l),
(665,630,l),
(525,700,l),
(210,700,l),
(70,630,l),
(70,490,l),
(140,490,l),
(140,587,l),
(227,630,l),
(508,630,l),
(595,587,l),
(595,428,l),
(508,385,l),
(210,385,l),
(70,315,l),
(70,0,l)
);
},
{
closed = 1;
nodes = (
(665,0,l),
(665,70,l),
(105,70,l),
(105,0,l)
);
}
);
width = 735;
},
{
layerId = "671D7F47-0040-4C88-995A-F1154CC787CA";
shapes = (
{
closed = 1;
nodes = (
(140,0,l),
(140,272,l),
(227,315,l),
(788,315,l),
(928,385,l),
(928,630,l),
(788,700,l),
(210,700,l),
(70,630,l),
(70,490,l),
(140,490,l),
(140,587,l),
(227,630,l),
(771,630,l),
(858,587,l),
(858,428,l),
(771,385,l),
(210,385,l),
(70,315,l),
(70,0,l)
);
},
{
closed = 1;
nodes = (
(928,0,l),
(928,70,l),
(105,70,l),
(105,0,l)
);
}
);
width = 998.33333;
},
{
layerId = "69FAE2FB-B0EC-4DE1-A39D-F4FC44956106";
shapes = (
{
closed = 1;
nodes = (
(89,0,l),
(144,265,l),
(254,315,l),
(539,315,l),
(694,385,l),
(746,630,l),
(620,700,l),
(305,700,l),
(151,630,l),
(121,490,l),
(192,490,l),
(212,581,l),
(320,630,l),
(602,630,l),
(665,595,l),
(634,435,l),
(524,385,l),
(239,385,l),
(84,315,l),
(17,0,l)
);
},
{
closed = 1;
nodes = (
(613,0,l),
(627,70,l),
(67,70,l),
(53,0,l)
);
}
);
width = 736;
}
);
unicode = 50;
},
{
glyphname = three;
lastChange = "2019-06-03 00:02:32 +0000";
layers = (
{
hints = (
{
horizontal = 1;
origin = (0,29);
target = (0,24);
type = Stem;
},
{
horizontal = 1;
origin = (0,19);
target = (0,18);
type = Stem;
},
{
horizontal = 1;
origin = (0,13);
target = (0,8);
type = Stem;
},
{
origin = (0,28);
target = (0,29);
type = Stem;
},
{
origin = (0,22);
target = (0,1);
type = Stem;
}
);
layerId = "E82D559A-267E-4BF3-BBA1-0778DA3FF57C";
shapes = (
{
closed = 1;
nodes = (
(525,0,l),
(665,70,l),
(665,280,l),
(573,372,l),
(573,328,l),
(665,420,l),
(665,630,l),
(525,700,l),
(210,700,l),
(70,630,l),
(70,490,l),
(210,490,l),
(210,560,l),
(210,560,l),
(515,560,l),
(515,560,l),
(515,420,l),
(515,420,l),
(280,420,l),
(280,280,l),
(515,280,l),
(515,280,l),
(515,140,l),
(515,140,l),
(210,140,l),
(210,140,l),
(210,210,l),
(70,210,l),
(70,70,l),
(210,0,l)
);
}
);
width = 735;
},
{
layerId = "B8F43E33-4D80-4AEE-B4E2-DC92E4FCAAE5";
shapes = (
{
closed = 1;
nodes = (
(787.5,0,l),
(927.5,70,l),
(927.5,280,l),
(825.5,382,l),
(825.5,318,l),
(927.5,420,l),
(927.5,630,l),
(787.5,700,l),
(210,700,l),
(70,630,l),
(70,490,l),
(210,490,l),
(210,560,l),
(210,560,l),
(778,560,l),
(778,560,l),
(778,420,l),
(778,420,l),
(455,420,l),
(455,280,l),
(778,280,l),
(778,280,l),
(778,140,l),
(778,140,l),
(210,140,l),
(210,140,l),
(210,210,l),
(70,210,l),
(70,70,l),
(210,0,l)
);
}
);
width = 997.5;
},
{
layerId = "198E78DA-6138-42C0-8847-C36925CEE918";
shapes = (
{
closed = 1;
nodes = (
(474,0,l),
(628,70,l),
(671,280,l),
(591,382,l),
(580,318,l),
(703,420,l),
(746,630,l),
(621,700,l),
(306,700,l),
(151,630,l),
(122,490,l),
(262,490,l),
(277,560,l),
(277,560,l),
(582,560,l),
(582,560,l),
(553,420,l),
(553,420,l),
(317,420,l),
(288,280,l),
(522,280,l),
(522,280,l),
(493,140,l),
(493,140,l),
(188,140,l),
(188,140,l),
(203,210,l),
(63,210,l),
(33,70,l),
(159,0,l)
);
}
);
width = 737;
},
{
layerId = "E0F5E986-8A77-409E-9DB3-A90D066F072F";
shapes = (
{
closed = 1;
nodes = (
(525,0,l),
(665,70,l),
(665,280,l),
(563,382,l),
(563,318,l),
(665,420,l),
(665,630,l),
(525,700,l),
(210,700,l),
(70,630,l),
(70,490,l),
(140,490,l),
(140,587,l),
(227,630,l),
(515,630,l),
(595,591,l),
(595,450,l),
(530,385,l),
(280,385,l),
(280,315,l),
(530,315,l),
(595,250,l),
(595,110,l),
(515,70,l),
(227,70,l),
(140,113,l),
(140,210,l),
(70,210,l),
(70,70,l),
(210,0,l)
);
}
);
width = 735;
},
{
hints = (
{
horizontal = 1;
origin = (0,29);
target = (0,24);
type = Stem;
},
{
horizontal = 1;
origin = (0,19);
target = (0,18);
type = Stem;
},
{
horizontal = 1;
origin = (0,13);
target = (0,8);
type = Stem;
},
{
origin = (0,28);
target = (0,29);
type = Stem;
},
{
origin = (0,22);
target = (0,1);
type = Stem;
}
);
layerId = "671D7F47-0040-4C88-995A-F1154CC787CA";
shapes = (
{
closed = 1;
nodes = (
(787,0,l),
(928,70,l),
(928,280,l),
(826,382,l),
(826,318,l),
(928,420,l),
(928,630,l),
(787,700,l),
(210,700,l),
(70,630,l),
(70,490,l),
(140,490,l),
(140,587,l),
(227,630,l),
(778,630,l),
(858,591,l),
(858,450,l),
(793,385,l),
(455,385,l),
(455,315,l),
(793,315,l),
(858,250,l),
(858,110,l),
(778,70,l),
(227,70,l),
(140,113,l),
(140,210,l),
(70,210,l),
(70,70,l),
(210,0,l)
);
}
);
width = 997.5;
},
{
hints = (
{
horizontal = 1;
origin = (0,14);
target = (0,13);
type = Stem;
},
{
horizontal = 1;
origin = (0,19);
target = (0,18);
type = Stem;
},
{
horizontal = 1;
origin = (0,26);
target = (0,25);
type = Stem;
},
{
origin = (0,13);
target = (0,14);
type = Stem;
},
{
origin = (0,22);
target = (0,16);
type = Stem;
}
);
layerId = "69FAE2FB-B0EC-4DE1-A39D-F4FC44956106";
shapes = (
{
closed = 1;
nodes = (
(474,0,l),
(628,70,l),
(671,280,l),
(589,384,l),
(582,320,l),
(703,420,l),
(746,630,l),
(621,700,l),
(306,700,l),
(151,630,l),
(122,490,l),
(194,490,l),
(212,581,l),
(321,630,l),
(603,630,l),
(667,594,l),
(639,458,l),
(550,385,l),
(311,385,l),
(297,315,l),
(555,315,l),
(596,262,l),
(567,119,l),
(459,70,l),
(177,70,l),
(112,106,l),
(134,210,l),
(63,210,l),
(33,70,l),
(159,0,l)
);
}
);
width = 737;
}
);
unicode = 51;
},
{
glyphname = four;
lastChange = "2019-06-03 01:07:42 +0000";
layers = (
{
hints = (
{
horizontal = 1;
origin = (0,4);
target = (0,7);
type = Stem;
},
{
origin = (0,11);
target = (0,0);
type = Stem;
}
);
layerId = "E82D559A-267E-4BF3-BBA1-0778DA3FF57C";
shapes = (
{
closed = 1;
nodes = (
(600,0,l),
(600,700,l),
(380,700,l),
(35,253,l),
(90,140,l),
(690,140,l),
(690,280,l),
(177,280,l),
(195,244,l),
(487,626,l),
(460,635,l),
(460,0,l)
);
}
);
width = 760;
},
{
layerId = "B8F43E33-4D80-4AEE-B4E2-DC92E4FCAAE5";
shapes = (
{
closed = 1;
nodes = (
(785,0,l),
(785,700,l),
(570,700,l),
(35,318,l),
(100,140,l),
(950,140,l),
(950,280,l),
(145,280,l),
(167,240,l),
(685,619,l),
(645,619,l),
(645,0,l)
);
}
);
width = 1020;
},
{
layerId = "198E78DA-6138-42C0-8847-C36925CEE918";
shapes = (
{
closed = 1;
nodes = (
(547,0,l),
(696,700,l),
(475,700,l),
(36,253,l),
(68,140,l),
(667,140,l),
(697,280,l),
(185,280,l),
(196,244,l),
(568,626,l),
(542,635,l),
(407,0,l)
);
}
);
width = 761;
},
{
layerId = "E0F5E986-8A77-409E-9DB3-A90D066F072F";
shapes = (
{
closed = 1;
nodes = (
(630,0,l),
(630,700,l),
(530,700,l),
(35,245,l),
(62,175,l),
(720,175,l),
(720,245,l),
(99,245,l),
(108,217,l),
(591,661,l),
(560,677,l),
(560,0,l)
);
}
);
width = 790;
},
{
hints = (
{
horizontal = 1;
origin = (0,4);
target = (0,7);
type = Stem;
},
{
origin = (0,11);
target = (0,0);
type = Stem;
}
);
layerId = "671D7F47-0040-4C88-995A-F1154CC787CA";
shapes = (
{
closed = 1;
nodes = (
(790,0,l),
(790,700,l),
(695,700,l),
(35,257,l),
(60,175,l),
(955,175,l),
(955,245,l),
(91,245,l),
(105,225,l),
(759,661,l),
(720,681,l),
(720,0,l)
);
}
);
width = 1025;
},
{
hints = (
{
horizontal = 1;
place = (175, 70);
place = (175, 70);
type = Stem;
},
{
place = (560, 70);
place = (560, 70);
type = Stem;
}
);
layerId = "69FAE2FB-B0EC-4DE1-A39D-F4FC44956106";
shapes = (
{
closed = 1;
nodes = (
(577,0,l),
(725,700,l),
(625,700,l),
(34,245,l),
(46,175,l),
(684,175,l),
(699,245,l),
(98,245,l),
(101,217,l),
(678,661,l),
(651,677,l),
(507,0,l)
);
}
);
width = 770;
}
);
unicode = 52;
},
{
glyphname = five;
lastChange = "2019-06-03 01:02:36 +0000";
layers = (
{
hints = (
{
horizontal = 1;
origin = (0,19);
target = (0,14);
type = Stem;
},
{
horizontal = 1;
origin = (0,9);
target = (0,4);
type = Stem;
},
{
horizontal = 1;
origin = (1,3);
target = (0,7);
type = Stem;
},
{
origin = (0,18);
target = (0,19);
type = Stem;
},
{
origin = (0,0);
target = (0,1);
type = Stem;
}
);
layerId = "E82D559A-267E-4BF3-BBA1-0778DA3FF57C";
shapes = (
{
closed = 1;
nodes = (
(525,0,l),
(665,70,l),
(665,385,l),
(525,455,l),
(210,455,l),
(210,455,l),
(210,700,l),
(70,700,l),
(70,385,l),
(210,315,l),
(525,315,l),
(525,315,l),
(525,140,l),
(525,140,l),
(210,140,l),
(210,140,l),
(210,210,l),
(70,210,l),
(70,70,l),
(210,0,l)
);
},
{
closed = 1;
nodes = (
(665,560,l),
(665,700,l),
(140,700,l),
(140,560,l)
);
}
);
width = 735;
},
{
layerId = "B8F43E33-4D80-4AEE-B4E2-DC92E4FCAAE5";
shapes = (
{
closed = 1;
nodes = (
(788,0,l),
(928,70,l),
(928,385,l),
(788,455,l),
(210,455,l),
(210,455,l),
(210,700,l),
(70,700,l),
(70,385,l),
(210,315,l),
(788,315,l),
(788,315,l),
(788,140,l),
(788,140,l),
(210,140,l),
(210,140,l),
(210,210,l),
(70,210,l),
(70,70,l),
(210,0,l)
);
},
{
closed = 1;
nodes = (
(928,560,l),
(928,700,l),
(140,700,l),
(140,560,l)
);
}
);
width = 997.5;
},
{
layerId = "198E78DA-6138-42C0-8847-C36925CEE918";
shapes = (
{
closed = 1;
nodes = (
(473,0,l),
(627,70,l),
(693,385,l),
(568,455,l),
(254,455,l),
(254,455,l),
(306,700,l),
(166,700,l),
(99,385,l),
(224,315,l),
(539,315,l),
(539,315,l),
(502,140,l),
(502,140,l),
(187,140,l),
(187,140,l),
(202,210,l),
(62,210,l),
(32,70,l),
(158,0,l)
);
},
{
closed = 1;
nodes = (
(731,560,l),
(761,700,l),
(236,700,l),
(206,560,l)
);
}
);
width = 735;
},
{
layerId = "E0F5E986-8A77-409E-9DB3-A90D066F072F";
shapes = (
{
closed = 1;
nodes = (
(525,0,l),
(665,70,l),
(665,385,l),
(525,455,l),
(119,455,l),
(140,435,l),
(140,700,l),
(70,700,l),
(70,385,l),
(70,385,l),
(508,385,l),
(595,342,l),
(595,113,l),
(508,70,l),
(227,70,l),
(140,113,l),
(140,210,l),
(70,210,l),
(70,70,l),
(210,0,l)
);
},
{
closed = 1;
nodes = (
(665,630,l),
(665,700,l),
(105,700,l),
(105,630,l)
);
}
);
width = 735;
},
{
hints = (
{
horizontal = 1;
origin = (0,19);
target = (0,14);
type = Stem;
},
{
horizontal = 1;
origin = (0,9);
target = (0,4);
type = Stem;
},
{
horizontal = 1;
origin = (1,3);
target = (0,7);
type = Stem;
},
{
origin = (0,11);
target = (0,12);
type = Stem;
},
{
origin = (0,1);
target = (0,2);
type = Stem;
},
{
origin = (0,12);
target = (0,1);
type = Stem;
},
{
origin = (0,17);
target = (0,16);
type = Stem;
}
);
layerId = "671D7F47-0040-4C88-995A-F1154CC787CA";
shapes = (
{
closed = 1;
nodes = (
(788,0,l),
(928,70,l),
(928,385,l),
(788,455,l),
(119,455,l),
(140,435,l),
(140,700,l),
(70,700,l),
(70,385,l),
(70,385,l),
(771,385,l),
(858,342,l),
(858,113,l),
(771,70,l),
(227,70,l),
(140,113,l),
(140,210,l),
(70,210,l),
(70,70,l),
(210,0,l)
);
},
{
closed = 1;
nodes = (
(928,630,l),
(928,700,l),
(105,700,l),
(105,630,l)
);
}
);
width = 997.5;
},
{
hints = (
{
horizontal = 1;
origin = (0,19);
target = (0,18);
type = Stem;
},
{
horizontal = 1;
origin = (0,4);
target = (0,8);
type = Stem;
},
{
horizontal = 1;
origin = (0,7);
target = (1,3);
type = Stem;
}
);
layerId = "69FAE2FB-B0EC-4DE1-A39D-F4FC44956106";
shapes = (
{
closed = 1;
nodes = (
(473,0,l),
(627,70,l),
(694,385,l),
(568,455,l),
(185,455,l),
(185,455,l),
(237,700,l),
(166,700,l),
(99,385,l),
(99,385,l),
(550,385,l),
(614,349,l),
(566,119,l),
(458,70,l),
(176,70,l),
(111,106,l),
(133,210,l),
(62,210,l),
(32,70,l),
(158,0,l)
);
},
{
closed = 1;
nodes = (
(747,630,l),
(761,700,l),
(201,700,l),
(171,630,l)
);
}
);
width = 736;
}
);
unicode = 53;
},
{
glyphname = six;
lastChange = "2019-06-03 01:15:48 +0000";
layers = (
{
hints = (
{
horizontal = 1;
origin = (0,23);
target = (0,10);
type = Stem;
},
{
horizontal = 1;
origin = (0,5);
target = (0,4);
type = Stem;
},
{
horizontal = 1;
origin = (0,13);
target = (0,20);
type = Stem;
},
{
origin = (0,22);
target = (0,23);
type = Stem;
},
{
origin = (0,0);
target = (0,1);
type = Stem;
}
);
layerId = "E82D559A-267E-4BF3-BBA1-0778DA3FF57C";
shapes = (
{
closed = 1;
nodes = (
(525,0,l),
(665,70,l),
(665,350,l),
(525,420,l),
(140,420,l),
(140,280,l),
(525,280,l),
(525,280,l),
(525,140,l),
(525,140,l),
(210,140,l),
(210,140,l),
(210,560,l),
(210,560,l),
(525,560,l),
(525,560,l),
(525,525,l),
(665,525,l),
(665,630,l),
(525,700,l),
(210,700,l),
(70,630,l),
(70,70,l),
(210,0,l)
);
}
);
width = 735;
},
{
hints = (
{
horizontal = 1;
origin = (0,23);
target = (0,10);
type = Stem;
},
{
horizontal = 1;
origin = (0,5);
target = (0,4);
type = Stem;
},
{
horizontal = 1;
origin = (0,20);
target = (0,12);
type = Stem;
},
{
origin = (0,22);
target = (0,23);
type = Stem;
},
{
origin = (0,0);
target = (0,1);
type = Stem;
}
);
layerId = "B8F43E33-4D80-4AEE-B4E2-DC92E4FCAAE5";
shapes = (
{
closed = 1;
nodes = (
(787,0,l),
(927,70,l),
(927,350,l),
(787,420,l),
(140,420,l),
(140,280,l),
(787,280,l),
(787,280,l),
(787,140,l),
(787,140,l),
(210,140,l),
(210,140,l),
(210,560,l),
(210,560,l),
(787,560,l),
(787,560,l),
(787,525,l),
(927,525,l),
(927,630,l),
(787,700,l),
(210,700,l),
(70,630,l),
(70,70,l),
(210,0,l)
);
}
);
width = 997;
},
{
hints = (
{
horizontal = 1;
origin = (0,23);
target = (0,10);
type = Stem;
},
{
horizontal = 1;
origin = (0,5);
target = (0,4);
type = Stem;
},
{
horizontal = 1;
origin = (0,20);
target = (0,12);
type = Stem;
}
);
layerId = "198E78DA-6138-42C0-8847-C36925CEE918";
shapes = (
{
closed = 1;
nodes = (
(474,0,l),
(628,70,l),
(687,350,l),
(562,420,l),
(177,420,l),
(148,280,l),
(532,280,l),
(532,280,l),
(503,140,l),
(503,140,l),
(188,140,l),
(188,140,l),
(277,560,l),
(277,560,l),
(592,560,l),
(592,560,l),
(585,525,l),
(725,525,l),
(746,630,l),
(621,700,l),
(306,700,l),
(151,630,l),
(33,70,l),
(159,0,l)
);
}
);
width = 737;
},
{
hints = (
{
horizontal = 1;
origin = (0,23);
target = (0,22);
type = Stem;
},
{
horizontal = 1;
origin = (0,5);
target = (0,4);
type = Stem;
},
{
horizontal = 1;
origin = (0,20);
target = (0,21);
type = Stem;
},
{
origin = (0,22);
target = (0,11);
type = Stem;
},
{
origin = (0,8);
target = (0,1);
type = Stem;
}
);
layerId = "E0F5E986-8A77-409E-9DB3-A90D066F072F";
shapes = (
{
closed = 1;
nodes = (
(525,0,l),
(665,70,l),
(665,315,l),
(525,385,l),
(124,385,l),
(124,315,l),
(508,315,l),
(595,272,l),
(595,113,l),
(508,70,l),
(227,70,l),
(140,113,l),
(140,587,l),
(227,630,l),
(508,630,l),
(595,587,l),
(595,490,l),
(665,490,l),
(665,630,l),
(525,700,l),
(210,700,l),
(70,630,l),
(70,70,l),
(210,0,l)
);
}
);
width = 735;
},
{
hints = (
{
horizontal = 1;
origin = (0,23);
target = (0,10);
type = Stem;
},
{
horizontal = 1;
origin = (0,5);
target = (0,4);
type = Stem;
},
{
horizontal = 1;
origin = (0,13);
target = (0,20);
type = Stem;
},
{
origin = (0,16);
target = (0,17);
type = Stem;
},
{
origin = (0,22);
target = (0,11);
type = Stem;
}
);
layerId = "671D7F47-0040-4C88-995A-F1154CC787CA";
shapes = (
{
closed = 1;
nodes = (
(787,0,l),
(927,70,l),
(927,315,l),
(787,385,l),
(105,385,l),
(105,315,l),
(770,315,l),
(857,272,l),
(857,113,l),
(770,70,l),
(227,70,l),
(140,113,l),
(140,587,l),
(227,630,l),
(770,630,l),
(857,587,l),
(857,490,l),
(927,490,l),
(927,630,l),
(787,700,l),
(210,700,l),
(70,630,l),
(70,70,l),
(210,0,l)
);
}
);
width = 997;
},
{
hints = (
{
horizontal = 1;
place = (0, 70);
place = (0, 70);
type = Stem;
},
{
horizontal = 1;
place = (315, 70);
place = (315, 70);
type = Stem;
},
{
horizontal = 1;
place = (630, 70);
place = (630, 70);
type = Stem;
}
);
layerId = "69FAE2FB-B0EC-4DE1-A39D-F4FC44956106";
shapes = (
{
closed = 1;
nodes = (
(473,0,l),
(627,70,l),
(680,315,l),
(554,385,l),
(134,385,l),
(120,315,l),
(523,315,l),
(600,272,l),
(567,113,l),
(470,70,l),
(189,70,l),
(112,113,l),
(212,587,l),
(309,630,l),
(590,630,l),
(667,587,l),
(647,490,l),
(717,490,l),
(747,630,l),
(621,700,l),
(306,700,l),
(152,630,l),
(32,70,l),
(158,0,l)
);
}
);
width = 736;
}
);
unicode = 54;
},
{
glyphname = seven;
lastChange = "2019-06-02 00:52:56 +0000";
layers = (
{
hints = (
{
horizontal = 1;
origin = (0,7);
target = (0,3);
type = Stem;
},
{
origin = (0,4);
target = (0,5);
type = Stem;
}
);
layerId = "E82D559A-267E-4BF3-BBA1-0778DA3FF57C";
shapes = (
{
closed = 1;
nodes = (
(379,0,l),
(664,582,l),
(606,700,l),
(70,700,l),
(70,490,l),
(210,490,l),
(210,605,l),
(165,560,l),
(541,560,l),
(516,600,l),
(222,0,l)
);
}
);
width = 699;
},
{
layerId = "B8F43E33-4D80-4AEE-B4E2-DC92E4FCAAE5";
shapes = (
{
closed = 1;
nodes = (
(432,0,l),
(979,642,l),
(926,700,l),
(70,700,l),
(70,490,l),
(210,490,l),
(210,605,l),
(165,560,l),
(761,560,l),
(746,595,l),
(235,0,l)
);
}
);
width = 1054;
},
{
layerId = "198E78DA-6138-42C0-8847-C36925CEE918";
shapes = (
{
closed = 1;
nodes = (
(327,0,l),
(735,582,l),
(701,700,l),
(166,700,l),
(121,490,l),
(261,490,l),
(285,605,l),
(230,560,l),
(606,560,l),
(588,600,l),
(168,0,l)
);
}
);
width = 734;
},
{
layerId = "E0F5E986-8A77-409E-9DB3-A90D066F072F";
shapes = (
{
closed = 1;
nodes = (
(319,0,l),
(665,633,l),
(632,700,l),
(70,700,l),
(70,490,l),
(140,490,l),
(140,675,l),
(95,630,l),
(627,630,l),
(603,666,l),
(239,0,l)
);
}
);
width = 700;
},
{
hints = (
{
horizontal = 1;
origin = (0,7);
target = (0,3);
type = Stem;
},
{
origin = (0,4);
target = (0,5);
type = Stem;
}
);
layerId = "671D7F47-0040-4C88-995A-F1154CC787CA";
shapes = (
{
closed = 1;
nodes = (
(326,0,l),
(953,693,l),
(925,700,l),
(70,700,l),
(70,490,l),
(140,490,l),
(140,675,l),
(95,630,l),
(800,630,l),
(786,661,l),
(192,0,l)
);
}
);
width = 1055;
},
{
hints = (
{
horizontal = 1;
origin = (0,7);
target = (0,3);
type = Stem;
},
{
origin = (0,4);
target = (0,5);
type = Stem;
}
);
layerId = "69FAE2FB-B0EC-4DE1-A39D-F4FC44956106";
shapes = (
{
closed = 1;
nodes = (
(267,0,l),
(736,633,l),
(727,700,l),
(166,700,l),
(121,490,l),
(191,490,l),
(215,675,l),
(160,630,l),
(692,630,l),
(675,666,l),
(185,0,l)
);
}
);
width = 735;
}
);
unicode = 55;
},
{
glyphname = eight;
lastChange = "2019-06-04 04:02:50 +0000";
layers = (
{
hints = (
{
horizontal = 1;
place = (0, 70);
place = (0, 70);
type = Stem;
},
{
horizontal = 1;
origin = (1,0);
target = (0,1);
type = Stem;
},
{
horizontal = 1;
origin = (2,0);
target = (0,15);
type = Stem;
},
{
origin = (0,1);
target = (2,6);
type = Stem;
},
{
origin = (1,2);
target = (0,12);
type = Stem;
}
);
layerId = "E82D559A-267E-4BF3-BBA1-0778DA3FF57C";
shapes = (
{
closed = 1;
nodes = (
(70,630,l),
(70,420,l),
(162,328,l),
(162,372,l),
(70,280,l),
(70,70,l),
(210,0,l),
(525,0,l),
(665,70,l),
(665,280,l),
(573,372,l),
(573,328,l),
(665,420,l),
(665,630,l),
(525,700,l),
(210,700,l)
);
},
{
closed = 1;
nodes = (
(220,280,l),
(515,280,l),
(515,280,l),
(515,140,l),
(515,140,l),
(220,140,l),
(220,140,l),
(220,280,l)
);
},
{
closed = 1;
nodes = (
(220,560,l),
(515,560,l),
(515,560,l),
(515,420,l),
(515,420,l),
(220,420,l),
(220,420,l),
(220,560,l)
);
}
);
width = 735;
},
{
layerId = "B8F43E33-4D80-4AEE-B4E2-DC92E4FCAAE5";
shapes = (
{
closed = 1;
nodes = (
(70,630,l),
(70,420,l),
(162,328,l),
(162,372,l),
(70,280,l),
(70,70,l),
(210,0,l),
(788,0,l),
(928,70,l),
(928,280,l),
(836,372,l),
(836,328,l),
(928,420,l),
(928,630,l),
(788,700,l),
(210,700,l)
);
},
{
closed = 1;
nodes = (
(220,280,l),
(778,280,l),
(778,280,l),
(778,140,l),
(778,140,l),
(220,140,l),
(220,140,l),
(220,280,l)
);
},
{
closed = 1;
nodes = (
(220,560,l),
(778,560,l),
(778,560,l),
(778,420,l),
(778,420,l),
(220,420,l),
(220,420,l),
(220,560,l)
);
}
);
width = 997.5;
},
{
layerId = "198E78DA-6138-42C0-8847-C36925CEE918";
shapes = (
{
closed = 1;
nodes = (
(152,630,l),
(107,420,l),
(181,325,l),
(186,370,l),
(77,280,l),
(32,70,l),
(158,0,l),
(473,0,l),
(627,70,l),
(672,280,l),
(598,375,l),
(593,330,l),
(702,420,l),
(747,630,l),
(621,700,l),
(306,700,l)
);
},
{
closed = 1;
nodes = (
(227,280,l),
(522,280,l),
(522,280,l),
(492,140,l),
(492,140,l),
(197,140,l),
(197,140,l),
(227,280,l)
);
},
{
closed = 1;
nodes = (
(287,560,l),
(582,560,l),
(582,560,l),
(552,420,l),
(552,420,l),
(257,420,l),
(257,420,l),
(287,560,l)
);
}
);
width = 736;
},
{
layerId = "E0F5E986-8A77-409E-9DB3-A90D066F072F";
shapes = (
{
closed = 1;
nodes = (
(70,630,l),
(70,420,l),
(172,318,l),
(172,382,l),
(70,280,l),
(70,70,l),
(210,0,l),
(525,0,l),
(665,70,l),
(665,280,l),
(563,382,l),
(563,318,l),
(665,420,l),
(665,630,l),
(525,700,l),
(210,700,l)
);
},
{
closed = 1;
nodes = (
(205,315,l),
(530,315,l),
(595,250,l),
(595,109,l),
(515,70,l),
(220,70,l),
(140,109,l),
(140,250,l)
);
},
{
closed = 1;
nodes = (
(220,630,l),
(515,630,l),
(595,591,l),
(595,450,l),
(530,385,l),
(205,385,l),
(140,450,l),
(140,591,l)
);
}
);
width = 735;
},
{
hints = (
{
horizontal = 1;
place = (0, 70);
place = (0, 70);
type = Stem;
},
{
horizontal = 1;
origin = (1,1);
target = (0,12);
type = Stem;
},
{
horizontal = 1;
origin = (0,13);
target = (0,14);
type = Stem;
},
{
origin = (0,12);
target = (2,4);
type = Stem;
},
{
origin = (1,0);
target = (0,1);
type = Stem;
}
);
layerId = "671D7F47-0040-4C88-995A-F1154CC787CA";
shapes = (
{
closed = 1;
nodes = (
(70,630,l),
(70,420,l),
(172,318,l),
(172,382,l),
(70,280,l),
(70,70,l),
(210,0,l),
(787,0,l),
(928,70,l),
(928,280,l),
(826,382,l),
(826,318,l),
(928,420,l),
(928,630,l),
(788,700,l),
(211,700,l)
);
},
{
closed = 1;
nodes = (
(204,315,l),
(794,315,l),
(858,251,l),
(858,113,l),
(771,70,l),
(227,70,l),
(140,113,l),
(140,251,l)
);
},
{
closed = 1;
nodes = (
(227,630,l),
(771,630,l),
(858,587,l),
(858,449,l),
(794,385,l),
(204,385,l),
(140,449,l),
(140,587,l)
);
}
);
width = 998;
},
{
hints = (
{
horizontal = 1;
place = (0, 70);
place = (0, 70);
type = Stem;
},
{
horizontal = 1;
origin = (1,0);
target = (0,6);
type = Stem;
},
{
horizontal = 1;
place = (700, -421);
place = (700, -421);
type = Stem;
}
);
layerId = "69FAE2FB-B0EC-4DE1-A39D-F4FC44956106";
shapes = (
{
closed = 1;
nodes = (
(151,630,l),
(108,420,l),
(191,317,l),
(198,381,l),
(76,280,l),
(33,70,l),
(159,0,l),
(474,0,l),
(628,70,l),
(671,279,l),
(590,385,l),
(582,320,l),
(703,420,l),
(746,630,l),
(621,700,l),
(306,700,l)
);
},
{
closed = 1;
nodes = (
(229,315,l),
(555,315,l),
(596,262,l),
(567,119,l),
(459,70,l),
(177,70,l),
(112,106,l),
(140,242,l)
);
},
{
closed = 1;
nodes = (
(321,630,l),
(603,630,l),
(667,594,l),
(639,458,l),
(550,385,l),
(226,385,l),
(183,438,l),
(212,581,l)
);
}
);
width = 737;
}
);
unicode = 56;
},
{
glyphname = nine;
lastChange = "2019-06-03 01:16:32 +0000";
layers = (
{
hints = (
{
horizontal = 1;
place = (0, 140);
place = (0, 140);
type = Stem;
},
{
horizontal = 1;
place = (280, 140);
place = (280, 140);
type = Stem;
},
{
horizontal = 1;
place = (560, 140);
place = (560, 140);
type = Stem;
},
{
place = (70, 140);
place = (70, 140);
type = Stem;
},
{
place = (525, 140);
place = (525, 140);
type = Stem;
},
{
horizontal = 1;
origin = (0,3);
target = (0,14);
type = Stem;
},
{
horizontal = 1;
origin = (0,9);
target = (0,8);
type = Stem;
},
{
horizontal = 1;
origin = (0,17);
target = (0,0);
type = Stem;
},
{
origin = (0,2);
target = (0,3);
type = Stem;
},
{
origin = (0,4);
target = (0,5);
type = Stem;
}
);
layerId = "E82D559A-267E-4BF3-BBA1-0778DA3FF57C";
shapes = (
{
closed = 1;
nodes = (
(525,0,l),
(665,70,l),
(665,630,l),
(525,700,l),
(210,700,l),
(70,630,l),
(70,350,l),
(210,280,l),
(595,280,l),
(595,420,l),
(210,420,l),
(210,420,l),
(210,560,l),
(210,560,l),
(525,560,l),
(525,560,l),
(525,140,l),
(525,140,l),
(210,140,l),
(210,140,l),
(210,175,l),
(70,175,l),
(70,70,l),
(210,0,l)
);
}
);
width = 735;
},
{
hints = (
{
horizontal = 1;
origin = (0,3);
target = (0,14);
type = Stem;
},
{
horizontal = 1;
origin = (0,9);
target = (0,8);
type = Stem;
},
{
horizontal = 1;
origin = (0,0);
target = (0,16);
type = Stem;
},
{
origin = (0,2);
target = (0,3);
type = Stem;
},
{
origin = (0,4);
target = (0,5);
type = Stem;
}
);
layerId = "B8F43E33-4D80-4AEE-B4E2-DC92E4FCAAE5";
shapes = (
{
closed = 1;
nodes = (
(787,0,l),
(927,70,l),
(927,630,l),
(787,700,l),
(210,700,l),
(70,630,l),
(70,350,l),
(210,280,l),
(857,280,l),
(857,420,l),
(210,420,l),
(210,420,l),
(210,560,l),
(210,560,l),
(787,560,l),
(787,560,l),
(787,140,l),
(787,140,l),
(210,140,l),
(210,140,l),
(210,175,l),
(70,175,l),
(70,70,l),
(210,0,l)
);
}
);
width = 997;
},
{
hints = (
{
horizontal = 1;
origin = (0,23);
target = (0,18);
type = Stem;
},
{
horizontal = 1;
origin = (0,7);
target = (0,10);
type = Stem;
},
{
horizontal = 1;
origin = (0,4);
target = (0,12);
type = Stem;
}
);
layerId = "198E78DA-6138-42C0-8847-C36925CEE918";
shapes = (
{
closed = 1;
nodes = (
(473,0,l),
(627,70,l),
(747,630,l),
(621,700,l),
(306,700,l),
(152,630,l),
(92,350,l),
(217,280,l),
(602,280,l),
(632,420,l),
(247,420,l),
(247,420,l),
(277,560,l),
(277,560,l),
(592,560,l),
(592,560,l),
(502,140,l),
(502,140,l),
(187,140,l),
(187,140,l),
(195,175,l),
(55,175,l),
(32,70,l),
(158,0,l)
);
}
);
width = 736;
},
{
hints = (
{
horizontal = 1;
origin = (0,3);
target = (0,2);
type = Stem;
},
{
horizontal = 1;
origin = (0,9);
target = (0,8);
type = Stem;
},
{
horizontal = 1;
origin = (0,0);
target = (0,1);
type = Stem;
},
{
origin = (0,2);
target = (0,15);
type = Stem;
},
{
origin = (0,12);
target = (0,5);
type = Stem;
}
);
layerId = "E0F5E986-8A77-409E-9DB3-A90D066F072F";
shapes = (
{
closed = 1;
nodes = (
(525,0,l),
(665,70,l),
(665,630,l),
(525,700,l),
(210,700,l),
(70,630,l),
(70,385,l),
(210,315,l),
(611,315,l),
(611,385,l),
(227,385,l),
(140,428,l),
(140,587,l),
(227,630,l),
(508,630,l),
(595,587,l),
(595,113,l),
(508,70,l),
(227,70,l),
(140,113,l),
(140,210,l),
(70,210,l),
(70,70,l),
(210,0,l)
);
}
);
width = 735;
},
{
hints = (
{
horizontal = 1;
place = (0, 70);
place = (0, 70);
type = Stem;
},
{
horizontal = 1;
place = (315, 70);
place = (315, 70);
type = Stem;
},
{
horizontal = 1;
place = (630, 70);
place = (630, 70);
type = Stem;
},
{
horizontal = 1;
origin = (0,3);
target = (0,14);
type = Stem;
},
{
horizontal = 1;
origin = (0,9);
target = (0,8);
type = Stem;
},
{
horizontal = 1;
origin = (0,17);
target = (0,0);
type = Stem;
},
{
origin = (0,20);
target = (0,21);
type = Stem;
},
{
origin = (0,2);
target = (0,15);
type = Stem;
}
);
layerId = "671D7F47-0040-4C88-995A-F1154CC787CA";
shapes = (
{
closed = 1;
nodes = (
(787,0,l),
(927,70,l),
(927,630,l),
(787,700,l),
(210,700,l),
(70,630,l),
(70,385,l),
(210,315,l),
(892,315,l),
(892,385,l),
(227,385,l),
(140,428,l),
(140,587,l),
(227,630,l),
(770,630,l),
(857,587,l),
(857,113,l),
(770,70,l),
(227,70,l),
(140,113,l),
(140,210,l),
(70,210,l),
(70,70,l),
(210,0,l)
);
}
);
width = 997;
},
{
hints = (
{
horizontal = 1;
place = (0, 70);
place = (0, 70);
type = Stem;
},
{
horizontal = 1;
place = (315, 70);
place = (315, 70);
type = Stem;
},
{
horizontal = 1;
place = (630, 70);
place = (630, 70);
type = Stem;
}
);
layerId = "69FAE2FB-B0EC-4DE1-A39D-F4FC44956106";
shapes = (
{
closed = 1;
nodes = (
(473,0,l),
(627,70,l),
(747,630,l),
(621,700,l),
(306,700,l),
(152,630,l),
(99,385,l),
(225,315,l),
(626,315,l),
(640,385,l),
(256,385,l),
(179,428,l),
(212,587,l),
(309,630,l),
(590,630,l),
(667,587,l),
(567,113,l),
(470,70,l),
(189,70,l),
(112,113,l),
(132,210,l),
(62,210,l),
(32,70,l),
(158,0,l)
);
}
);
width = 736;
}
);
unicode = 57;
},
{
glyphname = one.ss01;
lastChange = "2019-06-02 00:52:56 +0000";
layers = (
{
hints = (
{
origin = (0,3);
target = (0,0);
type = Stem;
}
);
layerId = "E82D559A-267E-4BF3-BBA1-0778DA3FF57C";
shapes = (
{
closed = 1;
nodes = (
(394,0,l),
(394,700,l),
(254,700,l),
(254,0,l)
);
},
{
closed = 1;
nodes = (
(127,465,l),
(394,700,l),
(182,700,l),
(35,570,l)
);
}
);
width = 464;
},
{
layerId = "B8F43E33-4D80-4AEE-B4E2-DC92E4FCAAE5";
shapes = (
{
closed = 1;
nodes = (
(465,0,l),
(465,700,l),
(325,700,l),
(325,0,l)
);
},
{
closed = 1;
nodes = (
(127,403,l),
(465,700,l),
(253,700,l),
(35,508,l)
);
}
);
width = 535;
},
{
layerId = "198E78DA-6138-42C0-8847-C36925CEE918";
shapes = (
{
closed = 1;
nodes = (
(341,0,l),
(490,700,l),
(350,700,l),
(201,0,l)
);
},
{
closed = 1;
nodes = (
(175,465,l),
(491,700,l),
(277,700,l),
(103,570,l)
);
}
);
width = 465;
},
{
layerId = "E0F5E986-8A77-409E-9DB3-A90D066F072F";
shapes = (
{
closed = 1;
nodes = (
(346,0,l),
(346,700,l),
(276,700,l),
(276,0,l)
);
},
{
closed = 1;
nodes = (
(77,500,l),
(346,700,l),
(229,700,l),
(35,556,l)
);
}
);
width = 416;
},
{
hints = (
{
origin = (0,3);
target = (0,0);
type = Stem;
}
);
layerId = "671D7F47-0040-4C88-995A-F1154CC787CA";
shapes = (
{
closed = 1;
nodes = (
(411,0,l),
(411,700,l),
(341,700,l),
(341,0,l)
);
},
{
closed = 1;
nodes = (
(77,443,l),
(411,700,l),
(294,700,l),
(35,499,l)
);
}
);
width = 481;
},
{
hints = (
{
origin = (0,3);
target = (0,0);
type = Stem;
}
);
layerId = "69FAE2FB-B0EC-4DE1-A39D-F4FC44956106";
shapes = (
{
closed = 1;
nodes = (
(293,0,l),
(442,700,l),
(372,700,l),
(223,0,l)
);
},
{
closed = 1;
nodes = (
(125,500,l),
(443,700,l),
(324,700,l),
(103,556,l)
);
}
);
width = 417;
}
);
},
{
glyphname = two.ss01;
lastChange = "2019-06-03 00:54:22 +0000";
layers = (
{
hints = (
{
horizontal = 1;
origin = (0,17);
target = (0,3);
type = Stem;
},
{
horizontal = 1;
origin = (0,12);
target = (0,7);
type = Stem;
},
{
origin = (0,9);
target = (0,10);
type = Stem;
},
{
origin = (0,15);
target = (0,0);
type = Stem;
}
);
layerId = "E82D559A-267E-4BF3-BBA1-0778DA3FF57C";
shapes = (
{
closed = 1;
nodes = (
(666,0,l),
(666,140,l),
(312,140,l),
(312,140,l),
(666,425,l),
(666,630,l),
(526,700,l),
(210,700,l),
(70,630,l),
(70,490,l),
(210,490,l),
(210,560,l),
(210,560,l),
(526,560,l),
(526,560,l),
(526,491,l),
(50,101,l),
(91,0,l)
);
}
);
width = 736;
},
{
layerId = "B8F43E33-4D80-4AEE-B4E2-DC92E4FCAAE5";
shapes = (
{
closed = 1;
nodes = (
(927.5,0,l),
(927.5,140,l),
(348,140,l),
(348,140,l),
(927.5,390,l),
(927.5,630,l),
(787.5,700,l),
(210,700,l),
(70,630,l),
(70,490,l),
(210,490,l),
(210,560,l),
(210,560,l),
(788,560,l),
(788,560,l),
(788,473,l),
(64,173,l),
(95,0,l)
);
}
);
width = 997.5;
},
{
layerId = "198E78DA-6138-42C0-8847-C36925CEE918";
shapes = (
{
closed = 1;
nodes = (
(613,0,l),
(643,140,l),
(299,140,l),
(299,140,l),
(707,440,l),
(746,630,l),
(621,700,l),
(306,700,l),
(151,630,l),
(122,490,l),
(262,490,l),
(277,560,l),
(277,560,l),
(591,560,l),
(591,560,l),
(579,501,l),
(47,108,l),
(69,0,l)
);
}
);
width = 737;
},
{
layerId = "E0F5E986-8A77-409E-9DB3-A90D066F072F";
shapes = (
{
closed = 1;
nodes = (
(665,0,l),
(665,70,l),
(140,70,l),
(140,131,l),
(665,420,l),
(665,630,l),
(525,700,l),
(210,700,l),
(70,630,l),
(70,490,l),
(140,490,l),
(140,587,l),
(227,630,l),
(508,630,l),
(595,587,l),
(595,460,l),
(70,170,l),
(70,0,l)
);
}
);
width = 735;
},
{
hints = (
{
horizontal = 1;
origin = (0,4);
target = (0,3);
type = Stem;
},
{
horizontal = 1;
origin = (0,12);
target = (0,7);
type = Stem;
},
{
origin = (0,9);
target = (0,10);
type = Stem;
},
{
origin = (0,2);
target = (0,5);
type = Stem;
}
);
layerId = "671D7F47-0040-4C88-995A-F1154CC787CA";
shapes = (
{
closed = 1;
nodes = (
(928,0,l),
(928,70,l),
(140,70,l),
(140,132,l),
(928,395,l),
(928,630,l),
(787,700,l),
(210,700,l),
(70,630,l),
(70,490,l),
(140,490,l),
(140,587,l),
(227,630,l),
(770,630,l),
(857,587,l),
(857,440,l),
(70,179,l),
(70,0,l)
);
}
);
width = 998;
},
{
hints = (
{
horizontal = 1;
origin = (0,17);
target = (0,3);
type = Stem;
},
{
horizontal = 1;
place = (630, 70);
place = (630, 70);
type = Stem;
},
{
place = (114, 70);
place = (114, 70);
type = Stem;
},
{
origin = (0,4);
target = (0,1);
type = Stem;
}
);
layerId = "69FAE2FB-B0EC-4DE1-A39D-F4FC44956106";
shapes = (
{
closed = 1;
nodes = (
(612,0,l),
(626,70,l),
(102,70,l),
(114,124,l),
(699,413,l),
(746,630,l),
(620,700,l),
(306,700,l),
(152,630,l),
(122,490,l),
(192,490,l),
(212,587,l),
(309,630,l),
(589,630,l),
(666,587,l),
(637,449,l),
(51,159,l),
(18,0,l)
);
}
);
width = 735;
}
);
},
{
glyphname = zero.zero;
lastChange = "2019-06-02 22:31:38 +0000";
layers = (
{
layerId = "E82D559A-267E-4BF3-BBA1-0778DA3FF57C";
shapes = (
{
closed = 1;
nodes = (
(608,570,l),
(493,651,l),
(128,130,l),
(243,49,l)
);
},
{
ref = zero;
}
);
width = 735;
},
{
layerId = "B8F43E33-4D80-4AEE-B4E2-DC92E4FCAAE5";
shapes = (
{
closed = 1;
nodes = (
(1022,507,l),
(956,630,l),
(151,193,l),
(218,71,l)
);
},
{
alignment = -1;
ref = zero;
}
);
width = 1173;
},
{
layerId = "198E78DA-6138-42C0-8847-C36925CEE918";
shapes = (
{
closed = 1;
nodes = (
(684,560,l),
(586,644,l),
(94,140,l),
(192,56,l)
);
},
{
ref = zero;
}
);
width = 736;
},
{
layerId = "E0F5E986-8A77-409E-9DB3-A90D066F072F";
shapes = (
{
closed = 1;
nodes = (
(567,624,l),
(507,659,l),
(168,74,l),
(229,40,l)
);
},
{
ref = zero;
}
);
width = 735;
},
{
layerId = "671D7F47-0040-4C88-995A-F1154CC787CA";
shapes = (
{
closed = 1;
nodes = (
(996,633,l),
(949,680,l),
(178,67,l),
(226,21,l)
);
},
{
alignment = -1;
ref = zero;
}
);
width = 1173;
},
{
layerId = "69FAE2FB-B0EC-4DE1-A39D-F4FC44956106";
shapes = (
{
closed = 1;
nodes = (
(654,642,l),
(603,683,l),
(125,57,l),
(177,17,l)
);
},
{
alignment = -1;
ref = zero;
}
);
width = 736;
}
);
metricLeft = zero;
metricRight = zero;
},
{
glyphname = period;
kernLeft = .;
lastChange = "2019-06-02 00:52:56 +0000";
layers = (
{
layerId = "E82D559A-267E-4BF3-BBA1-0778DA3FF57C";
shapes = (
{
closed = 1;
nodes = (
(210,0,l),
(210,140,l),
(70,140,l),
(70,0,l)
);
}
);
width = 280;
},
{
layerId = "B8F43E33-4D80-4AEE-B4E2-DC92E4FCAAE5";
shapes = (
{
closed = 1;
nodes = (
(210,0,l),
(210,140,l),
(70,140,l),
(70,0,l)
);
}
);
width = 280;
},
{
layerId = "198E78DA-6138-42C0-8847-C36925CEE918";
shapes = (
{
closed = 1;
nodes = (
(157,0,l),
(187,140,l),
(47,140,l),
(17,0,l)
);
}
);
width = 280;
},
{
layerId = "E0F5E986-8A77-409E-9DB3-A90D066F072F";
shapes = (
{
closed = 1;
nodes = (
(70,0,l),
(166,0,l),
(166,96,l),
(70,96,l)
);
}
);
width = 236;
},
{
layerId = "671D7F47-0040-4C88-995A-F1154CC787CA";
shapes = (
{
closed = 1;
nodes = (
(70,0,l),
(166,0,l),
(166,96,l),
(70,96,l)
);
}
);
width = 236;
},
{
layerId = "69FAE2FB-B0EC-4DE1-A39D-F4FC44956106";
shapes = (
{
closed = 1;
nodes = (
(17,0,l),
(143,0,l),
(143,96,l),
(17,96,l)
);
}
);
width = 236;
}
);
unicode = 46;
},
{
glyphname = comma;
kernLeft = .;
lastChange = "2019-06-02 00:52:56 +0000";
layers = (
{
layerId = "E82D559A-267E-4BF3-BBA1-0778DA3FF57C";
shapes = (
{
closed = 1;
nodes = (
(210,-35,l),
(210,140,l),
(70,140,l),
(70,0,l),
(140,0,l),
(70,-52,l),
(113,-108,l)
);
}
);
width = 280;
},
{
layerId = "B8F43E33-4D80-4AEE-B4E2-DC92E4FCAAE5";
shapes = (
{
closed = 1;
nodes = (
(210,-35,l),
(210,140,l),
(70,140,l),
(70,0,l),
(140,0,l),
(70,-52,l),
(113,-108,l)
);
}
);
width = 280;
},
{
layerId = "198E78DA-6138-42C0-8847-C36925CEE918";
shapes = (
{
closed = 1;
nodes = (
(150,-35,l),
(187,140,l),
(47,140,l),
(17,0,l),
(86,0,l),
(6,-52,l),
(39,-108,l)
);
}
);
width = 281;
},
{
layerId = "E0F5E986-8A77-409E-9DB3-A90D066F072F";
shapes = (
{
closed = 1;
nodes = (
(166,-30,l),
(166,96,l),
(70,96,l),
(70,0,l),
(123,0,l),
(72,-38,l),
(102,-78,l)
);
}
);
width = 236;
},
{
layerId = "671D7F47-0040-4C88-995A-F1154CC787CA";
shapes = (
{
closed = 1;
nodes = (
(166,-30,l),
(166,96,l),
(70,96,l),
(70,0,l),
(123,0,l),
(72,-38,l),
(102,-78,l)
);
}
);
width = 236;
},
{
layerId = "69FAE2FB-B0EC-4DE1-A39D-F4FC44956106";
shapes = (
{
closed = 1;
nodes = (
(106,-30,l),
(143,96,l),
(47,96,l),
(17,0,l),
(69,0,l),
(8,-38,l),
(28,-78,l)
);
}
);
width = 237;
}
);
unicode = 44;
},
{
glyphname = colon;
lastChange = "2019-06-02 00:52:56 +0000";
layers = (
{
layerId = "E82D559A-267E-4BF3-BBA1-0778DA3FF57C";
shapes = (
{
closed = 1;
nodes = (
(210,0,l),
(210,140,l),
(70,140,l),
(70,0,l)
);
},
{
closed = 1;
nodes = (
(210,350,l),
(210,490,l),
(70,490,l),
(70,350,l)
);
}
);
width = 280;
},
{
layerId = "B8F43E33-4D80-4AEE-B4E2-DC92E4FCAAE5";
shapes = (
{
closed = 1;
nodes = (
(210,0,l),
(210,140,l),
(70,140,l),
(70,0,l)
);
},
{
closed = 1;
nodes = (
(210,350,l),
(210,490,l),
(70,490,l),
(70,350,l)
);
}
);
width = 280;
},
{
layerId = "198E78DA-6138-42C0-8847-C36925CEE918";
shapes = (
{
closed = 1;
nodes = (
(227,0,l),
(257,140,l),
(117,140,l),
(87,0,l)
);
},
{
closed = 1;
nodes = (
(301,350,l),
(331,490,l),
(191,490,l),
(161,350,l)
);
}
);
width = 280;
},
{
layerId = "E0F5E986-8A77-409E-9DB3-A90D066F072F";
shapes = (
{
closed = 1;
nodes = (
(70,0,l),
(166,0,l),
(166,96,l),
(70,96,l)
);
},
{
closed = 1;
nodes = (
(70,300,l),
(166,300,l),
(166,396,l),
(70,396,l)
);
}
);
width = 236;
},
{
layerId = "671D7F47-0040-4C88-995A-F1154CC787CA";
shapes = (
{
closed = 1;
nodes = (
(70,0,l),
(166,0,l),
(166,96,l),
(70,96,l)
);
},
{
closed = 1;
nodes = (
(70,300,l),
(166,300,l),
(166,396,l),
(70,396,l)
);
}
);
width = 236;
},
{
layerId = "69FAE2FB-B0EC-4DE1-A39D-F4FC44956106";
shapes = (
{
closed = 1;
nodes = (
(87,0,l),
(213,0,l),
(213,96,l),
(87,96,l)
);
},
{
closed = 1;
nodes = (
(161,300,l),
(287,300,l),
(287,396,l),
(161,396,l)
);
}
);
width = 236;
}
);
unicode = 58;
},
{
glyphname = semicolon;
lastChange = "2019-06-02 00:52:56 +0000";
layers = (
{
layerId = "E82D559A-267E-4BF3-BBA1-0778DA3FF57C";
shapes = (
{
closed = 1;
nodes = (
(210,-35,l),
(210,140,l),
(70,140,l),
(70,0,l),
(140,0,l),
(70,-52,l),
(113,-108,l)
);
},
{
closed = 1;
nodes = (
(210,350,l),
(210,490,l),
(70,490,l),
(70,350,l)
);
}
);
width = 280;
},
{
layerId = "198E78DA-6138-42C0-8847-C36925CEE918";
shapes = (
{
closed = 1;
nodes = (
(220,-35,l),
(257,140,l),
(117,140,l),
(87,0,l),
(156,0,l),
(76,-52,l),
(109,-108,l)
);
},
{
closed = 1;
nodes = (
(301,350,l),
(331,490,l),
(191,490,l),
(161,350,l)
);
}
);
width = 281;
},
{
layerId = "B8F43E33-4D80-4AEE-B4E2-DC92E4FCAAE5";
shapes = (
{
closed = 1;
nodes = (
(210,-35,l),
(210,140,l),
(70,140,l),
(70,0,l),
(140,0,l),
(70,-52,l),
(113,-108,l)
);
},
{
closed = 1;
nodes = (
(210,350,l),
(210,490,l),
(70,490,l),
(70,350,l)
);
}
);
width = 280;
},
{
layerId = "E0F5E986-8A77-409E-9DB3-A90D066F072F";
shapes = (
{
closed = 1;
nodes = (
(166,-30,l),
(166,96,l),
(70,96,l),
(70,0,l),
(123,0,l),
(72,-38,l),
(102,-78,l)
);
},
{
closed = 1;
nodes = (
(166,300,l),
(166,396,l),
(70,396,l),
(70,300,l)
);
}
);
width = 236;
},
{
layerId = "671D7F47-0040-4C88-995A-F1154CC787CA";
shapes = (
{
closed = 1;
nodes = (
(166,-30,l),
(166,96,l),
(70,96,l),
(70,0,l),
(123,0,l),
(72,-38,l),
(102,-78,l)
);
},
{
closed = 1;
nodes = (
(166,300,l),
(166,396,l),
(70,396,l),
(70,300,l)
);
}
);
width = 236;
},
{
layerId = "69FAE2FB-B0EC-4DE1-A39D-F4FC44956106";
shapes = (
{
closed = 1;
nodes = (
(176,-30,l),
(213,96,l),
(117,96,l),
(87,0,l),
(139,0,l),
(78,-38,l),
(98,-78,l)
);
},
{
closed = 1;
nodes = (
(257,300,l),
(287,396,l),
(191,396,l),
(161,300,l)
);
}
);
width = 237;
}
);
unicode = 59;
},
{
glyphname = exclam;
lastChange = "2019-06-06 02:54:49 +0000";
layers = (
{
hints = (
{
horizontal = 1;
origin = (1,3);
target = (1,2);
type = Stem;
},
{
origin = (1,3);
target = (1,0);
type = Stem;
}
);
layerId = "E82D559A-267E-4BF3-BBA1-0778DA3FF57C";
shapes = (
{
closed = 1;
nodes = (
(175,210,l),
(210,490,l),
(210,700,l),
(70,700,l),
(70,490,l),
(105,210,l)
);
},
{
closed = 1;
nodes = (
(210,0,l),
(210,140,l),
(70,140,l),
(70,0,l)
);
}
);
width = 280;
},
{
layerId = "B8F43E33-4D80-4AEE-B4E2-DC92E4FCAAE5";
shapes = (
{
closed = 1;
nodes = (
(175,210,l),
(210,490,l),
(210,700,l),
(70,700,l),
(70,490,l),
(105,210,l)
);
},
{
closed = 1;
nodes = (
(210,0,l),
(210,140,l),
(70,140,l),
(70,0,l)
);
}
);
width = 280;
},
{
layerId = "198E78DA-6138-42C0-8847-C36925CEE918";
shapes = (
{
closed = 1;
nodes = (
(167,210,l),
(262,490,l),
(306,700,l),
(166,700,l),
(122,490,l),
(97,210,l)
);
},
{
closed = 1;
nodes = (
(158,0,l),
(187,140,l),
(47,140,l),
(18,0,l)
);
}
);
width = 281;
},
{
layerId = "E0F5E986-8A77-409E-9DB3-A90D066F072F";
shapes = (
{
closed = 1;
nodes = (
(180,166,l),
(205,466,l),
(205,700,l),
(105,700,l),
(105,466,l),
(130,166,l)
);
},
{
closed = 1;
nodes = (
(203,0,l),
(203,96,l),
(107,96,l),
(107,0,l)
);
}
);
width = 310;
},
{
hints = (
{
horizontal = 1;
origin = (1,3);
target = (1,2);
type = Stem;
},
{
origin = (1,3);
target = (1,0);
type = Stem;
}
);
layerId = "671D7F47-0040-4C88-995A-F1154CC787CA";
shapes = (
{
closed = 1;
nodes = (
(180,166,l),
(205,466,l),
(205,700,l),
(105,700,l),
(105,466,l),
(130,166,l)
);
},
{
closed = 1;
nodes = (
(203,0,l),
(203,96,l),
(107,96,l),
(107,0,l)
);
}
);
width = 310;
},
{
hints = (
{
horizontal = 1;
place = (0, 96);
place = (0, 96);
type = Stem;
},
{
place = (54, 96);
place = (54, 96);
type = Stem;
}
);
layerId = "69FAE2FB-B0EC-4DE1-A39D-F4FC44956106";
shapes = (
{
closed = 1;
nodes = (
(163,166,l),
(252,466,l),
(301,700,l),
(201,700,l),
(152,466,l),
(113,166,l)
);
},
{
closed = 1;
nodes = (
(151,0,l),
(171,96,l),
(75,96,l),
(55,0,l)
);
}
);
width = 311;
}
);
unicode = 33;
},
{
glyphname = question;
lastChange = "2019-06-04 03:28:12 +0000";
layers = (
{
hints = (
{
horizontal = 1;
origin = (1,3);
target = (1,2);
type = Stem;
},
{
horizontal = 1;
origin = (0,10);
target = (0,5);
type = Stem;
},
{
origin = (0,7);
target = (0,8);
type = Stem;
},
{
origin = (1,3);
target = (1,0);
type = Stem;
},
{
origin = (0,13);
target = (0,2);
type = Stem;
}
);
layerId = "E82D559A-267E-4BF3-BBA1-0778DA3FF57C";
shapes = (
{
closed = 1;
nodes = (
(402,210,l),
(402,271,l),
(595,480,l),
(595,630,l),
(455,700,l),
(210,700,l),
(70,630,l),
(70,490,l),
(210,490,l),
(210,570,l),
(210,570,l),
(445,570,l),
(445,570,l),
(445,498,l),
(262,296,l),
(262,210,l)
);
},
{
closed = 1;
nodes = (
(402,0,l),
(402,140,l),
(262,140,l),
(262,0,l)
);
}
);
width = 665;
},
{
layerId = "B8F43E33-4D80-4AEE-B4E2-DC92E4FCAAE5";
shapes = (
{
closed = 1;
nodes = (
(587,210,l),
(587,257,l),
(963,408,l),
(963,630,l),
(823,700,l),
(210,700,l),
(70,630,l),
(70,490,l),
(210,490,l),
(210,560,l),
(210,560,l),
(823,560,l),
(823,560,l),
(823,495,l),
(447,345,l),
(447,210,l)
);
},
{
closed = 1;
nodes = (
(587,0,l),
(587,140,l),
(447,140,l),
(447,0,l)
);
}
);
width = 1033;
},
{
layerId = "198E78DA-6138-42C0-8847-C36925CEE918";
shapes = (
{
closed = 1;
nodes = (
(395,210,l),
(409,271,l),
(646,480,l),
(676,630,l),
(551,700,l),
(306,700,l),
(151,630,l),
(122,490,l),
(262,490,l),
(279,569,l),
(279,569,l),
(513,569,l),
(513,569,l),
(498,498,l),
(272,296,l),
(255,210,l)
);
},
{
closed = 1;
nodes = (
(350,0,l),
(380,140,l),
(240,140,l),
(210,0,l)
);
}
);
width = 667;
},
{
layerId = "E0F5E986-8A77-409E-9DB3-A90D066F072F";
shapes = (
{
closed = 1;
nodes = (
(368,165,l),
(368,315,l),
(595,440,l),
(595,630,l),
(455,700,l),
(210,700,l),
(70,630,l),
(70,490,l),
(140,490,l),
(140,587,l),
(227,630,l),
(438,630,l),
(525,587,l),
(525,476,l),
(298,350,l),
(298,165,l)
);
},
{
closed = 1;
nodes = (
(380,0,l),
(380,96,l),
(284,96,l),
(284,0,l)
);
}
);
width = 665;
},
{
hints = (
{
horizontal = 1;
origin = (1,3);
target = (1,2);
type = Stem;
},
{
horizontal = 1;
origin = (0,15);
target = (0,14);
type = Stem;
},
{
place = (530, 70);
place = (530, 70);
type = Stem;
},
{
origin = (1,3);
target = (1,0);
type = Stem;
},
{
place = (847, -87);
place = (847, -87);
type = Stem;
}
);
layerId = "671D7F47-0040-4C88-995A-F1154CC787CA";
shapes = (
{
closed = 1;
nodes = (
(530,165,l),
(530,300,l),
(917,434,l),
(917,630,l),
(777,700,l),
(210,700,l),
(70,630,l),
(70,490,l),
(140,490,l),
(140,587,l),
(227,630,l),
(760,630,l),
(847,587,l),
(847,483,l),
(460,349,l),
(460,165,l)
);
},
{
closed = 1;
nodes = (
(542,0,l),
(542,96,l),
(446,96,l),
(446,0,l)
);
}
);
width = 987;
},
{
hints = (
{
horizontal = 1;
place = (0, 96);
place = (0, 96);
type = Stem;
},
{
horizontal = 1;
place = (629, 71);
place = (629, 71);
type = Stem;
},
{
place = (174, 70);
place = (174, 70);
type = Stem;
},
{
place = (284, 96);
place = (284, 96);
type = Stem;
},
{
place = (630, 68);
place = (630, 68);
type = Stem;
}
);
layerId = "69FAE2FB-B0EC-4DE1-A39D-F4FC44956106";
shapes = (
{
closed = 1;
nodes = (
(350,165,l),
(382,315,l),
(635,440,l),
(676,630,l),
(550,700,l),
(305,700,l),
(151,630,l),
(121,490,l),
(191,490,l),
(211,587,l),
(308,630,l),
(519,630,l),
(596,587,l),
(573,476,l),
(319,350,l),
(280,165,l)
);
},
{
closed = 1;
nodes = (
(327,0,l),
(347,96,l),
(251,96,l),
(231,0,l)
);
}
);
width = 665;
}
);
unicode = 63;
},
{
glyphname = bullet;
lastChange = "2019-06-06 02:56:02 +0000";
layers = (
{
layerId = "E82D559A-267E-4BF3-BBA1-0778DA3FF57C";
shapes = (
{
closed = 1;
nodes = (
(233,245,o),
(280,292,o),
(280,350,cs),
(280,408,o),
(233,455,o),
(175,455,cs),
(117,455,o),
(70,408,o),
(70,350,cs),
(70,292,o),
(117,245,o),
(175,245,cs)
);
}
);
width = 350;
},
{
layerId = "198E78DA-6138-42C0-8847-C36925CEE918";
shapes = (
{
closed = 1;
nodes = (
(232,245,o),
(289,292,o),
(301,350,cs),
(313,408,o),
(276,455,o),
(218,455,cs),
(160,455,o),
(103,408,o),
(91,350,cs),
(79,292,o),
(116,245,o),
(174,245,cs)
);
}
);
width = 350;
},
{
layerId = "B8F43E33-4D80-4AEE-B4E2-DC92E4FCAAE5";
shapes = (
{
closed = 1;
nodes = (
(233,245,o),
(280,292,o),
(280,350,cs),
(280,408,o),
(233,455,o),
(175,455,cs),
(117,455,o),
(70,408,o),
(70,350,cs),
(70,292,o),
(117,245,o),
(175,245,cs)
);
}
);
width = 350;
},
{
layerId = "E0F5E986-8A77-409E-9DB3-A90D066F072F";
shapes = (
{
closed = 1;
nodes = (
(240,263,o),
(279,302,o),
(279,350,cs),
(279,398,o),
(240,437,o),
(192,437,cs),
(144,437,o),
(105,398,o),
(105,350,cs),
(105,302,o),
(144,263,o),
(192,263,cs)
);
}
);
width = 384;
},
{
layerId = "671D7F47-0040-4C88-995A-F1154CC787CA";
shapes = (
{
closed = 1;
nodes = (
(240,263,o),
(279,302,o),
(279,350,cs),
(279,398,o),
(240,437,o),
(192,437,cs),
(144,437,o),
(105,398,o),
(105,350,cs),
(105,302,o),
(144,263,o),
(192,263,cs)
);
}
);
width = 384;
},
{
layerId = "69FAE2FB-B0EC-4DE1-A39D-F4FC44956106";
shapes = (
{
closed = 1;
nodes = (
(243,263,o),
(290,302,o),
(300,350,cs),
(310,398,o),
(279,437,o),
(231,437,cs),
(183,437,o),
(136,398,o),
(126,350,cs),
(116,302,o),
(147,263,o),
(195,263,cs)
);
}
);
width = 384;
}
);
unicode = 8226;
},
{
glyphname = asterisk;
lastChange = "2019-06-02 00:52:56 +0000";
layers = (
{
layerId = "E82D559A-267E-4BF3-BBA1-0778DA3FF57C";
shapes = (
{
closed = 1;
nodes = (
(266,532,l),
(228,532,l),
(322,404,l),
(378,445,l),
(284,573,l),
(273,538,l),
(424,587,l),
(403,653,l),
(252,604,l),
(282,583,l),
(282,741,l),
(212,741,l),
(212,583,l),
(242,604,l),
(91,653,l),
(70,587,l),
(221,538,l),
(210,573,l),
(116,445,l),
(172,404,l)
);
}
);
width = 494;
},
{
layerId = "B8F43E33-4D80-4AEE-B4E2-DC92E4FCAAE5";
shapes = (
{
closed = 1;
nodes = (
(266,532,l),
(228,532,l),
(322,404,l),
(378,445,l),
(284,573,l),
(273,538,l),
(424,587,l),
(403,653,l),
(252,604,l),
(282,583,l),
(282,741,l),
(212,741,l),
(212,583,l),
(242,604,l),
(91,653,l),
(70,587,l),
(221,538,l),
(210,573,l),
(116,445,l),
(172,404,l)
);
}
);
width = 494;
},
{
layerId = "198E78DA-6138-42C0-8847-C36925CEE918";
shapes = (
{
closed = 1;
nodes = (
(329,529,l),
(292,537,l),
(357,392,l),
(421,421,l),
(355,565,l),
(337,533,l),
(495,550,l),
(488,619,l),
(330,602,l),
(355,575,l),
(388,730,l),
(320,745,l),
(287,590,l),
(321,604,l),
(183,684,l),
(149,623,l),
(286,544,l),
(283,581,l),
(164,475,l),
(211,423,l)
);
}
);
width = 501;
},
{
layerId = "E0F5E986-8A77-409E-9DB3-A90D066F072F";
shapes = (
{
closed = 1;
nodes = (
(266,532,l),
(228,532,l),
(322,404,l),
(378,445,l),
(284,573,l),
(273,538,l),
(424,587,l),
(403,653,l),
(252,604,l),
(282,583,l),
(282,741,l),
(212,741,l),
(212,583,l),
(242,604,l),
(91,653,l),
(70,587,l),
(221,538,l),
(210,573,l),
(116,445,l),
(172,404,l)
);
}
);
width = 494;
},
{
layerId = "671D7F47-0040-4C88-995A-F1154CC787CA";
shapes = (
{
closed = 1;
nodes = (
(266,532,l),
(228,532,l),
(322,404,l),
(378,445,l),
(284,573,l),
(273,538,l),
(424,587,l),
(403,653,l),
(252,604,l),
(282,583,l),
(282,741,l),
(212,741,l),
(212,583,l),
(242,604,l),
(91,653,l),
(70,587,l),
(221,538,l),
(210,573,l),
(116,445,l),
(172,404,l)
);
}
);
width = 494;
},
{
layerId = "69FAE2FB-B0EC-4DE1-A39D-F4FC44956106";
shapes = (
{
closed = 1;
nodes = (
(329,529,l),
(292,537,l),
(357,392,l),
(421,421,l),
(355,565,l),
(337,533,l),
(495,550,l),
(488,619,l),
(330,602,l),
(355,575,l),
(388,730,l),
(320,745,l),
(287,590,l),
(321,604,l),
(183,684,l),
(149,623,l),
(286,544,l),
(283,581,l),
(164,475,l),
(211,423,l)
);
}
);
width = 501;
}
);
unicode = 42;
},
{
glyphname = numbersign;
lastChange = "2019-06-06 02:51:39 +0000";
layers = (
{
layerId = "E82D559A-267E-4BF3-BBA1-0778DA3FF57C";
shapes = (
{
closed = 1;
nodes = (
(314,5,l),
(454,660,l),
(384,660,l),
(244,5,l)
);
},
{
closed = 1;
nodes = (
(465,175,l),
(465,245,l),
(35,245,l),
(35,175,l)
);
},
{
closed = 1;
nodes = (
(174,5,l),
(314,660,l),
(244,660,l),
(104,5,l)
);
},
{
closed = 1;
nodes = (
(515,420,l),
(515,490,l),
(85,490,l),
(85,420,l)
);
}
);
width = 550;
},
{
layerId = "198E78DA-6138-42C0-8847-C36925CEE918";
shapes = (
{
closed = 1;
nodes = (
(262,5,l),
(542,660,l),
(472,660,l),
(192,5,l)
);
},
{
closed = 1;
nodes = (
(450,175,l),
(464,245,l),
(34,245,l),
(20,175,l)
);
},
{
closed = 1;
nodes = (
(122,5,l),
(402,660,l),
(332,660,l),
(52,5,l)
);
},
{
closed = 1;
nodes = (
(552,420,l),
(566,490,l),
(136,490,l),
(122,420,l)
);
}
);
width = 551;
},
{
layerId = "B8F43E33-4D80-4AEE-B4E2-DC92E4FCAAE5";
shapes = (
{
closed = 1;
nodes = (
(454,5,l),
(594,660,l),
(524,660,l),
(384,5,l)
);
},
{
closed = 1;
nodes = (
(605,175,l),
(605,245,l),
(35,245,l),
(35,175,l)
);
},
{
closed = 1;
nodes = (
(174,5,l),
(314,660,l),
(244,660,l),
(104,5,l)
);
},
{
closed = 1;
nodes = (
(655,420,l),
(655,490,l),
(85,490,l),
(85,420,l)
);
}
);
width = 690;
},
{
layerId = "E0F5E986-8A77-409E-9DB3-A90D066F072F";
shapes = (
{
closed = 1;
nodes = (
(314,5,l),
(454,660,l),
(394,660,l),
(254,5,l)
);
},
{
closed = 1;
nodes = (
(465,175,l),
(465,229,l),
(35,229,l),
(35,175,l)
);
},
{
closed = 1;
nodes = (
(164,5,l),
(304,660,l),
(244,660,l),
(104,5,l)
);
},
{
closed = 1;
nodes = (
(515,435,l),
(515,490,l),
(85,490,l),
(85,435,l)
);
}
);
width = 550;
},
{
layerId = "671D7F47-0040-4C88-995A-F1154CC787CA";
shapes = (
{
closed = 1;
nodes = (
(431,5,l),
(571,660,l),
(511,660,l),
(371,5,l)
);
},
{
closed = 1;
nodes = (
(582,175,l),
(582,229,l),
(35,229,l),
(35,175,l)
);
},
{
closed = 1;
nodes = (
(164,5,l),
(304,660,l),
(244,660,l),
(104,5,l)
);
},
{
closed = 1;
nodes = (
(632,435,l),
(632,490,l),
(85,490,l),
(85,435,l)
);
}
);
width = 667;
},
{
layerId = "69FAE2FB-B0EC-4DE1-A39D-F4FC44956106";
shapes = (
{
closed = 1;
nodes = (
(262,5,l),
(542,660,l),
(482,660,l),
(202,5,l)
);
},
{
closed = 1;
nodes = (
(450,175,l),
(461,229,l),
(31,229,l),
(20,175,l)
);
},
{
closed = 1;
nodes = (
(112,5,l),
(392,660,l),
(332,660,l),
(52,5,l)
);
},
{
closed = 1;
nodes = (
(555,435,l),
(566,490,l),
(136,490,l),
(125,435,l)
);
}
);
width = 551;
}
);
unicode = 35;
},
{
glyphname = slash;
lastChange = "2019-06-06 02:53:17 +0000";
layers = (
{
layerId = "E82D559A-267E-4BF3-BBA1-0778DA3FF57C";
shapes = (
{
closed = 1;
nodes = (
(510,758,l),
(445,787,l),
(70,-58,l),
(135,-87,l)
);
}
);
width = 580;
},
{
layerId = "B8F43E33-4D80-4AEE-B4E2-DC92E4FCAAE5";
shapes = (
{
closed = 1;
nodes = (
(510,758,l),
(445,787,l),
(70,-58,l),
(135,-87,l)
);
}
);
width = 580;
},
{
layerId = "198E78DA-6138-42C0-8847-C36925CEE918";
shapes = (
{
closed = 1;
nodes = (
(630,749,l),
(571,788,l),
(6,-51,l),
(65,-90,l)
);
}
);
width = 594;
},
{
layerId = "E0F5E986-8A77-409E-9DB3-A90D066F072F";
shapes = (
{
closed = 1;
nodes = (
(504,761,l),
(445,787,l),
(70,-58,l),
(129,-84,l)
);
}
);
width = 574;
},
{
layerId = "671D7F47-0040-4C88-995A-F1154CC787CA";
shapes = (
{
closed = 1;
nodes = (
(504,761,l),
(445,787,l),
(70,-58,l),
(129,-84,l)
);
}
);
width = 574;
},
{
layerId = "69FAE2FB-B0EC-4DE1-A39D-F4FC44956106";
shapes = (
{
closed = 1;
nodes = (
(624,752,l),
(571,788,l),
(6,-51,l),
(59,-87,l)
);
}
);
width = 587;
}
);
unicode = 47;
},
{
glyphname = backslash;
lastChange = "2019-06-06 02:53:23 +0000";
layers = (
{
layerId = "E82D559A-267E-4BF3-BBA1-0778DA3FF57C";
shapes = (
{
closed = 1;
nodes = (
(510,-58,l),
(135,787,l),
(70,758,l),
(445,-87,l)
);
}
);
width = 580;
},
{
layerId = "B8F43E33-4D80-4AEE-B4E2-DC92E4FCAAE5";
shapes = (
{
closed = 1;
nodes = (
(510,-58,l),
(135,787,l),
(70,758,l),
(445,-87,l)
);
}
);
width = 580;
},
{
layerId = "198E78DA-6138-42C0-8847-C36925CEE918";
shapes = (
{
closed = 1;
nodes = (
(419,-94,l),
(249,777,l),
(179,763,l),
(349,-108,l)
);
}
);
width = 562;
},
{
layerId = "E0F5E986-8A77-409E-9DB3-A90D066F072F";
shapes = (
{
closed = 1;
nodes = (
(504,-61,l),
(129,784,l),
(70,758,l),
(445,-87,l)
);
}
);
width = 574;
},
{
layerId = "671D7F47-0040-4C88-995A-F1154CC787CA";
shapes = (
{
closed = 1;
nodes = (
(504,-61,l),
(129,784,l),
(70,758,l),
(445,-87,l)
);
}
);
width = 574;
},
{
layerId = "69FAE2FB-B0EC-4DE1-A39D-F4FC44956106";
shapes = (
{
closed = 1;
nodes = (
(413,-97,l),
(243,774,l),
(179,763,l),
(349,-108,l)
);
}
);
width = 557;
}
);
unicode = 92;
},
{
glyphname = parenleft;
lastChange = "2019-06-06 02:52:17 +0000";
layers = (
{
layerId = "E82D559A-267E-4BF3-BBA1-0778DA3FF57C";
shapes = (
{
closed = 1;
nodes = (
(379,-136,l),
(210,-10,l),
(210,710,l),
(379,836,l),
(336,892,l),
(70,694,l),
(70,6,l),
(336,-192,l)
);
}
);
width = 379;
},
{
layerId = "B8F43E33-4D80-4AEE-B4E2-DC92E4FCAAE5";
shapes = (
{
closed = 1;
nodes = (
(379,-136,l),
(210,-10,l),
(210,710,l),
(379,836,l),
(336,892,l),
(70,694,l),
(70,6,l),
(336,-192,l)
);
}
);
width = 449;
},
{
layerId = "198E78DA-6138-42C0-8847-C36925CEE918";
shapes = (
{
closed = 1;
nodes = (
(283,-140,l),
(150,-22,l),
(304,704,l),
(505,833,l),
(467,892,l),
(159,694,l),
(13,6,l),
(237,-192,l)
);
}
);
width = 386;
},
{
layerId = "E0F5E986-8A77-409E-9DB3-A90D066F072F";
shapes = (
{
closed = 1;
nodes = (
(379,-136,l),
(140,42,l),
(140,657,l),
(379,836,l),
(336,892,l),
(70,694,l),
(70,6,l),
(336,-192,l)
);
}
);
width = 379;
},
{
layerId = "671D7F47-0040-4C88-995A-F1154CC787CA";
shapes = (
{
closed = 1;
nodes = (
(379,-134,l),
(140,44,l),
(140,659,l),
(379,838,l),
(336,894,l),
(70,696,l),
(70,8,l),
(336,-190,l)
);
}
);
width = 379;
},
{
layerId = "69FAE2FB-B0EC-4DE1-A39D-F4FC44956106";
shapes = (
{
closed = 1;
nodes = (
(297,-136,l),
(96,42,l),
(226,657,l),
(503,836,l),
(472,892,l),
(164,694,l),
(18,6,l),
(242,-192,l)
);
}
);
width = 379;
}
);
unicode = 40;
},
{
glyphname = parenright;
lastChange = "2019-06-06 02:52:54 +0000";
layers = (
{
layerId = "E82D559A-267E-4BF3-BBA1-0778DA3FF57C";
shapes = (
{
closed = 1;
nodes = (
(309,6,l),
(309,694,l),
(43,892,l),
(0,836,l),
(169,710,l),
(169,-10,l),
(0,-136,l),
(43,-192,l)
);
}
);
width = 379;
},
{
layerId = "198E78DA-6138-42C0-8847-C36925CEE918";
shapes = (
{
closed = 1;
nodes = (
(259,6,l),
(405,694,l),
(181,892,l),
(135,840,l),
(268,722,l),
(113,-5,l),
(-87,-133,l),
(-49,-192,l)
);
}
);
width = 386;
},
{
layerId = "B8F43E33-4D80-4AEE-B4E2-DC92E4FCAAE5";
shapes = (
{
closed = 1;
nodes = (
(379,6,l),
(379,694,l),
(113,892,l),
(70,836,l),
(239,710,l),
(239,-10,l),
(70,-136,l),
(113,-192,l)
);
}
);
width = 449;
},
{
layerId = "E0F5E986-8A77-409E-9DB3-A90D066F072F";
shapes = (
{
closed = 1;
nodes = (
(309,6,l),
(309,694,l),
(43,892,l),
(0,836,l),
(239,657,l),
(239,42,l),
(0,-136,l),
(43,-192,l)
);
}
);
width = 379;
},
{
layerId = "671D7F47-0040-4C88-995A-F1154CC787CA";
shapes = (
{
closed = 1;
nodes = (
(309,6,l),
(309,694,l),
(43,892,l),
(0,836,l),
(239,657,l),
(239,42,l),
(0,-136,l),
(43,-192,l)
);
}
);
width = 379;
},
{
layerId = "69FAE2FB-B0EC-4DE1-A39D-F4FC44956106";
shapes = (
{
closed = 1;
nodes = (
(258,6,l),
(404,694,l),
(180,892,l),
(125,836,l),
(326,657,l),
(196,42,l),
(-81,-136,l),
(-50,-192,l)
);
}
);
width = 380;
}
);
unicode = 41;
},
{
glyphname = braceleft;
lastChange = "2019-06-04 03:29:42 +0000";
layers = (
{
layerId = "E82D559A-267E-4BF3-BBA1-0778DA3FF57C";
shapes = (
{
closed = 1;
nodes = (
(315,-150,l),
(315,-80,l),
(214,-80,l),
(245,-111,l),
(245,230,l),
(103,372,l),
(103,328,l),
(245,470,l),
(245,811,l),
(214,780,l),
(315,780,l),
(315,850,l),
(175,850,l),
(105,780,l),
(105,420,l),
(35,350,l),
(105,280,l),
(105,-80,l),
(175,-150,l)
);
}
);
width = 385;
},
{
layerId = "B8F43E33-4D80-4AEE-B4E2-DC92E4FCAAE5";
shapes = (
{
closed = 1;
nodes = (
(315,-150,l),
(315,-80,l),
(214,-80,l),
(245,-111,l),
(245,230,l),
(103,372,l),
(103,328,l),
(245,470,l),
(245,811,l),
(214,780,l),
(315,780,l),
(315,850,l),
(175,850,l),
(105,780,l),
(105,420,l),
(35,350,l),
(105,280,l),
(105,-80,l),
(175,-150,l)
);
}
);
width = 385;
},
{
layerId = "198E78DA-6138-42C0-8847-C36925CEE918";
shapes = (
{
closed = 1;
nodes = (
(230,-150,l),
(245,-80,l),
(144,-80,l),
(168,-111,l),
(240,221,l),
(129,363,l),
(119,319,l),
(292,461,l),
(364,811,l),
(326,780,l),
(427,780,l),
(442,850,l),
(302,850,l),
(217,780,l),
(141,420,l),
(56,350,l),
(111,280,l),
(35,-80,l),
(90,-150,l)
);
}
);
width = 385;
},
{
layerId = "E0F5E986-8A77-409E-9DB3-A90D066F072F";
shapes = (
{
closed = 1;
nodes = (
(315,-150,l),
(315,-80,l),
(236,-80,l),
(208,-52,l),
(208,267,l),
(103,372,l),
(103,328,l),
(208,433,l),
(208,752,l),
(236,780,l),
(315,780,l),
(315,850,l),
(208,850,l),
(138,780,l),
(138,455,l),
(35,350,l),
(138,245,l),
(138,-80,l),
(208,-150,l)
);
}
);
width = 385;
},
{
layerId = "671D7F47-0040-4C88-995A-F1154CC787CA";
shapes = (
{
closed = 1;
nodes = (
(315,-150,l),
(315,-80,l),
(236,-80,l),
(208,-52,l),
(208,267,l),
(103,372,l),
(103,328,l),
(208,433,l),
(208,752,l),
(236,780,l),
(315,780,l),
(315,850,l),
(208,850,l),
(138,780,l),
(138,455,l),
(35,350,l),
(138,245,l),
(138,-80,l),
(208,-150,l)
);
}
);
width = 385;
},
{
layerId = "69FAE2FB-B0EC-4DE1-A39D-F4FC44956106";
shapes = (
{
closed = 1;
nodes = (
(230,-150,l),
(245,-80,l),
(166,-80,l),
(144,-52,l),
(211,267,l),
(129,372,l),
(119,328,l),
(247,433,l),
(314,752,l),
(348,780,l),
(427,780,l),
(442,850,l),
(335,850,l),
(250,780,l),
(181,455,l),
(56,350,l),
(137,245,l),
(68,-80,l),
(123,-150,l)
);
}
);
width = 385;
}
);
unicode = 123;
},
{
glyphname = braceright;
lastChange = "2019-06-04 03:29:54 +0000";
layers = (
{
layerId = "E82D559A-267E-4BF3-BBA1-0778DA3FF57C";
shapes = (
{
closed = 1;
nodes = (
(210,-150,l),
(280,-80,l),
(280,280,l),
(350,350,l),
(280,420,l),
(280,780,l),
(210,850,l),
(70,850,l),
(70,780,l),
(171,780,l),
(140,811,l),
(140,470,l),
(282,328,l),
(282,372,l),
(140,230,l),
(140,-111,l),
(171,-80,l),
(70,-80,l),
(70,-150,l)
);
}
);
width = 385;
},
{
layerId = "B8F43E33-4D80-4AEE-B4E2-DC92E4FCAAE5";
shapes = (
{
closed = 1;
nodes = (
(210,-150,l),
(280,-80,l),
(280,280,l),
(350,350,l),
(280,420,l),
(280,780,l),
(210,850,l),
(70,850,l),
(70,780,l),
(171,780,l),
(140,811,l),
(140,470,l),
(282,328,l),
(282,372,l),
(140,230,l),
(140,-111,l),
(171,-80,l),
(70,-80,l),
(70,-150,l)
);
}
);
width = 385;
},
{
layerId = "198E78DA-6138-42C0-8847-C36925CEE918";
shapes = (
{
closed = 1;
nodes = (
(126,-150,l),
(211,-80,l),
(287,280,l),
(372,350,l),
(317,420,l),
(393,780,l),
(338,850,l),
(198,850,l),
(183,780,l),
(284,780,l),
(260,811,l),
(189,479,l),
(300,337,l),
(310,381,l),
(137,239,l),
(64,-111,l),
(102,-80,l),
(1,-80,l),
(-14,-150,l)
);
}
);
width = 386;
},
{
layerId = "E0F5E986-8A77-409E-9DB3-A90D066F072F";
shapes = (
{
closed = 1;
nodes = (
(177,-150,l),
(247,-80,l),
(247,245,l),
(350,350,l),
(247,455,l),
(247,780,l),
(177,850,l),
(70,850,l),
(70,780,l),
(149,780,l),
(177,752,l),
(177,433,l),
(282,328,l),
(282,372,l),
(177,267,l),
(177,-52,l),
(149,-80,l),
(70,-80,l),
(70,-150,l)
);
}
);
width = 385;
},
{
layerId = "671D7F47-0040-4C88-995A-F1154CC787CA";
shapes = (
{
closed = 1;
nodes = (
(177,-150,l),
(247,-80,l),
(247,245,l),
(350,350,l),
(247,455,l),
(247,780,l),
(177,850,l),
(70,850,l),
(70,780,l),
(149,780,l),
(177,752,l),
(177,433,l),
(282,328,l),
(282,372,l),
(177,267,l),
(177,-52,l),
(149,-80,l),
(70,-80,l),
(70,-150,l)
);
}
);
width = 385;
},
{
layerId = "69FAE2FB-B0EC-4DE1-A39D-F4FC44956106";
shapes = (
{
closed = 1;
nodes = (
(93,-150,l),
(178,-80,l),
(247,245,l),
(372,350,l),
(291,455,l),
(360,780,l),
(305,850,l),
(198,850,l),
(183,780,l),
(262,780,l),
(284,752,l),
(217,433,l),
(299,328,l),
(309,372,l),
(181,267,l),
(114,-52,l),
(80,-80,l),
(1,-80,l),
(-14,-150,l)
);
}
);
width = 386;
}
);
unicode = 125;
},
{
glyphname = bracketleft;
lastChange = "2019-06-02 00:52:56 +0000";
layers = (
{
layerId = "E82D559A-267E-4BF3-BBA1-0778DA3FF57C";
shapes = (
{
closed = 1;
nodes = (
(280,850,l),
(70,850,l),
(70,-150,l),
(280,-150,l),
(280,-80,l),
(179,-80,l),
(210,-111,l),
(210,811,l),
(179,780,l),
(280,780,l)
);
}
);
width = 350;
},
{
layerId = "B8F43E33-4D80-4AEE-B4E2-DC92E4FCAAE5";
shapes = (
{
closed = 1;
nodes = (
(280,850,l),
(70,850,l),
(70,-150,l),
(280,-150,l),
(280,-80,l),
(179,-80,l),
(210,-111,l),
(210,811,l),
(179,780,l),
(280,780,l)
);
}
);
width = 350;
},
{
layerId = "198E78DA-6138-42C0-8847-C36925CEE918";
shapes = (
{
closed = 1;
nodes = (
(408,850,l),
(198,850,l),
(-14,-150,l),
(196,-150,l),
(211,-80,l),
(110,-80,l),
(134,-111,l),
(330,811,l),
(292,780,l),
(393,780,l)
);
}
);
width = 351;
},
{
layerId = "E0F5E986-8A77-409E-9DB3-A90D066F072F";
shapes = (
{
closed = 1;
nodes = (
(280,850,l),
(70,850,l),
(70,-150,l),
(280,-150,l),
(280,-80,l),
(109,-80,l),
(140,-111,l),
(140,811,l),
(109,780,l),
(280,780,l)
);
}
);
width = 350;
},
{
layerId = "671D7F47-0040-4C88-995A-F1154CC787CA";
shapes = (
{
closed = 1;
nodes = (
(280,850,l),
(70,850,l),
(70,-150,l),
(280,-150,l),
(280,-80,l),
(109,-80,l),
(140,-111,l),
(140,811,l),
(109,780,l),
(280,780,l)
);
}
);
width = 350;
},
{
layerId = "69FAE2FB-B0EC-4DE1-A39D-F4FC44956106";
shapes = (
{
closed = 1;
nodes = (
(408,850,l),
(198,850,l),
(-14,-150,l),
(196,-150,l),
(211,-80,l),
(40,-80,l),
(64,-111,l),
(260,811,l),
(222,780,l),
(393,780,l)
);
}
);
width = 351;
}
);
unicode = 91;
},
{
glyphname = bracketright;
lastChange = "2019-06-02 00:52:56 +0000";
layers = (
{
layerId = "E82D559A-267E-4BF3-BBA1-0778DA3FF57C";
shapes = (
{
closed = 1;
nodes = (
(280,-150,l),
(280,850,l),
(70,850,l),
(70,780,l),
(171,780,l),
(140,811,l),
(140,-111,l),
(171,-80,l),
(70,-80,l),
(70,-150,l)
);
}
);
width = 350;
},
{
layerId = "B8F43E33-4D80-4AEE-B4E2-DC92E4FCAAE5";
shapes = (
{
closed = 1;
nodes = (
(280,-150,l),
(280,850,l),
(70,850,l),
(70,780,l),
(171,780,l),
(140,811,l),
(140,-111,l),
(171,-80,l),
(70,-80,l),
(70,-150,l)
);
}
);
width = 350;
},
{
layerId = "198E78DA-6138-42C0-8847-C36925CEE918";
shapes = (
{
closed = 1;
nodes = (
(196,-150,l),
(408,850,l),
(198,850,l),
(183,780,l),
(284,780,l),
(260,811,l),
(64,-111,l),
(102,-80,l),
(1,-80,l),
(-14,-150,l)
);
}
);
width = 351;
},
{
layerId = "E0F5E986-8A77-409E-9DB3-A90D066F072F";
shapes = (
{
closed = 1;
nodes = (
(280,-150,l),
(280,850,l),
(70,850,l),
(70,780,l),
(241,780,l),
(210,811,l),
(210,-111,l),
(241,-80,l),
(70,-80,l),
(70,-150,l)
);
}
);
width = 350;
},
{
layerId = "671D7F47-0040-4C88-995A-F1154CC787CA";
shapes = (
{
closed = 1;
nodes = (
(280,-150,l),
(280,850,l),
(70,850,l),
(70,780,l),
(241,780,l),
(210,811,l),
(210,-111,l),
(241,-80,l),
(70,-80,l),
(70,-150,l)
);
}
);
width = 350;
},
{
layerId = "69FAE2FB-B0EC-4DE1-A39D-F4FC44956106";
shapes = (
{
closed = 1;
nodes = (
(196,-150,l),
(408,850,l),
(198,850,l),
(183,780,l),
(354,780,l),
(330,811,l),
(134,-111,l),
(172,-80,l),
(1,-80,l),
(-14,-150,l)
);
}
);
width = 351;
}
);
unicode = 93;
},
{
glyphname = hyphen;
lastChange = "2019-06-02 00:52:56 +0000";
layers = (
{
hints = (
{
horizontal = 1;
origin = (0,3);
target = (0,2);
type = Stem;
}
);
layerId = "E82D559A-267E-4BF3-BBA1-0778DA3FF57C";
shapes = (
{
closed = 1;
nodes = (
(490,280,l),
(490,420,l),
(70,420,l),
(70,280,l)
);
}
);
width = 560;
},
{
layerId = "B8F43E33-4D80-4AEE-B4E2-DC92E4FCAAE5";
shapes = (
{
closed = 1;
nodes = (
(665,280,l),
(665,420,l),
(70,420,l),
(70,280,l)
);
}
);
width = 735;
},
{
layerId = "198E78DA-6138-42C0-8847-C36925CEE918";
shapes = (
{
closed = 1;
nodes = (
(497,280,l),
(526,420,l),
(106,420,l),
(77,280,l)
);
}
);
width = 561;
},
{
layerId = "E0F5E986-8A77-409E-9DB3-A90D066F072F";
shapes = (
{
closed = 1;
nodes = (
(490,315,l),
(490,385,l),
(70,385,l),
(70,315,l)
);
}
);
width = 560;
},
{
hints = (
{
horizontal = 1;
origin = (0,3);
target = (0,2);
type = Stem;
}
);
layerId = "671D7F47-0040-4C88-995A-F1154CC787CA";
shapes = (
{
closed = 1;
nodes = (
(665,315,l),
(665,385,l),
(70,385,l),
(70,315,l)
);
}
);
width = 735;
},
{
hints = (
{
horizontal = 1;
origin = (0,3);
target = (0,2);
type = Stem;
}
);
layerId = "69FAE2FB-B0EC-4DE1-A39D-F4FC44956106";
shapes = (
{
closed = 1;
nodes = (
(497,315,l),
(526,385,l),
(106,385,l),
(77,315,l)
);
}
);
width = 561;
}
);
unicode = 45;
},
{
glyphname = endash;
lastChange = "2019-06-02 00:52:56 +0000";
layers = (
{
layerId = "E82D559A-267E-4BF3-BBA1-0778DA3FF57C";
shapes = (
{
closed = 1;
nodes = (
(620,280,l),
(620,420,l),
(70,420,l),
(70,280,l)
);
}
);
width = 690;
},
{
layerId = "B8F43E33-4D80-4AEE-B4E2-DC92E4FCAAE5";
shapes = (
{
closed = 1;
nodes = (
(960,280,l),
(960,420,l),
(70,420,l),
(70,280,l)
);
}
);
width = 1030;
},
{
layerId = "198E78DA-6138-42C0-8847-C36925CEE918";
shapes = (
{
closed = 1;
nodes = (
(627,280,l),
(656,420,l),
(106,420,l),
(77,280,l)
);
}
);
width = 691;
},
{
layerId = "E0F5E986-8A77-409E-9DB3-A90D066F072F";
shapes = (
{
closed = 1;
nodes = (
(620,315,l),
(620,385,l),
(70,385,l),
(70,315,l)
);
}
);
width = 690;
},
{
layerId = "671D7F47-0040-4C88-995A-F1154CC787CA";
shapes = (
{
closed = 1;
nodes = (
(937,315,l),
(937,385,l),
(70,385,l),
(70,315,l)
);
}
);
width = 1006.66667;
},
{
layerId = "69FAE2FB-B0EC-4DE1-A39D-F4FC44956106";
shapes = (
{
closed = 1;
nodes = (
(627,315,l),
(656,385,l),
(106,385,l),
(77,315,l)
);
}
);
width = 691;
}
);
unicode = 8211;
},
{
glyphname = emdash;
lastChange = "2019-06-02 00:52:56 +0000";
layers = (
{
layerId = "E82D559A-267E-4BF3-BBA1-0778DA3FF57C";
shapes = (
{
closed = 1;
nodes = (
(710,280,l),
(710,420,l),
(70,420,l),
(70,280,l)
);
}
);
width = 780;
},
{
layerId = "198E78DA-6138-42C0-8847-C36925CEE918";
shapes = (
{
closed = 1;
nodes = (
(727,280,l),
(756,420,l),
(106,420,l),
(77,280,l)
);
}
);
width = 791;
},
{
layerId = "B8F43E33-4D80-4AEE-B4E2-DC92E4FCAAE5";
shapes = (
{
closed = 1;
nodes = (
(1140,280,l),
(1140,420,l),
(70,420,l),
(70,280,l)
);
}
);
width = 1210;
},
{
layerId = "E0F5E986-8A77-409E-9DB3-A90D066F072F";
shapes = (
{
closed = 1;
nodes = (
(710,315,l),
(710,385,l),
(70,385,l),
(70,315,l)
);
}
);
width = 780;
},
{
layerId = "671D7F47-0040-4C88-995A-F1154CC787CA";
shapes = (
{
closed = 1;
nodes = (
(1127,315,l),
(1127,385,l),
(70,385,l),
(70,315,l)
);
}
);
width = 1196.66667;
},
{
layerId = "69FAE2FB-B0EC-4DE1-A39D-F4FC44956106";
shapes = (
{
closed = 1;
nodes = (
(727,315,l),
(756,385,l),
(106,385,l),
(77,315,l)
);
}
);
width = 791;
}
);
unicode = 8212;
},
{
glyphname = underscore;
lastChange = "2019-06-02 00:52:56 +0000";
layers = (
{
layerId = "E82D559A-267E-4BF3-BBA1-0778DA3FF57C";
shapes = (
{
closed = 1;
nodes = (
(560,-150,l),
(560,-80,l),
(70,-80,l),
(70,-150,l)
);
}
);
width = 630;
},
{
layerId = "B8F43E33-4D80-4AEE-B4E2-DC92E4FCAAE5";
shapes = (
{
closed = 1;
nodes = (
(840,-150,l),
(840,-80,l),
(70,-80,l),
(70,-150,l)
);
}
);
width = 880;
},
{
layerId = "198E78DA-6138-42C0-8847-C36925CEE918";
shapes = (
{
closed = 1;
nodes = (
(476,-150,l),
(490,-80,l),
(0,-80,l),
(-14,-150,l)
);
}
);
width = 631;
},
{
layerId = "E0F5E986-8A77-409E-9DB3-A90D066F072F";
shapes = (
{
closed = 1;
nodes = (
(560,-150,l),
(560,-80,l),
(70,-80,l),
(70,-150,l)
);
}
);
width = 630;
},
{
layerId = "671D7F47-0040-4C88-995A-F1154CC787CA";
shapes = (
{
closed = 1;
nodes = (
(885,-150,l),
(885,-80,l),
(70,-80,l),
(70,-150,l)
);
}
);
width = 905;
},
{
layerId = "69FAE2FB-B0EC-4DE1-A39D-F4FC44956106";
shapes = (
{
closed = 1;
nodes = (
(476,-150,l),
(490,-80,l),
(0,-80,l),
(-14,-150,l)
);
}
);
width = 631;
}
);
unicode = 95;
},
{
glyphname = quoteleft;
lastChange = "2019-06-02 00:52:56 +0000";
layers = (
{
layerId = "E82D559A-267E-4BF3-BBA1-0778DA3FF57C";
shapes = (
{
closed = 1;
nodes = (
(210,452,l),
(210,592,l),
(140,592,l),
(210,644,l),
(167,700,l),
(70,627,l),
(70,452,l)
);
}
);
width = 280;
},
{
layerId = "B8F43E33-4D80-4AEE-B4E2-DC92E4FCAAE5";
shapes = (
{
closed = 1;
nodes = (
(210,452,l),
(210,592,l),
(140,592,l),
(210,644,l),
(167,700,l),
(70,627,l),
(70,452,l)
);
}
);
width = 280;
},
{
layerId = "198E78DA-6138-42C0-8847-C36925CEE918";
shapes = (
{
closed = 1;
nodes = (
(253,452,l),
(282,592,l),
(212,592,l),
(293,644,l),
(262,700,l),
(150,627,l),
(113,452,l)
);
}
);
width = 280;
},
{
layerId = "E0F5E986-8A77-409E-9DB3-A90D066F072F";
shapes = (
{
closed = 1;
nodes = (
(166,526,l),
(166,622,l),
(113,622,l),
(164,660,l),
(134,700,l),
(70,652,l),
(70,526,l)
);
}
);
width = 236;
},
{
layerId = "671D7F47-0040-4C88-995A-F1154CC787CA";
shapes = (
{
closed = 1;
nodes = (
(166,526,l),
(166,622,l),
(113,622,l),
(164,660,l),
(134,700,l),
(70,652,l),
(70,526,l)
);
}
);
width = 236;
},
{
layerId = "69FAE2FB-B0EC-4DE1-A39D-F4FC44956106";
shapes = (
{
closed = 1;
nodes = (
(209,526,l),
(238,622,l),
(185,622,l),
(247,660,l),
(229,700,l),
(150,652,l),
(113,526,l)
);
}
);
width = 236;
}
);
unicode = 8216;
},
{
glyphname = quoteright;
lastChange = "2019-06-02 00:52:56 +0000";
layers = (
{
layerId = "E82D559A-267E-4BF3-BBA1-0778DA3FF57C";
shapes = (
{
closed = 1;
nodes = (
(210,525,l),
(210,700,l),
(70,700,l),
(70,560,l),
(140,560,l),
(70,508,l),
(113,452,l)
);
}
);
width = 280;
},
{
layerId = "B8F43E33-4D80-4AEE-B4E2-DC92E4FCAAE5";
shapes = (
{
closed = 1;
nodes = (
(210,525,l),
(210,700,l),
(70,700,l),
(70,560,l),
(140,560,l),
(70,508,l),
(113,452,l)
);
}
);
width = 280;
},
{
layerId = "198E78DA-6138-42C0-8847-C36925CEE918";
shapes = (
{
closed = 1;
nodes = (
(269,525,l),
(306,700,l),
(166,700,l),
(136,560,l),
(205,560,l),
(125,508,l),
(158,452,l)
);
}
);
width = 281;
},
{
layerId = "E0F5E986-8A77-409E-9DB3-A90D066F072F";
shapes = (
{
closed = 1;
nodes = (
(166,574,l),
(166,700,l),
(70,700,l),
(70,604,l),
(123,604,l),
(72,566,l),
(102,526,l)
);
}
);
width = 236;
},
{
layerId = "671D7F47-0040-4C88-995A-F1154CC787CA";
shapes = (
{
closed = 1;
nodes = (
(166,574,l),
(166,700,l),
(70,700,l),
(70,604,l),
(123,604,l),
(72,566,l),
(102,526,l)
);
}
);
width = 236;
},
{
layerId = "69FAE2FB-B0EC-4DE1-A39D-F4FC44956106";
shapes = (
{
closed = 1;
nodes = (
(225,574,l),
(262,700,l),
(166,700,l),
(136,604,l),
(188,604,l),
(127,566,l),
(147,526,l)
);
}
);
width = 237;
}
);
unicode = 8217;
},
